<svg width="596" height="743" viewBox="0 0 596 743" fill="none" xmlns="http://www.w3.org/2000/svg">
<g clip-path="url(#clip0_114_835)">
<path d="M81.835 230.702L81.453 265.864L64.1873 277.485L27.2145 302.372L15.8951 309.989C7.40763 305.454 2.8234 296.931 0.464844 286.132L81.835 230.702Z" stroke="white" stroke-miterlimit="10"/>
<path d="M595.402 196.163L529.57 234.157L466.528 270.532L402.142 307.696L336.318 345.675L271.657 382.988V382.997H271.649L202.586 422.852L81.835 230.702L476.071 0.564941L595.402 196.163Z" stroke="white" stroke-miterlimit="10"/>
<path d="M336.318 345.674C335.081 351.506 333.345 357.071 331.211 362.254C330.845 362.587 330.505 362.969 330.214 363.384L321.17 376.417C318.571 375.811 316.079 377.788 316.079 380.463V381.244L301.754 389.367L294.57 393.446L294.628 396.628C286.681 396.827 278.691 392.74 271.657 382.996L336.318 345.674Z" fill="white" stroke="white" stroke-miterlimit="10"/>
<path d="M294.628 396.627C295.99 396.594 297.344 396.436 298.689 396.154C301.505 395.589 304.295 394.501 307.011 392.956C310.158 391.178 313.206 388.794 316.08 385.904C318.679 383.304 321.129 380.288 323.396 376.932C326.361 372.563 329.002 367.621 331.211 362.263" stroke="white" stroke-miterlimit="10"/>
<path d="M402.142 307.696C399.559 313.918 397.018 319.542 394.51 324.592C394.485 324.625 394.46 324.659 394.435 324.692L385.4 337.725C382.792 337.11 380.3 339.096 380.3 341.77V342.551L365.975 350.675L358.791 354.754L358.916 361.05C351.076 361 343.56 355.451 336.318 345.674L402.142 307.696Z" fill="white" stroke="white" stroke-miterlimit="10"/>
<path d="M466.528 270.532C456.92 316.069 421.342 339.91 402.142 307.696L466.528 270.532Z" fill="white" stroke="white" stroke-miterlimit="10"/>
<path d="M394.51 324.592C391.993 329.668 389.51 334.17 387.06 338.116C384.777 341.795 382.526 345.002 380.3 347.751C377.792 350.858 375.317 353.392 372.876 355.385C370.584 357.246 368.333 358.633 366.107 359.563H366.099C363.674 360.577 361.282 361.059 358.916 361.05" stroke="white" stroke-miterlimit="10"/>
<path d="M595.402 196.163C589.871 222.943 577.323 240.969 563.537 246.892C557.64 249.425 551.512 249.741 545.615 247.581C539.918 245.496 534.437 241.102 529.57 234.157L595.402 196.163Z" fill="white" stroke="white" stroke-miterlimit="10"/>
<path d="M271.649 382.997C267.58 393.081 263.56 401.587 259.59 408.639L259.574 408.673L256.825 412.635C254.217 412.02 251.726 414.005 251.726 416.68V417.461L237.4 425.585L230.216 429.664L230.349 436.724C220.882 438.344 211.655 432.986 202.586 422.852L271.649 382.997Z" fill="white" stroke="white" stroke-miterlimit="10"/>
<path d="M259.574 408.672C258.777 410.085 257.988 411.43 257.207 412.726C255.372 415.741 253.545 418.449 251.726 420.867C248.994 424.497 246.286 427.47 243.604 429.821C241.478 431.69 239.369 433.169 237.267 434.299C234.95 435.528 232.65 436.334 230.358 436.724H230.35" stroke="white" stroke-miterlimit="10"/>
<path d="M62.9338 559.896L50.8337 568.651L62.7095 575.579L62.8673 575.67L62.5102 655.281L44.2729 664.402L45.7014 289.928L64.1878 277.485L62.9338 559.896Z" stroke="white" stroke-miterlimit="10"/>
<path d="M45.7013 289.928L44.2728 664.402L27.2148 655.979V302.372L45.7013 289.928Z" stroke="white" stroke-miterlimit="10"/>
<path d="M202.338 730.59L181.293 742.285L181.069 619.122L180.994 578.76L180.986 570.703L180.969 563.301L180.961 558.384L180.928 539.968L180.895 523.778V523.545L180.886 517.274L180.712 421.166L190.877 437.065L200.004 425.992L200.369 473.539L200.76 524.717L200.984 553.715L201.059 563.791L201.117 571.558V571.566L201.183 579.931L201.482 618.964L201.607 634.913L202.221 715.172V715.181L202.338 730.59Z" stroke="white" stroke-miterlimit="10"/>
<path d="M164.002 634.664L163.994 715.114L62.5098 655.281L62.8669 575.67L164.002 634.664Z" stroke="white" stroke-miterlimit="10"/>
<path d="M164.003 606.621V634.664L62.8671 575.67L62.7093 575.578L50.8335 568.651L62.9335 559.895L87.416 542.169L87.6984 556.697L132.162 589.26L144.868 582.498L145.068 592.757L164.003 606.621Z" stroke="white" stroke-miterlimit="10"/>
<path d="M164.177 634.764L164.002 634.664" stroke="white" stroke-miterlimit="10"/>
<path d="M88.2465 541.571L87.416 542.169" stroke="white" stroke-miterlimit="10"/>
<path d="M529.57 234.157C529.221 236.5 528.798 238.784 528.308 241.002C519.156 282.328 486.41 300.727 466.529 270.532L529.57 234.157Z" fill="white" stroke="white" stroke-miterlimit="10"/>
<path d="M545.615 247.581V437.015L526.049 425.17L528.308 241.002C528.798 238.784 529.221 236.5 529.57 234.157C534.437 241.102 539.918 245.496 545.615 247.581Z" stroke="white" stroke-miterlimit="10"/>
<path d="M520.601 421.872L519.43 421.166" stroke="white" stroke-miterlimit="10"/>
<path d="M532.527 444.549V527.906L202.221 715.172L201.606 634.913L532.527 444.549Z" stroke="white" stroke-miterlimit="10"/>
<path d="M202.155 715.214L202.221 715.181V715.173" stroke="white" stroke-miterlimit="10"/>
<path d="M545.615 437.015V534.045L532.527 527.906V444.549L545.615 437.015Z" stroke="white" stroke-miterlimit="10"/>
<path d="M563.537 246.892V523.521L545.615 534.045V247.581C551.512 249.741 557.641 249.425 563.537 246.892Z" stroke="white" stroke-miterlimit="10"/>
<path d="M563.537 246.892V246.883" stroke="white" stroke-miterlimit="10"/>
<path d="M545.615 247.582V247.573" stroke="white" stroke-miterlimit="10"/>
<path d="M202.586 422.852L200.004 425.992L190.877 437.065L180.712 421.166L164.011 395.033V395.025L81.4531 265.864L81.8351 230.702L202.586 422.852Z" stroke="white" stroke-miterlimit="10"/>
<path d="M246.876 479.42C245.946 479.894 245.132 480.6 244.509 481.489L235.473 494.522C232.866 493.907 230.374 495.892 230.374 498.567V499.348L216.049 507.472L208.865 511.551L209.205 529.069C208.358 527.242 206.681 525.855 204.596 525.456L200.759 524.717L200.369 473.539L230.706 454.874L230.956 467.758L246.876 479.42Z" stroke="white" stroke-miterlimit="10"/>
<path d="M380.456 360.618L372.791 355.385L365.89 350.675L380.215 342.551V359.256C380.215 359.729 380.298 360.186 380.456 360.618Z" stroke="white" stroke-miterlimit="10"/>
<path d="M405.47 385.489L404.989 397.899L404.224 417.262L403.909 425.411L393.628 417.885L387.407 413.324L384.6 411.273L376.296 405.192L368.854 399.735L359.445 392.848L359.312 386.062L358.947 367.114L358.831 361.05L358.706 354.754L366.014 359.563H366.023L405.47 385.489Z" stroke="white" stroke-miterlimit="10"/>
<path d="M457.848 357.113V396.719L403.909 425.41L405.47 385.488L457.848 357.113Z" stroke="white" stroke-miterlimit="10"/>
<path d="M408.626 360.967L397.323 358.326C395.272 357.844 393.312 359.406 393.312 361.507V369.399L380.456 360.618C380.298 360.186 380.215 359.73 380.215 359.256V341.771C380.215 339.096 382.707 337.11 385.314 337.725L386.975 338.116L405.47 342.427C407.156 342.817 408.418 344.221 408.643 345.94L410.104 357.221C410.295 358.658 409.722 360.07 408.626 360.967Z" stroke="white" stroke-miterlimit="10"/>
<path d="M393.395 369.456H393.312C392.548 369.432 391.784 369.191 391.119 368.75L382.067 362.711C381.303 362.205 380.738 361.465 380.456 360.618L393.312 369.398L393.395 369.456Z" stroke="white" stroke-miterlimit="10"/>
<path d="M457.848 357.113L405.47 385.488L366.023 359.563L358.714 354.754L365.898 350.675L372.799 355.385L380.465 360.618C380.747 361.465 381.312 362.205 382.076 362.711L391.128 368.75C391.792 369.191 392.556 369.431 393.32 369.456H393.403L405.479 377.697L416.516 371.043L443.514 354.754L424.181 339.577V333.281L457.857 357.113H457.848Z" stroke="white" stroke-miterlimit="10"/>
<path d="M416.507 371.043L405.47 377.697L393.395 369.457L393.312 369.398V361.507C393.312 359.406 395.272 357.844 397.323 358.326L408.626 360.967L413.194 362.03C414.522 362.338 415.519 363.443 415.693 364.797L416.507 371.043Z" stroke="white" stroke-miterlimit="10"/>
<path d="M393.395 369.457H393.312V369.398L393.395 369.457Z" stroke="white" stroke-miterlimit="10"/>
<path d="M443.506 354.754L416.507 371.043L415.693 364.797C415.519 363.443 414.522 362.338 413.194 362.031L408.626 360.967C409.722 360.07 410.295 358.658 410.104 357.221L421.258 349.969C423.076 348.79 424.172 346.763 424.172 344.587V339.578L443.506 354.754Z" stroke="white" stroke-miterlimit="10"/>
<path d="M424.172 331.852V344.586C424.172 346.763 423.076 348.79 421.257 349.969L410.104 357.221L408.643 345.94C408.418 344.221 407.156 342.817 405.47 342.427L386.975 338.115L385.314 337.725L394.35 324.692C394.35 324.692 394.4 324.625 394.425 324.592C395.886 322.565 398.394 321.569 400.844 322.042L418.974 325.547C421.997 326.129 424.172 328.779 424.172 331.852Z" stroke="white" stroke-miterlimit="10"/>
<path d="M443.124 396.677L428.557 386.734L442.883 378.61V395.315C442.883 395.789 442.966 396.245 443.124 396.677Z" stroke="white" stroke-miterlimit="10"/>
<path d="M468.138 421.548L466.576 461.47L456.295 453.944L438.971 441.251L431.522 435.802L422.113 428.907L421.98 422.129L421.864 415.866L421.614 403.157L421.374 390.813L442.659 404.801L468.138 421.548Z" stroke="white" stroke-miterlimit="10"/>
<path d="M520.516 393.172V432.779L466.576 461.47L468.137 421.548L520.516 393.172Z" stroke="white" stroke-miterlimit="10"/>
<path d="M471.293 397.026L459.991 394.385C457.939 393.903 455.979 395.465 455.979 397.566V405.458L443.124 396.677C442.966 396.246 442.883 395.789 442.883 395.315V377.83C442.883 375.155 445.374 373.17 447.982 373.784L468.138 378.486C469.823 378.876 471.086 380.28 471.31 382L472.772 393.28C472.963 394.717 472.39 396.129 471.293 397.026Z" stroke="white" stroke-miterlimit="10"/>
<path d="M456.062 405.516H455.979C455.215 405.491 454.451 405.25 453.787 404.81L444.735 398.771C443.971 398.264 443.406 397.525 443.124 396.678L455.979 405.458L456.062 405.516Z" stroke="white" stroke-miterlimit="10"/>
<path d="M520.516 393.172L468.138 421.548L421.374 390.813L428.557 386.735L443.124 396.678C443.406 397.525 443.971 398.264 444.735 398.771L453.787 404.81C454.451 405.25 455.215 405.491 455.979 405.516H456.063L468.138 413.756L479.175 407.103L506.174 390.813L486.84 375.637V369.34L520.516 393.172Z" stroke="white" stroke-miterlimit="10"/>
<path d="M479.175 407.102L468.138 413.756L456.063 405.516L455.979 405.458V397.566C455.979 395.465 457.939 393.903 459.991 394.385L471.293 397.026L475.861 398.089C477.19 398.397 478.186 399.502 478.361 400.856L479.175 407.102Z" stroke="white" stroke-miterlimit="10"/>
<path d="M456.063 405.516H455.979V405.458L456.063 405.516Z" stroke="white" stroke-miterlimit="10"/>
<path d="M506.173 390.813L479.175 407.102L478.361 400.856C478.186 399.502 477.19 398.397 475.861 398.09L471.293 397.026C472.39 396.129 472.963 394.717 472.772 393.28L483.925 386.028C485.744 384.849 486.84 382.822 486.84 380.646V375.637L506.173 390.813Z" stroke="white" stroke-miterlimit="10"/>
<path d="M486.84 367.912V380.646C486.84 382.822 485.744 384.849 483.925 386.028L472.772 393.28L471.31 382C471.086 380.28 469.823 378.876 468.138 378.486L447.982 373.784L457.017 360.751C458.471 358.658 461.02 357.62 463.512 358.101L481.641 361.607C484.664 362.188 486.84 364.838 486.84 367.912Z" stroke="white" stroke-miterlimit="10"/>
<path d="M316.227 399.311L306.926 392.956L301.669 389.368L315.995 381.244V397.948C315.995 398.422 316.078 398.879 316.227 399.311Z" stroke="white" stroke-miterlimit="10"/>
<path d="M341.241 424.181L340.643 439.648L339.688 464.103L336.591 461.835L329.872 456.909L329.274 456.477L317.016 447.498L310.073 442.423L302.715 437.031L295.216 431.541L295.033 422.129V422.121L294.676 403.456L294.543 396.628L294.485 393.446L298.605 396.154L341.241 424.181Z" stroke="white" stroke-miterlimit="10"/>
<path d="M393.627 395.805V435.411L339.688 464.103L341.249 424.181L393.627 395.805Z" stroke="white" stroke-miterlimit="10"/>
<path d="M344.405 399.66L333.102 397.018C331.051 396.536 329.091 398.098 329.091 400.208V408.099L316.227 399.311C316.078 398.879 315.995 398.422 315.995 397.949V380.463C315.995 377.788 318.486 375.811 321.085 376.418L323.311 376.933L341.241 381.119C342.935 381.518 344.198 382.922 344.422 384.641L345.875 395.913C346.066 397.359 345.501 398.763 344.405 399.66Z" stroke="white" stroke-miterlimit="10"/>
<path d="M329.174 408.149H329.091C328.327 408.124 327.563 407.884 326.899 407.443L317.846 401.404C317.082 400.898 316.518 400.158 316.235 399.311L329.091 408.091L329.174 408.149Z" stroke="white" stroke-miterlimit="10"/>
<path d="M393.628 395.806L376.296 405.192L341.241 424.181L298.605 396.154L294.485 393.446L301.669 389.368L306.926 392.956L316.227 399.311C316.518 400.167 317.083 400.898 317.847 401.413L326.899 407.443C327.555 407.892 328.327 408.124 329.091 408.158H329.166L341.241 416.389L352.278 409.736L368.855 399.735L379.285 393.446L359.944 378.27V371.974L393.628 395.806Z" stroke="white" stroke-miterlimit="10"/>
<path d="M352.287 409.736L341.25 416.389L329.174 408.149L329.091 408.091V400.199C329.091 398.098 331.051 396.536 333.103 397.018L344.405 399.66L348.973 400.723C350.302 401.03 351.298 402.135 351.473 403.489L352.287 409.736Z" stroke="white" stroke-miterlimit="10"/>
<path d="M329.175 408.149H329.091V408.091L329.175 408.149Z" stroke="white" stroke-miterlimit="10"/>
<path d="M379.285 393.446L352.286 409.736L351.473 403.489C351.298 402.135 350.302 401.03 348.973 400.723L344.405 399.66C345.502 398.763 346.075 397.35 345.884 395.913L357.037 388.662C358.856 387.482 359.952 385.455 359.952 383.279V378.27L379.285 393.446Z" stroke="white" stroke-miterlimit="10"/>
<path d="M359.943 370.545V383.287C359.943 384.267 359.719 385.206 359.312 386.062C358.822 387.108 358.042 388.014 357.037 388.662L345.875 395.913L344.422 384.641C344.198 382.922 342.935 381.518 341.241 381.119L323.311 376.933L321.085 376.418L330.129 363.384C330.42 362.969 330.761 362.587 331.126 362.263C332.604 360.934 334.631 360.352 336.624 360.735L354.753 364.24C356.547 364.581 358.033 365.652 358.947 367.114C359.586 368.111 359.943 369.29 359.943 370.545Z" stroke="white" stroke-miterlimit="10"/>
<path d="M378.903 435.37L364.336 425.427L378.662 417.303V434.007C378.662 434.481 378.745 434.938 378.903 435.37Z" stroke="white" stroke-miterlimit="10"/>
<path d="M403.917 460.24L402.356 500.162L385.721 487.976L373.497 479.03L365.815 473.406L357.892 467.6L357.734 459.335L357.643 454.558L357.601 452.507L357.153 429.505L378.438 443.494L403.917 460.24Z" stroke="white" stroke-miterlimit="10"/>
<path d="M456.295 431.865V471.471L402.355 500.162L403.917 460.24L438.971 441.251L456.295 431.865Z" stroke="white" stroke-miterlimit="10"/>
<path d="M407.073 435.719L395.77 433.077C393.719 432.595 391.759 434.157 391.759 436.259V444.15L378.903 435.37C378.745 434.938 378.662 434.481 378.662 434.008V416.522C378.662 413.847 381.154 411.862 383.761 412.477L403.917 417.178C405.603 417.569 406.865 418.972 407.089 420.692L408.551 431.972C408.742 433.41 408.169 434.822 407.073 435.719Z" stroke="white" stroke-miterlimit="10"/>
<path d="M391.842 444.208H391.759C390.995 444.184 390.231 443.943 389.566 443.502L380.514 437.463C379.75 436.957 379.185 436.217 378.903 435.37L391.759 444.15L391.842 444.208Z" stroke="white" stroke-miterlimit="10"/>
<path d="M456.295 431.865L430.106 446.052L403.917 460.24L357.153 429.506L364.336 425.427L378.903 435.37C379.185 436.217 379.75 436.957 380.514 437.463L389.566 443.502C390.231 443.943 390.995 444.183 391.759 444.208H391.842L403.917 452.449L414.954 445.795L441.953 429.506L422.619 414.329V408.033L456.295 431.865Z" stroke="white" stroke-miterlimit="10"/>
<path d="M414.954 445.795L403.917 452.448L391.842 444.208L391.759 444.15V436.259C391.759 434.157 393.719 432.595 395.77 433.077L407.073 435.719L411.64 436.782C412.969 437.089 413.966 438.194 414.14 439.548L414.954 445.795Z" stroke="white" stroke-miterlimit="10"/>
<path d="M391.842 444.208H391.759V444.15L391.842 444.208Z" stroke="white" stroke-miterlimit="10"/>
<path d="M441.953 429.505L414.954 445.795L414.14 439.548C413.966 438.194 412.969 437.089 411.64 436.782L407.073 435.719C408.169 434.822 408.742 433.41 408.551 431.973L419.704 424.721C421.523 423.541 422.619 421.514 422.619 419.338V414.329L441.953 429.505Z" stroke="white" stroke-miterlimit="10"/>
<path d="M422.619 406.604V419.338C422.619 421.514 421.523 423.541 419.704 424.721L408.551 431.973L407.089 420.692C406.865 418.973 405.603 417.569 403.917 417.178L383.761 412.477L392.797 399.444C394.25 397.35 396.8 396.312 399.291 396.794L417.42 400.299C420.443 400.881 422.619 403.53 422.619 406.604Z" stroke="white" stroke-miterlimit="10"/>
<path d="M251.882 435.528L243.519 429.821L237.315 425.585L251.641 417.461V434.166C251.641 434.639 251.724 435.096 251.882 435.528Z" stroke="white" stroke-miterlimit="10"/>
<path d="M276.895 460.398L275.691 491.1L275.45 497.322L275.334 500.32L274.246 499.523L246.791 479.421L230.87 467.758L230.621 454.874L230.273 436.724H230.264L230.131 429.664L237.182 434.299L276.895 460.398Z" stroke="white" stroke-miterlimit="10"/>
<path d="M329.273 432.023V471.629L275.334 500.321L276.895 460.399L329.273 432.023Z" stroke="white" stroke-miterlimit="10"/>
<path d="M280.051 435.877L268.748 433.235C266.697 432.754 264.737 434.315 264.737 436.417V444.308L251.881 435.528C251.724 435.096 251.641 434.639 251.641 434.166V416.68C251.641 414.005 254.132 412.02 256.74 412.635L257.122 412.726L276.895 417.336C278.581 417.727 279.844 419.131 280.068 420.85L281.53 432.131C281.721 433.568 281.147 434.98 280.051 435.877Z" stroke="white" stroke-miterlimit="10"/>
<path d="M264.82 444.367H264.737C263.973 444.342 263.209 444.101 262.545 443.661L253.492 437.622C252.728 437.115 252.164 436.376 251.881 435.528L264.737 444.308L264.82 444.367Z" stroke="white" stroke-miterlimit="10"/>
<path d="M329.274 432.023L310.073 442.423L276.895 460.398L237.182 434.299L230.131 429.664L237.315 425.585L243.519 429.822L251.882 435.528C252.164 436.376 252.729 437.115 253.493 437.622L262.545 443.66C263.209 444.101 263.973 444.342 264.737 444.367H264.82L276.895 452.607L287.933 445.953L302.715 437.032L314.931 429.664L295.598 414.487V408.191L329.274 432.023Z" stroke="white" stroke-miterlimit="10"/>
<path d="M287.933 445.953L276.895 452.606L264.82 444.366L264.737 444.308V436.417C264.737 434.315 266.697 432.754 268.748 433.235L280.051 435.877L284.619 436.94C285.948 437.247 286.944 438.352 287.119 439.706L287.933 445.953Z" stroke="white" stroke-miterlimit="10"/>
<path d="M264.821 444.366H264.737V444.308L264.821 444.366Z" stroke="white" stroke-miterlimit="10"/>
<path d="M314.931 429.664L287.932 445.953L287.119 439.706C286.944 438.352 285.948 437.248 284.619 436.94L280.051 435.877C281.147 434.98 281.721 433.568 281.53 432.131L292.683 424.879C294.502 423.699 295.598 421.673 295.598 419.496V414.487L314.931 429.664Z" stroke="white" stroke-miterlimit="10"/>
<path d="M295.598 406.762V419.496C295.598 420.418 295.398 421.315 295.033 422.129C294.543 423.234 293.729 424.198 292.683 424.879L281.529 432.131L280.068 420.85C279.844 419.131 278.581 417.727 276.895 417.337L257.122 412.726L256.74 412.635L259.489 408.673L259.505 408.639L265.775 399.602C267.229 397.508 269.778 396.47 272.27 396.952L290.399 400.457C292.243 400.815 293.771 401.936 294.676 403.456C295.266 404.428 295.598 405.558 295.598 406.762Z" stroke="white" stroke-miterlimit="10"/>
<path d="M308.329 475.915L293.763 465.972L308.088 457.848V474.552C308.088 475.026 308.171 475.483 308.329 475.915Z" stroke="white" stroke-miterlimit="10"/>
<path d="M333.343 500.785L331.782 540.707L307.922 523.23L300.606 517.872L292.7 512.082L287.318 508.145L287.285 506.608L287.144 499.207L287.044 494.09L286.579 470.05L307.001 483.474L333.343 500.785Z" stroke="white" stroke-miterlimit="10"/>
<path d="M385.721 472.41V512.016L331.782 540.707L333.343 500.785L373.497 479.03L385.721 472.41Z" stroke="white" stroke-miterlimit="10"/>
<path d="M336.507 476.264L325.205 473.622C323.153 473.14 321.193 474.702 321.193 476.804V484.695L308.338 475.915C308.18 475.483 308.097 475.026 308.097 474.552V457.067C308.097 454.392 310.588 452.407 313.196 453.022L333.351 457.723C335.037 458.114 336.3 459.517 336.524 461.237L337.986 472.517C338.177 473.954 337.604 475.367 336.507 476.264Z" stroke="white" stroke-miterlimit="10"/>
<path d="M321.268 484.753H321.185C320.421 484.728 319.657 484.488 318.992 484.047L309.94 478.008C309.176 477.502 308.611 476.762 308.329 475.915L321.185 484.695L321.268 484.753Z" stroke="white" stroke-miterlimit="10"/>
<path d="M385.73 472.41L333.352 500.785L286.587 470.05L293.771 465.972L308.338 475.915C308.62 476.762 309.185 477.502 309.949 478.008L319.001 484.047C319.665 484.487 320.429 484.728 321.193 484.753H321.276L333.352 492.993L344.389 486.34L371.387 470.05L352.054 454.874V448.578L385.73 472.41Z" stroke="white" stroke-miterlimit="10"/>
<path d="M344.38 486.34L333.343 492.994L321.268 484.753L321.185 484.695V476.804C321.185 474.702 323.145 473.141 325.196 473.623L336.499 476.264L341.067 477.327C342.395 477.635 343.392 478.739 343.566 480.093L344.38 486.34Z" stroke="white" stroke-miterlimit="10"/>
<path d="M321.268 484.754H321.193V484.695L321.268 484.754Z" stroke="white" stroke-miterlimit="10"/>
<path d="M371.387 470.05L344.389 486.34L343.575 480.093C343.4 478.739 342.404 477.634 341.075 477.327L336.507 476.264C337.604 475.367 338.177 473.955 337.986 472.517L349.139 465.266C350.958 464.086 352.054 462.059 352.054 459.883V454.874L371.387 470.05Z" stroke="white" stroke-miterlimit="10"/>
<path d="M352.046 447.149V459.883C352.046 462.059 350.949 464.086 349.131 465.266L337.977 472.517L336.516 461.237C336.291 459.517 335.029 458.114 333.343 457.723L313.188 453.022L322.223 439.988C323.676 437.895 326.226 436.857 328.717 437.339L346.847 440.844C349.87 441.426 352.046 444.075 352.046 447.149Z" stroke="white" stroke-miterlimit="10"/>
<path d="M230.53 517.415L215.963 507.472L230.289 499.348V516.053C230.289 516.526 230.372 516.983 230.53 517.415Z" stroke="white" stroke-miterlimit="10"/>
<path d="M255.544 542.286L253.983 582.207L243.386 574.449L229.708 564.431L222.092 558.857L209.519 549.645L209.452 546.289V546.273L209.12 529.07L208.78 511.551L255.544 542.286Z" stroke="white" stroke-miterlimit="10"/>
<path d="M307.922 513.91V553.516L253.982 582.208L255.544 542.286L300.605 517.872L307.922 513.91Z" stroke="white" stroke-miterlimit="10"/>
<path d="M258.7 517.764L247.397 515.123C245.346 514.641 243.386 516.203 243.386 518.304V526.195L230.53 517.415C230.372 516.983 230.289 516.526 230.289 516.053V498.567C230.289 495.893 232.781 493.907 235.388 494.522L255.544 499.224C257.23 499.614 258.492 501.018 258.716 502.737L260.178 514.018C260.369 515.455 259.796 516.867 258.7 517.764Z" stroke="white" stroke-miterlimit="10"/>
<path d="M243.469 526.254H243.386C242.622 526.229 241.857 525.988 241.193 525.548L232.141 519.509C231.377 519.002 230.812 518.263 230.53 517.416L243.386 526.196L243.469 526.254Z" stroke="white" stroke-miterlimit="10"/>
<path d="M307.922 513.91L300.606 517.872L255.544 542.286L208.78 511.551L215.963 507.472L230.53 517.415C230.812 518.263 231.377 519.002 232.141 519.509L241.193 525.548C241.858 525.988 242.622 526.229 243.386 526.254H243.469L255.544 534.494L266.581 527.84L292.699 512.083L293.58 511.551L287.285 506.608L277.684 499.074L275.45 497.322L274.246 496.375V490.078L275.691 491.1L282.975 496.258L287.144 499.207L307.922 513.91Z" stroke="white" stroke-miterlimit="10"/>
<path d="M266.581 527.841L255.544 534.494L243.469 526.254L243.386 526.196V518.304C243.386 516.203 245.346 514.641 247.397 515.123L258.7 517.765L263.267 518.828C264.596 519.135 265.593 520.24 265.767 521.594L266.581 527.841Z" stroke="white" stroke-miterlimit="10"/>
<path d="M243.469 526.254H243.386V526.196L243.469 526.254Z" stroke="white" stroke-miterlimit="10"/>
<path d="M293.58 511.551L266.581 527.84L265.767 521.594C265.593 520.24 264.596 519.135 263.267 518.828L258.7 517.764C259.796 516.867 260.369 515.455 260.178 514.018L271.331 506.766C273.15 505.587 274.246 503.56 274.246 501.383V496.375L293.58 511.551Z" stroke="white" stroke-miterlimit="10"/>
<path d="M274.246 488.649V501.384C274.246 503.56 273.15 505.587 271.331 506.766L260.178 514.018L258.716 502.737C258.492 501.018 257.23 499.614 255.544 499.224L235.388 494.522L244.424 481.489C245.047 480.6 245.86 479.894 246.791 479.421C248.036 478.789 249.49 478.565 250.918 478.839L269.047 482.345C272.07 482.926 274.246 485.576 274.246 488.649Z" stroke="white" stroke-miterlimit="10"/>
<path d="M108.624 524.467L94.0576 514.524L108.383 506.4V523.105C108.383 523.579 108.466 524.035 108.624 524.467Z" stroke="white" stroke-miterlimit="10"/>
<path d="M133.638 549.338L132.077 589.26L87.6131 556.697L87.3308 542.169L86.874 518.603L133.638 549.338Z" stroke="white" stroke-miterlimit="10"/>
<path d="M180.984 619.122L180.909 578.76V570.703L180.884 563.301V558.384L180.843 539.968L180.809 523.778V517.274L180.627 421.166L163.926 395.033V505.321L163.917 634.664V715.114L163.909 732.459L181.208 742.285L180.984 619.122ZM178.849 569.365V569.307L178.933 569.365H178.849Z" fill="black" fill-opacity="0.1" stroke="white" stroke-miterlimit="10"/>
<path d="M163.917 532.932V572.322L144.783 582.498L132.077 589.26L133.638 549.338L163.917 532.932Z" stroke="white" stroke-miterlimit="10"/>
<path d="M136.794 524.816L125.491 522.175C123.44 521.693 121.48 523.255 121.48 525.356V533.248L108.624 524.468C108.466 524.036 108.383 523.579 108.383 523.105V505.62C108.383 502.945 110.875 500.96 113.482 501.574L133.638 506.276C135.324 506.666 136.586 508.07 136.811 509.79L138.272 521.07C138.463 522.507 137.89 523.919 136.794 524.816Z" stroke="white" stroke-miterlimit="10"/>
<path d="M121.563 533.306H121.48C120.716 533.281 119.952 533.04 119.287 532.6L110.235 526.561C109.471 526.054 108.906 525.315 108.624 524.468L121.48 533.248L121.563 533.306Z" stroke="white" stroke-miterlimit="10"/>
<path d="M163.917 523.28V532.932L133.638 549.338L86.874 518.603L94.0576 514.524L108.624 524.468C108.907 525.315 109.471 526.054 110.235 526.561L119.288 532.6C119.952 533.04 120.716 533.281 121.48 533.306H121.563L133.638 541.546L144.675 534.892L163.917 523.28Z" stroke="white" stroke-miterlimit="10"/>
<path d="M163.917 505.321V512.514L152.34 503.427V497.13L163.917 505.321Z" stroke="white" stroke-miterlimit="10"/>
<path d="M144.675 534.892L133.638 541.546L121.563 533.306L121.48 533.248V525.356C121.48 523.255 123.44 521.693 125.491 522.175L136.794 524.816L141.362 525.88C142.69 526.187 143.687 527.292 143.861 528.646L144.675 534.892Z" stroke="white" stroke-miterlimit="10"/>
<path d="M121.563 533.306H121.48V533.248L121.563 533.306Z" stroke="white" stroke-miterlimit="10"/>
<path d="M163.917 512.514V523.28L144.675 534.892L143.861 528.646C143.687 527.292 142.69 526.187 141.362 525.88L136.794 524.816C137.89 523.919 138.463 522.507 138.272 521.07L149.425 513.818C151.244 512.639 152.34 510.612 152.34 508.436V503.427L163.917 512.514Z" stroke="white" stroke-miterlimit="10"/>
<path d="M152.34 495.702V508.436C152.34 510.612 151.244 512.639 149.425 513.818L138.272 521.07L136.811 509.79C136.586 508.07 135.324 506.666 133.638 506.276L113.482 501.574L122.518 488.541C123.971 486.448 126.521 485.41 129.012 485.891L147.142 489.397C150.165 489.978 152.34 492.628 152.34 495.702Z" stroke="white" stroke-miterlimit="10"/>
<path d="M163.918 543.498V559.106L151.427 550.584L163.918 543.498Z" stroke="white" stroke-miterlimit="10"/>
<path d="M163.918 567.596V606.62L144.983 592.757L144.783 582.498L144.244 554.662L163.918 567.596Z" stroke="white" stroke-miterlimit="10"/>
<path d="M545.53 437.015L532.442 444.549L201.522 634.913L201.397 618.964L243.386 596.628V574.449L253.983 582.207L307.922 553.516V523.23L331.782 540.707L385.721 512.016V487.976L402.356 500.162L456.295 471.471V453.944L466.577 461.47L520.516 432.778V421.872L525.964 425.169L545.53 437.015Z" stroke="white" stroke-miterlimit="10"/>
<path d="M243.386 557.021V596.628L201.397 618.964L201.098 579.931L229.708 564.431L243.386 557.021Z" stroke="white" stroke-miterlimit="10"/>
<path d="M178.933 569.365H178.85V569.307L178.933 569.365Z" stroke="white" stroke-miterlimit="10"/>
<path d="M163.918 559.106V567.596L144.244 554.662L151.427 550.583L163.918 559.106Z" stroke="white" stroke-miterlimit="10"/>
<path d="M243.386 557.021L229.708 564.431L201.098 579.931L201.032 571.566V571.558L202.045 570.952L222.093 558.857L229.044 554.662L209.71 539.486V533.189L243.386 557.021Z" stroke="white" stroke-miterlimit="10"/>
<path d="M202.045 570.952L201.032 571.558L200.974 563.792C201.007 563.858 201.032 563.933 201.057 564.007C201.09 564.082 201.115 564.157 201.131 564.232C201.173 564.381 201.206 564.539 201.231 564.705L202.045 570.952Z" stroke="white" stroke-miterlimit="10"/>
<path d="M178.933 569.365H178.85V569.307L178.933 569.365Z" stroke="white" stroke-miterlimit="10"/>
<path d="M229.044 554.662L222.093 558.857L202.045 570.952L201.231 564.705C201.215 564.539 201.181 564.381 201.131 564.231C201.115 564.157 201.09 564.082 201.057 564.007C201.032 563.932 201.007 563.858 200.974 563.791L200.899 553.715L206.795 549.877C206.978 549.761 207.152 549.637 207.319 549.495C207.451 549.396 207.576 549.279 207.701 549.163C207.808 549.063 207.908 548.955 208.016 548.847C208.124 548.723 208.24 548.59 208.348 548.457C208.348 548.457 208.351 548.451 208.357 548.44C208.415 548.374 208.465 548.299 208.514 548.224C208.606 548.1 208.689 547.975 208.772 547.842C208.872 547.685 208.955 547.518 209.046 547.344C209.212 547.012 209.345 546.655 209.453 546.289V546.272C209.478 546.181 209.503 546.09 209.528 545.998C209.536 545.982 209.536 545.965 209.544 545.948C209.544 545.932 209.544 545.924 209.544 545.907C209.544 545.89 209.552 545.882 209.552 545.865C209.586 545.708 209.619 545.541 209.636 545.384C209.652 545.317 209.66 545.242 209.66 545.168C209.669 545.151 209.669 545.143 209.669 545.126V545.109C209.694 544.91 209.702 544.702 209.702 544.495V539.486L229.035 554.662H229.044Z" stroke="white" stroke-miterlimit="10"/>
<path d="M209.71 531.761V544.495C209.71 544.703 209.702 544.91 209.677 545.11V545.126C209.677 545.126 209.677 545.151 209.669 545.168C209.669 545.243 209.669 545.317 209.644 545.384C209.627 545.542 209.594 545.708 209.561 545.866C209.561 545.882 209.553 545.891 209.553 545.907C209.553 545.924 209.553 545.932 209.553 545.949C209.553 545.965 209.553 545.982 209.536 545.999C209.511 546.09 209.486 546.181 209.461 546.273V546.289C209.353 546.655 209.22 547.012 209.054 547.344C208.963 547.519 208.88 547.685 208.78 547.843C208.697 547.976 208.614 548.1 208.523 548.225C208.473 548.299 208.423 548.374 208.365 548.441C208.365 548.441 208.362 548.446 208.357 548.457C208.249 548.59 208.132 548.723 208.025 548.848C207.917 548.956 207.817 549.064 207.709 549.163C207.584 549.28 207.46 549.396 207.327 549.496C207.161 549.637 206.986 549.761 206.804 549.878L200.907 553.715L200.683 524.717L204.52 525.456C206.604 525.855 208.282 527.242 209.129 529.069C209.511 529.892 209.719 530.806 209.719 531.761H209.71Z" stroke="white" stroke-miterlimit="10"/>
</g>
<defs>
<clipPath id="clip0_114_835">
<rect width="596" height="743" fill="white"/>
</clipPath>
</defs>
</svg>
