<svg width="596" height="743" viewBox="0 0 596 743" fill="none" xmlns="http://www.w3.org/2000/svg">
<g clip-path="url(#clip0_34_2346)">
<path d="M81.835 230.702L81.4529 265.864L64.1873 277.485L27.2145 302.372L15.8951 309.989C7.40763 305.454 2.8234 296.931 0.464844 286.132L81.835 230.702Z" fill="black" fill-opacity="0.1" stroke="black" stroke-miterlimit="10"/>
<path d="M595.402 196.163L529.57 234.157L466.528 270.532L402.142 307.696L336.318 345.675L271.657 382.988V382.997H271.649L202.586 422.852L81.835 230.702L476.071 0.564941L595.402 196.163Z" fill="black" fill-opacity="0.1" stroke="black" stroke-miterlimit="10"/>
<path d="M336.318 345.675C335.081 351.506 333.345 357.071 331.211 362.255C330.845 362.587 330.505 362.969 330.214 363.384L321.17 376.418C318.571 375.811 316.079 377.788 316.079 380.463V381.244L301.754 389.368L294.57 393.446L294.628 396.628C286.681 396.827 278.691 392.74 271.657 382.997L336.318 345.675Z" fill="black" fill-opacity="0.2" stroke="black" stroke-miterlimit="10"/>
<path d="M294.628 396.628C295.99 396.595 297.344 396.437 298.689 396.154C301.505 395.589 304.295 394.501 307.011 392.956C310.158 391.179 313.206 388.795 316.08 385.904C318.679 383.304 321.129 380.288 323.396 376.933C326.361 372.563 329.002 367.621 331.211 362.263" stroke="black" stroke-miterlimit="10"/>
<path d="M402.142 307.696C399.559 313.918 397.018 319.542 394.51 324.592C394.485 324.625 394.46 324.659 394.435 324.692L385.4 337.725C382.792 337.11 380.3 339.096 380.3 341.77V342.551L365.975 350.675L358.791 354.754L358.916 361.05C351.076 361 343.56 355.451 336.318 345.674L402.142 307.696Z" fill="black" fill-opacity="0.2" stroke="black" stroke-miterlimit="10"/>
<path d="M466.528 270.532C456.92 316.069 421.342 339.91 402.142 307.696L466.528 270.532Z" fill="black" fill-opacity="0.2" stroke="black" stroke-miterlimit="10"/>
<path d="M394.51 324.592C391.993 329.667 389.51 334.17 387.06 338.115C384.777 341.795 382.526 345.002 380.3 347.751C377.792 350.858 375.317 353.391 372.876 355.385C370.584 357.246 368.333 358.633 366.107 359.563H366.099C363.674 360.577 361.282 361.058 358.916 361.05" stroke="black" stroke-miterlimit="10"/>
<path d="M595.402 196.162C589.871 222.943 577.323 240.969 563.537 246.891C557.64 249.425 551.512 249.74 545.615 247.581C539.918 245.496 534.437 241.102 529.57 234.157L595.402 196.162Z" fill="black" fill-opacity="0.2" stroke="black" stroke-miterlimit="10"/>
<path d="M271.649 382.997C267.58 393.081 263.56 401.587 259.59 408.639L259.574 408.673L256.825 412.635C254.217 412.02 251.726 414.005 251.726 416.68V417.461L237.4 425.585L230.216 429.664L230.349 436.724C220.882 438.344 211.655 432.986 202.586 422.852L271.649 382.997Z" fill="black" fill-opacity="0.2" stroke="black" stroke-miterlimit="10"/>
<path d="M259.574 408.672C258.777 410.085 257.988 411.43 257.207 412.726C255.372 415.741 253.545 418.449 251.726 420.867C248.994 424.497 246.286 427.47 243.604 429.821C241.478 431.69 239.369 433.169 237.267 434.299C234.95 435.528 232.65 436.334 230.358 436.724H230.35" stroke="black" stroke-miterlimit="10"/>
<path d="M62.9338 559.896L50.8337 568.651L62.7095 575.579L62.8673 575.67L62.5102 655.281L44.2729 664.402L45.7014 289.928L64.1878 277.485L62.9338 559.896Z" fill="black" fill-opacity="0.2" stroke="black" stroke-miterlimit="10"/>
<path d="M45.7013 289.928L44.2728 664.402L27.2148 655.979V302.372L45.7013 289.928Z" fill="black" fill-opacity="0.1" stroke="black" stroke-miterlimit="10"/>
<path d="M202.338 730.59L181.293 742.286L181.069 619.122L180.994 578.76L180.986 570.703L180.969 563.302L180.961 558.384L180.928 539.968L180.895 523.778V523.546L180.886 517.274L180.712 421.166L190.877 437.065L200.004 425.992L200.369 473.539L200.76 524.717L200.984 553.716L201.059 563.792L201.117 571.558V571.567L201.183 579.932L201.482 618.965L201.607 634.913L202.221 715.173V715.181L202.338 730.59Z" fill="black" fill-opacity="0.2" stroke="black" stroke-miterlimit="10"/>
<path d="M164.002 634.664L163.994 715.115L62.5098 655.281L62.8669 575.67L164.002 634.664Z" stroke="black" stroke-miterlimit="10"/>
<path d="M164.003 606.621V634.664L62.8671 575.67L62.7093 575.579L50.8335 568.651L62.9335 559.896L87.416 542.169L87.6984 556.698L132.162 589.26L144.868 582.498L145.068 592.757L164.003 606.621Z" stroke="black" stroke-miterlimit="10"/>
<path d="M164.177 634.764L164.002 634.664" stroke="black" stroke-miterlimit="10"/>
<path d="M88.2465 541.571L87.416 542.169" stroke="black" stroke-miterlimit="10"/>
<path d="M529.57 234.157C529.221 236.5 528.798 238.784 528.308 241.002C519.156 282.328 486.41 300.727 466.529 270.532L529.57 234.157Z" fill="black" fill-opacity="0.2" stroke="black" stroke-miterlimit="10"/>
<path d="M545.615 247.581V437.015L526.049 425.17L528.308 241.002C528.798 238.784 529.221 236.5 529.57 234.157C534.437 241.102 539.918 245.496 545.615 247.581Z" stroke="black" stroke-miterlimit="10"/>
<path d="M520.601 421.872L519.43 421.166" stroke="black" stroke-miterlimit="10"/>
<path d="M532.527 444.549V527.907L202.221 715.173L201.606 634.913L532.527 444.549Z" stroke="black" stroke-miterlimit="10"/>
<path d="M202.155 715.214L202.221 715.181V715.173" stroke="black" stroke-miterlimit="10"/>
<path d="M545.615 437.015V534.045L532.527 527.907V444.549L545.615 437.015Z" stroke="black" stroke-miterlimit="10"/>
<path d="M563.537 246.891V523.521L545.615 534.045V247.581C551.512 249.741 557.641 249.425 563.537 246.891Z" stroke="black" stroke-miterlimit="10"/>
<path d="M563.537 246.892V246.883" stroke="black" stroke-miterlimit="10"/>
<path d="M545.615 247.581V247.573" stroke="black" stroke-miterlimit="10"/>
<path d="M380.541 360.618L372.876 355.385L365.975 350.675L380.3 342.551V359.256C380.3 359.729 380.383 360.186 380.541 360.618Z" stroke="black" stroke-miterlimit="10"/>
<path d="M405.555 385.488L405.073 397.899L404.309 417.261L403.994 425.41L393.713 417.884L387.492 413.324L384.685 411.272L376.381 405.192L368.939 399.734L359.53 392.848L359.397 386.062L359.032 367.114L358.916 361.05L358.791 354.754L366.099 359.563H366.108L405.555 385.488Z" fill="#EBBB99" stroke="black" stroke-miterlimit="10"/>
<path d="M457.933 357.113V396.719L403.994 425.41L405.555 385.488L457.933 357.113Z" fill="#F5DDCC" stroke="black" stroke-miterlimit="10"/>
<path d="M408.711 360.967L397.408 358.326C395.357 357.844 393.397 359.406 393.397 361.507V369.399L380.541 360.618C380.383 360.186 380.3 359.73 380.3 359.256V341.771C380.3 339.096 382.792 337.11 385.399 337.725L387.06 338.116L405.555 342.427C407.241 342.817 408.503 344.221 408.728 345.94L410.189 357.221C410.38 358.658 409.807 360.07 408.711 360.967Z" fill="#CC5500" stroke="black" stroke-miterlimit="10"/>
<path d="M393.48 369.457H393.397C392.633 369.432 391.869 369.191 391.204 368.751L382.152 362.712C381.388 362.205 380.823 361.466 380.541 360.618L393.397 369.399L393.48 369.457Z" stroke="black" stroke-miterlimit="10"/>
<path d="M457.933 357.113L405.555 385.489L366.108 359.563L358.799 354.754L365.983 350.675L372.884 355.385L380.55 360.618C380.832 361.466 381.397 362.205 382.161 362.712L391.213 368.751C391.877 369.191 392.641 369.432 393.405 369.457H393.488L405.563 377.697L416.601 371.043L443.599 354.754L424.266 339.577V333.281L457.942 357.113H457.933Z" fill="#FAEEE5" stroke="black" stroke-miterlimit="10"/>
<path d="M416.592 371.043L405.555 377.697L393.48 369.457L393.397 369.398V361.507C393.397 359.406 395.357 357.844 397.408 358.326L408.711 360.967L413.279 362.03C414.607 362.338 415.604 363.443 415.778 364.797L416.592 371.043Z" fill="#CC5500" stroke="black" stroke-miterlimit="10"/>
<path d="M393.48 369.457H393.397V369.398L393.48 369.457Z" stroke="black" stroke-miterlimit="10"/>
<path d="M443.591 354.754L416.592 371.043L415.778 364.797C415.604 363.443 414.607 362.338 413.279 362.03L408.711 360.967C409.807 360.07 410.38 358.658 410.189 357.221L421.342 349.969C423.161 348.79 424.257 346.763 424.257 344.586V339.577L443.591 354.754Z" fill="#CC5500" stroke="black" stroke-miterlimit="10"/>
<path d="M424.257 331.852V344.586C424.257 346.763 423.161 348.79 421.342 349.969L410.189 357.221L408.728 345.94C408.503 344.221 407.241 342.817 405.555 342.427L387.06 338.115L385.399 337.725L394.435 324.692C394.435 324.692 394.485 324.625 394.51 324.592C395.971 322.565 398.479 321.569 400.929 322.042L419.059 325.547C422.082 326.129 424.257 328.779 424.257 331.852Z" fill="#CC5500" stroke="black" stroke-miterlimit="10"/>
<path d="M443.209 396.678L428.642 386.735L442.968 378.611V395.315C442.968 395.789 443.051 396.246 443.209 396.678Z" fill="#CC5500" stroke="black" stroke-miterlimit="10"/>
<path d="M468.223 421.548L466.661 461.47L456.38 453.944L439.056 441.251L431.607 435.802L422.198 428.907L422.065 422.129L421.948 415.866L421.699 403.157L421.458 390.813L442.744 404.801L468.223 421.548Z" fill="#EBBB99" stroke="black" stroke-miterlimit="10"/>
<path d="M520.601 393.172V432.778L466.661 461.47L468.222 421.548L520.601 393.172Z" fill="#F5DDCC" stroke="black" stroke-miterlimit="10"/>
<path d="M471.378 397.026L460.076 394.385C458.024 393.903 456.064 395.465 456.064 397.566V405.458L443.209 396.677C443.051 396.246 442.968 395.789 442.968 395.315V377.83C442.968 375.155 445.459 373.17 448.067 373.784L468.223 378.486C469.908 378.876 471.171 380.28 471.395 382L472.857 393.28C473.048 394.717 472.475 396.129 471.378 397.026Z" fill="#CC5500" stroke="black" stroke-miterlimit="10"/>
<path d="M456.147 405.516H456.064C455.3 405.491 454.536 405.25 453.872 404.81L444.82 398.771C444.056 398.264 443.491 397.525 443.208 396.677L456.064 405.458L456.147 405.516Z" stroke="black" stroke-miterlimit="10"/>
<path d="M520.601 393.172L468.223 421.548L421.458 390.813L428.642 386.735L443.209 396.678C443.491 397.525 444.056 398.264 444.82 398.771L453.872 404.81C454.536 405.25 455.3 405.491 456.064 405.516H456.148L468.223 413.756L479.26 407.103L506.258 390.813L486.925 375.637V369.34L520.601 393.172Z" fill="#FAEEE5" stroke="black" stroke-miterlimit="10"/>
<path d="M479.26 407.102L468.223 413.756L456.148 405.516L456.064 405.458V397.566C456.064 395.465 458.024 393.903 460.076 394.385L471.378 397.026L475.946 398.09C477.275 398.397 478.271 399.502 478.446 400.856L479.26 407.102Z" fill="#CC5500" stroke="black" stroke-miterlimit="10"/>
<path d="M456.148 405.516H456.064V405.458L456.148 405.516Z" stroke="black" stroke-miterlimit="10"/>
<path d="M506.258 390.813L479.26 407.102L478.446 400.856C478.271 399.502 477.275 398.397 475.946 398.09L471.378 397.026C472.475 396.129 473.048 394.717 472.857 393.28L484.01 386.028C485.829 384.849 486.925 382.822 486.925 380.646V375.637L506.258 390.813Z" fill="#CC5500" stroke="black" stroke-miterlimit="10"/>
<path d="M486.925 367.912V380.646C486.925 382.822 485.829 384.849 484.01 386.028L472.857 393.28L471.395 382C471.171 380.28 469.908 378.876 468.223 378.486L448.067 373.784L457.102 360.751C458.556 358.658 461.105 357.62 463.597 358.101L481.726 361.607C484.749 362.188 486.925 364.838 486.925 367.912Z" fill="#CC5500" stroke="black" stroke-miterlimit="10"/>
<path d="M316.312 399.311L307.011 392.956L301.754 389.368L316.08 381.244V397.948C316.08 398.422 316.163 398.879 316.312 399.311Z" stroke="black" stroke-miterlimit="10"/>
<path d="M341.326 424.181L340.728 439.648L339.773 464.103L336.675 461.835L329.957 456.909L329.359 456.477L317.101 447.498L310.158 442.423L302.8 437.031L295.301 431.541L295.118 422.129V422.121L294.761 403.456L294.628 396.628L294.57 393.446L298.689 396.154L341.326 424.181Z" fill="#EBBB99" stroke="black" stroke-miterlimit="10"/>
<path d="M393.712 395.805V435.412L339.773 464.103L341.334 424.181L393.712 395.805Z" fill="#F5DDCC" stroke="black" stroke-miterlimit="10"/>
<path d="M344.49 399.66L333.187 397.018C331.136 396.536 329.176 398.098 329.176 400.208V408.099L316.312 399.311C316.163 398.879 316.08 398.422 316.08 397.949V380.463C316.08 377.788 318.571 375.811 321.17 376.418L323.396 376.933L341.326 381.119C343.02 381.518 344.283 382.922 344.507 384.641L345.96 395.913C346.151 397.359 345.586 398.763 344.49 399.66Z" fill="#CC5500" stroke="black" stroke-miterlimit="10"/>
<path d="M329.259 408.149H329.176C328.412 408.124 327.648 407.883 326.984 407.443L317.931 401.404C317.167 400.897 316.603 400.158 316.32 399.311L329.176 408.091L329.259 408.149Z" stroke="black" stroke-miterlimit="10"/>
<path d="M393.713 395.805L376.381 405.192L341.326 424.181L298.689 396.154L294.57 393.446L301.754 389.368L307.011 392.956L316.312 399.311C316.603 400.166 317.168 400.897 317.932 401.412L326.984 407.443C327.64 407.892 328.412 408.124 329.176 408.157H329.251L341.326 416.389L352.363 409.736L368.939 399.734L379.37 393.446L360.028 378.27V371.973L393.713 395.805Z" fill="#FAEEE5" stroke="black" stroke-miterlimit="10"/>
<path d="M352.371 409.736L341.334 416.389L329.259 408.149L329.176 408.091V400.2C329.176 398.098 331.136 396.536 333.187 397.018L344.49 399.66L349.058 400.723C350.387 401.03 351.383 402.135 351.558 403.489L352.371 409.736Z" fill="#CC5500" stroke="black" stroke-miterlimit="10"/>
<path d="M329.26 408.149H329.176V408.091L329.26 408.149Z" stroke="black" stroke-miterlimit="10"/>
<path d="M379.37 393.446L352.371 409.736L351.558 403.489C351.383 402.135 350.387 401.03 349.058 400.723L344.49 399.66C345.586 398.763 346.159 397.35 345.968 395.913L357.122 388.662C358.941 387.482 360.037 385.455 360.037 383.279V378.27L379.37 393.446Z" fill="#CC5500" stroke="black" stroke-miterlimit="10"/>
<path d="M360.028 370.545V383.287C360.028 384.267 359.804 385.206 359.397 386.062C358.907 387.108 358.127 388.014 357.122 388.662L345.96 395.913L344.507 384.641C344.283 382.922 343.02 381.518 341.326 381.119L323.396 376.933L321.17 376.418L330.214 363.384C330.505 362.969 330.845 362.587 331.211 362.263C332.689 360.934 334.715 360.352 336.709 360.735L354.838 364.24C356.632 364.581 358.118 365.652 359.032 367.114C359.671 368.111 360.028 369.29 360.028 370.545Z" fill="#CC5500" stroke="black" stroke-miterlimit="10"/>
<path d="M378.988 435.37L364.421 425.427L378.747 417.303V434.008C378.747 434.481 378.83 434.938 378.988 435.37Z" fill="#CC5500" stroke="black" stroke-miterlimit="10"/>
<path d="M404.002 460.24L402.441 500.162L385.806 487.976L373.582 479.03L365.9 473.406L357.977 467.6L357.819 459.335L357.728 454.559L357.686 452.507L357.238 429.506L378.523 443.494L404.002 460.24Z" fill="#EBBB99" stroke="black" stroke-miterlimit="10"/>
<path d="M456.38 431.865V471.471L402.44 500.162L404.002 460.24L439.056 441.251L456.38 431.865Z" fill="#F5DDCC" stroke="black" stroke-miterlimit="10"/>
<path d="M407.158 435.719L395.855 433.077C393.804 432.596 391.844 434.157 391.844 436.259V444.15L378.988 435.37C378.83 434.938 378.747 434.481 378.747 434.008V416.522C378.747 413.847 381.239 411.862 383.846 412.477L404.002 417.178C405.688 417.569 406.95 418.973 407.174 420.692L408.636 431.973C408.827 433.41 408.254 434.822 407.158 435.719Z" fill="#CC5500" stroke="black" stroke-miterlimit="10"/>
<path d="M391.927 444.208H391.844C391.08 444.184 390.315 443.943 389.651 443.502L380.599 437.463C379.835 436.957 379.27 436.217 378.988 435.37L391.844 444.15L391.927 444.208Z" stroke="black" stroke-miterlimit="10"/>
<path d="M456.38 431.865L404.002 460.24L357.238 429.506L364.421 425.427L378.988 435.37C379.27 436.218 379.835 436.957 380.599 437.464L389.651 443.503C390.316 443.943 391.08 444.184 391.844 444.209H391.927L404.002 452.449L415.039 445.795L442.038 429.506L422.704 414.329V408.033L456.38 431.865Z" fill="#FAEEE5" stroke="black" stroke-miterlimit="10"/>
<path d="M415.039 445.795L404.002 452.449L391.927 444.209L391.844 444.15V436.259C391.844 434.157 393.804 432.596 395.855 433.078L407.158 435.719L411.725 436.782C413.054 437.09 414.051 438.195 414.225 439.549L415.039 445.795Z" fill="#CC5500" stroke="black" stroke-miterlimit="10"/>
<path d="M391.927 444.209H391.844V444.15L391.927 444.209Z" stroke="black" stroke-miterlimit="10"/>
<path d="M442.038 429.506L415.039 445.795L414.225 439.548C414.051 438.194 413.054 437.09 411.725 436.782L407.158 435.719C408.254 434.822 408.827 433.41 408.636 431.973L419.789 424.721C421.608 423.541 422.704 421.515 422.704 419.338V414.329L442.038 429.506Z" fill="#CC5500" stroke="black" stroke-miterlimit="10"/>
<path d="M422.704 406.604V419.338C422.704 421.515 421.608 423.541 419.789 424.721L408.636 431.973L407.174 420.692C406.95 418.973 405.688 417.569 404.002 417.179L383.846 412.477L392.882 399.444C394.335 397.35 396.885 396.312 399.376 396.794L417.505 400.299C420.528 400.881 422.704 403.531 422.704 406.604Z" fill="#CC5500" stroke="black" stroke-miterlimit="10"/>
<path d="M251.966 435.528L243.604 429.821L237.4 425.585L251.726 417.461V434.166C251.726 434.639 251.809 435.096 251.966 435.528Z" fill="#CC5500" stroke="black" stroke-miterlimit="10"/>
<path d="M276.98 460.398L275.776 491.1L275.535 497.321L275.419 500.32L274.331 499.523L246.876 479.42L230.955 467.758L230.706 454.874L230.358 436.724H230.349L230.216 429.663L237.267 434.298L276.98 460.398Z" fill="#EBBB99" stroke="black" stroke-miterlimit="10"/>
<path d="M329.358 432.022V471.629L275.419 500.32L276.98 460.398L329.358 432.022Z" fill="#F5DDCC" stroke="black" stroke-miterlimit="10"/>
<path d="M280.136 435.877L268.833 433.235C266.782 432.753 264.822 434.315 264.822 436.417V444.308L251.966 435.528C251.809 435.096 251.726 434.639 251.726 434.166V416.68C251.726 414.005 254.217 412.02 256.825 412.635L257.207 412.726L276.98 417.336C278.666 417.727 279.929 419.13 280.153 420.85L281.614 432.13C281.805 433.567 281.232 434.98 280.136 435.877Z" fill="#CC5500" stroke="black" stroke-miterlimit="10"/>
<path d="M264.905 444.366H264.822C264.058 444.341 263.294 444.1 262.63 443.66L253.577 437.621C252.813 437.114 252.249 436.375 251.966 435.528L264.822 444.308L264.905 444.366Z" stroke="black" stroke-miterlimit="10"/>
<path d="M329.359 432.023L310.158 442.423L276.98 460.398L237.267 434.299L230.216 429.663L237.4 425.585L243.604 429.821L251.966 435.528C252.249 436.375 252.814 437.115 253.578 437.621L262.63 443.66C263.294 444.1 264.058 444.341 264.822 444.366H264.905L276.98 452.607L288.018 445.953L302.8 437.031L315.016 429.663L295.683 414.487V408.191L329.359 432.023Z" fill="#FAEEE5" stroke="black" stroke-miterlimit="10"/>
<path d="M288.017 445.953L276.98 452.606L264.905 444.366L264.822 444.308V436.417C264.822 434.315 266.782 432.754 268.833 433.235L280.136 435.877L284.704 436.94C286.033 437.247 287.029 438.352 287.204 439.706L288.017 445.953Z" fill="#CC5500" stroke="black" stroke-miterlimit="10"/>
<path d="M264.906 444.366H264.822V444.308L264.906 444.366Z" stroke="black" stroke-miterlimit="10"/>
<path d="M315.016 429.663L288.017 445.953L287.204 439.706C287.029 438.352 286.033 437.247 284.704 436.94L280.136 435.877C281.232 434.98 281.805 433.567 281.614 432.13L292.768 424.879C294.587 423.699 295.683 421.672 295.683 419.496V414.487L315.016 429.663Z" fill="#CC5500" stroke="black" stroke-miterlimit="10"/>
<path d="M295.683 406.762V419.496C295.683 420.418 295.483 421.315 295.118 422.129C294.628 423.234 293.814 424.198 292.768 424.879L281.614 432.13L280.153 420.85C279.929 419.131 278.666 417.727 276.98 417.336L257.207 412.726L256.825 412.635L259.574 408.672L259.59 408.639L265.86 399.601C267.314 397.508 269.863 396.47 272.355 396.952L290.484 400.457C292.328 400.814 293.856 401.936 294.761 403.456C295.351 404.428 295.683 405.557 295.683 406.762Z" fill="#CC5500" stroke="black" stroke-miterlimit="10"/>
<path d="M308.414 475.915L293.848 465.972L308.173 457.848V474.553C308.173 475.026 308.256 475.483 308.414 475.915Z" stroke="black" stroke-miterlimit="10"/>
<path d="M333.428 500.785L331.867 540.707L308.007 523.23L300.691 517.872L292.785 512.082L287.403 508.145L287.37 506.608L287.229 499.207L287.129 494.09L286.664 470.051L307.085 483.474L333.428 500.785Z" fill="#EBBB99" stroke="black" stroke-miterlimit="10"/>
<path d="M385.806 472.41V512.016L331.867 540.707L333.428 500.785L373.582 479.03L385.806 472.41Z" fill="#F5DDCC" stroke="black" stroke-miterlimit="10"/>
<path d="M336.592 476.264L325.289 473.622C323.238 473.141 321.278 474.702 321.278 476.804V484.695L308.422 475.915C308.265 475.483 308.182 475.026 308.182 474.553V457.067C308.182 454.392 310.673 452.407 313.281 453.022L333.436 457.723C335.122 458.114 336.385 459.518 336.609 461.237L338.07 472.518C338.262 473.955 337.688 475.367 336.592 476.264Z" fill="#CC5500" stroke="black" stroke-miterlimit="10"/>
<path d="M321.353 484.753H321.27C320.506 484.728 319.742 484.488 319.077 484.047L310.025 478.008C309.261 477.502 308.696 476.762 308.414 475.915L321.27 484.695L321.353 484.753Z" stroke="black" stroke-miterlimit="10"/>
<path d="M385.815 472.41L333.437 500.785L286.672 470.051L293.856 465.972L308.423 475.915C308.705 476.762 309.27 477.502 310.034 478.008L319.086 484.047C319.75 484.488 320.514 484.729 321.278 484.753H321.361L333.437 492.994L344.474 486.34L371.472 470.051L352.139 454.874V448.578L385.815 472.41Z" fill="#FAEEE5" stroke="black" stroke-miterlimit="10"/>
<path d="M344.465 486.34L333.428 492.994L321.353 484.753L321.27 484.695V476.804C321.27 474.702 323.23 473.141 325.281 473.623L336.584 476.264L341.152 477.327C342.48 477.635 343.477 478.739 343.651 480.093L344.465 486.34Z" fill="#CC5500" stroke="black" stroke-miterlimit="10"/>
<path d="M321.353 484.754H321.278V484.695L321.353 484.754Z" stroke="black" stroke-miterlimit="10"/>
<path d="M371.472 470.051L344.474 486.34L343.66 480.093C343.485 478.739 342.489 477.635 341.16 477.327L336.592 476.264C337.689 475.367 338.262 473.955 338.071 472.518L349.224 465.266C351.043 464.086 352.139 462.06 352.139 459.883V454.874L371.472 470.051Z" fill="#CC5500" stroke="black" stroke-miterlimit="10"/>
<path d="M352.13 447.149V459.883C352.13 462.06 351.034 464.086 349.215 465.266L338.062 472.518L336.601 461.237C336.376 459.518 335.114 458.114 333.428 457.724L313.272 453.022L322.308 439.989C323.761 437.895 326.311 436.857 328.802 437.339L346.932 440.844C349.955 441.426 352.13 444.076 352.13 447.149Z" fill="#CC5500" stroke="black" stroke-miterlimit="10"/>
<path d="M230.615 517.415L216.048 507.472L230.374 499.348V516.053C230.374 516.526 230.457 516.983 230.615 517.415Z" stroke="black" stroke-miterlimit="10"/>
<path d="M255.629 542.286L254.068 582.207L243.471 574.449L229.793 564.431L222.177 558.857L209.604 549.645L209.537 546.289V546.273L209.205 529.07L208.865 511.551L255.629 542.286Z" fill="#EBBB99" stroke="black" stroke-miterlimit="10"/>
<path d="M308.007 513.91V553.516L254.067 582.207L255.629 542.285L300.69 517.872L308.007 513.91Z" fill="#F5DDCC" stroke="black" stroke-miterlimit="10"/>
<path d="M258.785 517.764L247.482 515.123C245.431 514.641 243.471 516.203 243.471 518.304V526.195L230.615 517.415C230.457 516.983 230.374 516.526 230.374 516.053V498.567C230.374 495.893 232.865 493.907 235.473 494.522L255.629 499.224C257.315 499.614 258.577 501.018 258.801 502.737L260.263 514.018C260.454 515.455 259.881 516.867 258.785 517.764Z" fill="#CC5500" stroke="black" stroke-miterlimit="10"/>
<path d="M243.554 526.254H243.471C242.706 526.229 241.942 525.988 241.278 525.548L232.226 519.509C231.462 519.002 230.897 518.263 230.615 517.415L243.471 526.195L243.554 526.254Z" stroke="black" stroke-miterlimit="10"/>
<path d="M308.007 513.91L300.691 517.872L255.629 542.285L208.865 511.551L216.048 507.472L230.615 517.415C230.897 518.263 231.462 519.002 232.226 519.508L241.278 525.547C241.943 525.988 242.707 526.229 243.471 526.254H243.554L255.629 534.494L266.666 527.84L292.784 512.082L293.665 511.551L287.37 506.608L277.769 499.074L275.535 497.321L274.331 496.374V490.078L275.776 491.1L283.06 496.258L287.229 499.207L308.007 513.91Z" fill="#FAEEE5" stroke="black" stroke-miterlimit="10"/>
<path d="M266.666 527.84L255.629 534.494L243.554 526.253L243.471 526.195V518.304C243.471 516.202 245.431 514.641 247.482 515.123L258.785 517.764L263.352 518.827C264.681 519.135 265.678 520.239 265.852 521.593L266.666 527.84Z" fill="#CC5500" stroke="black" stroke-miterlimit="10"/>
<path d="M243.554 526.254H243.471V526.195L243.554 526.254Z" stroke="black" stroke-miterlimit="10"/>
<path d="M293.665 511.551L266.666 527.84L265.852 521.593C265.678 520.239 264.681 519.135 263.352 518.827L258.785 517.764C259.881 516.867 260.454 515.455 260.263 514.018L271.416 506.766C273.235 505.586 274.331 503.56 274.331 501.383V496.374L293.665 511.551Z" fill="#CC5500" stroke="black" stroke-miterlimit="10"/>
<path d="M274.331 488.649V501.383C274.331 503.56 273.235 505.586 271.416 506.766L260.263 514.018L258.801 502.737C258.577 501.018 257.315 499.614 255.629 499.224L235.473 494.522L244.509 481.489C245.132 480.6 245.945 479.894 246.876 479.42C248.121 478.789 249.575 478.565 251.003 478.839L269.132 482.344C272.155 482.926 274.331 485.576 274.331 488.649Z" fill="#CC5500" stroke="black" stroke-miterlimit="10"/>
<path d="M164.003 543.498V559.107L151.512 550.584L164.003 543.498Z" stroke="black" stroke-miterlimit="10"/>
<path d="M164.003 567.596V606.621L145.068 592.757L144.868 582.498L144.329 554.663L164.003 567.596Z" fill="#EBBB99" stroke="black" stroke-miterlimit="10"/>
<path d="M545.615 437.015L532.527 444.549L201.607 634.913L201.482 618.965L243.471 596.628V574.449L254.068 582.208L308.007 553.516V523.23L331.867 540.707L385.806 512.016V487.976L402.441 500.162L456.38 471.471V453.944L466.661 461.47L520.601 432.779V421.872L526.049 425.17L545.615 437.015Z" stroke="black" stroke-miterlimit="10"/>
<path d="M243.471 557.022V596.628L201.482 618.965L201.183 579.932L229.793 564.431L243.471 557.022Z" fill="#F5DDCC" stroke="black" stroke-miterlimit="10"/>
<path d="M179.018 569.365H178.935V569.307L179.018 569.365Z" stroke="black" stroke-miterlimit="10"/>
<path d="M164.003 559.107V567.596L144.329 554.663L151.512 550.584L164.003 559.107Z" fill="#FAEEE5" stroke="black" stroke-miterlimit="10"/>
<path d="M243.471 557.022L229.793 564.431L201.183 579.931L201.117 571.567V571.558L202.13 570.952L222.178 558.857L229.129 554.662L209.795 539.486V533.19L243.471 557.022Z" fill="#FAEEE5" stroke="black" stroke-miterlimit="10"/>
<path d="M202.13 570.952L201.117 571.558L201.059 563.792C201.092 563.858 201.117 563.933 201.142 564.007C201.175 564.082 201.2 564.157 201.216 564.232C201.258 564.381 201.291 564.539 201.316 564.705L202.13 570.952Z" stroke="black" stroke-miterlimit="10"/>
<path d="M179.018 569.365H178.935V569.307L179.018 569.365Z" stroke="black" stroke-miterlimit="10"/>
<path d="M229.129 554.663L222.178 558.858L202.13 570.952L201.316 564.705C201.299 564.539 201.266 564.381 201.216 564.232C201.2 564.157 201.175 564.082 201.142 564.008C201.117 563.933 201.092 563.858 201.059 563.792L200.984 553.716L206.88 549.878C207.063 549.762 207.237 549.637 207.403 549.496C207.536 549.396 207.661 549.28 207.785 549.164C207.893 549.064 207.993 548.956 208.101 548.848C208.209 548.723 208.325 548.59 208.433 548.458C208.433 548.458 208.436 548.452 208.442 548.441C208.5 548.374 208.55 548.3 208.599 548.225C208.691 548.1 208.774 547.976 208.857 547.843C208.956 547.685 209.04 547.519 209.131 547.344C209.297 547.012 209.43 546.655 209.538 546.29V546.273C209.563 546.182 209.588 546.09 209.613 545.999C209.621 545.982 209.621 545.966 209.629 545.949C209.629 545.932 209.629 545.924 209.629 545.907C209.629 545.891 209.637 545.882 209.637 545.866C209.671 545.708 209.704 545.542 209.721 545.384C209.737 545.318 209.745 545.243 209.745 545.168C209.754 545.151 209.754 545.143 209.754 545.127V545.11C209.779 544.911 209.787 544.703 209.787 544.495V539.486L229.12 554.663H229.129Z" fill="#CC5500" stroke="black" stroke-miterlimit="10"/>
<path d="M209.795 531.761V544.495C209.795 544.703 209.787 544.911 209.762 545.11V545.127C209.762 545.127 209.762 545.151 209.754 545.168C209.754 545.243 209.754 545.318 209.729 545.384C209.712 545.542 209.679 545.708 209.646 545.866C209.646 545.882 209.638 545.891 209.638 545.907C209.638 545.924 209.638 545.932 209.638 545.949C209.638 545.966 209.638 545.982 209.621 545.999C209.596 546.09 209.571 546.182 209.546 546.273V546.29C209.438 546.655 209.305 547.012 209.139 547.344C209.048 547.519 208.965 547.685 208.865 547.843C208.782 547.976 208.699 548.1 208.608 548.225C208.558 548.3 208.508 548.374 208.45 548.441C208.45 548.441 208.447 548.446 208.442 548.458C208.334 548.59 208.217 548.723 208.109 548.848C208.002 548.956 207.902 549.064 207.794 549.164C207.669 549.28 207.545 549.396 207.412 549.496C207.246 549.637 207.071 549.762 206.889 549.878L200.992 553.716L200.768 524.717L204.605 525.456C206.689 525.855 208.367 527.242 209.214 529.07C209.596 529.892 209.804 530.806 209.804 531.761H209.795Z" fill="#CC5500" stroke="black" stroke-miterlimit="10"/>
<path d="M108.709 524.467L94.1426 514.524L108.468 506.4V523.105C108.468 523.579 108.551 524.035 108.709 524.467Z" fill="#CC5500" stroke="black" stroke-miterlimit="10"/>
<path d="M133.723 549.338L132.162 589.26L87.6981 556.697L87.4157 542.169L86.959 518.603L133.723 549.338Z" fill="#EBBB99" stroke="black" stroke-miterlimit="10"/>
<path d="M181.069 619.122L180.994 578.76V570.703L180.969 563.301V558.384L180.928 539.968L180.894 523.778V517.274L180.712 421.166L164.011 395.033V505.321L164.002 634.664V715.114L163.994 732.459L181.293 742.285L181.069 619.122ZM178.934 569.365V569.307L179.017 569.365H178.934Z" fill="black" fill-opacity="0.1" stroke="black" stroke-miterlimit="10"/>
<path d="M164.002 532.932V572.322L144.868 582.498L132.162 589.26L133.723 549.338L164.002 532.932Z" fill="#F5DDCC" stroke="black" stroke-miterlimit="10"/>
<path d="M136.879 524.816L125.576 522.175C123.525 521.693 121.565 523.255 121.565 525.356V533.248L108.709 524.468C108.551 524.036 108.468 523.579 108.468 523.105V505.62C108.468 502.945 110.96 500.96 113.567 501.574L133.723 506.276C135.409 506.666 136.671 508.07 136.895 509.79L138.357 521.07C138.548 522.507 137.975 523.919 136.879 524.816Z" fill="#CC5500" stroke="black" stroke-miterlimit="10"/>
<path d="M121.648 533.306H121.565C120.801 533.281 120.037 533.04 119.372 532.6L110.32 526.561C109.556 526.054 108.991 525.315 108.709 524.468L121.565 533.248L121.648 533.306Z" stroke="black" stroke-miterlimit="10"/>
<path d="M164.002 523.28V532.932L133.723 549.338L86.959 518.603L94.1426 514.524L108.709 524.468C108.992 525.315 109.556 526.054 110.32 526.561L119.373 532.6C120.037 533.04 120.801 533.281 121.565 533.306H121.648L133.723 541.546L144.76 534.892L164.002 523.28Z" fill="#FAEEE5" stroke="black" stroke-miterlimit="10"/>
<path d="M164.002 505.321V512.514L152.425 503.427V497.13L164.002 505.321Z" fill="#FAEEE5" stroke="black" stroke-miterlimit="10"/>
<path d="M144.76 534.893L133.723 541.546L121.648 533.306L121.565 533.248V525.356C121.565 523.255 123.525 521.693 125.576 522.175L136.879 524.817L141.447 525.88C142.775 526.187 143.772 527.292 143.946 528.646L144.76 534.893Z" fill="#CC5500" stroke="black" stroke-miterlimit="10"/>
<path d="M121.648 533.306H121.565V533.248L121.648 533.306Z" stroke="black" stroke-miterlimit="10"/>
<path d="M164.002 512.514V523.28L144.76 534.892L143.946 528.646C143.772 527.292 142.775 526.187 141.447 525.88L136.879 524.816C137.975 523.919 138.548 522.507 138.357 521.07L149.51 513.818C151.329 512.639 152.425 510.612 152.425 508.436V503.427L164.002 512.514Z" fill="#CC5500" stroke="black" stroke-miterlimit="10"/>
<path d="M152.425 495.702V508.436C152.425 510.612 151.329 512.639 149.51 513.818L138.357 521.07L136.895 509.79C136.671 508.07 135.409 506.666 133.723 506.276L113.567 501.574L122.603 488.541C124.056 486.448 126.606 485.41 129.097 485.891L147.227 489.397C150.25 489.978 152.425 492.628 152.425 495.702Z" fill="#CC5500" stroke="black" stroke-miterlimit="10"/>
<path d="M202.586 422.852L200.004 425.992L190.877 437.065L180.712 421.166L164.011 395.033V395.025L81.4531 265.864L81.8351 230.702L202.586 422.852Z" fill="black" fill-opacity="0.2" stroke="black" stroke-miterlimit="10"/>
<path d="M246.876 479.421C245.946 479.894 245.132 480.6 244.509 481.489L235.473 494.522C232.866 493.907 230.374 495.893 230.374 498.567V499.348L216.049 507.472L208.865 511.551L209.205 529.07C208.358 527.242 206.681 525.855 204.596 525.456L200.759 524.717L200.369 473.539L230.706 454.874L230.956 467.758L246.876 479.421Z" stroke="black" stroke-miterlimit="10"/>
</g>
<defs>
<clipPath id="clip0_34_2346">
<rect width="596" height="743" fill="white"/>
</clipPath>
</defs>
</svg>
