<svg width="506" height="705" viewBox="0 0 506 705" fill="none" xmlns="http://www.w3.org/2000/svg">
<g clip-path="url(#clip0_38_2742)">
<path d="M78.7242 567.528V634.024H9.87695V567.072L78.7242 567.528Z" fill="#CC5500" fill-opacity="0.2" stroke="black" stroke-width="1.17656" stroke-miterlimit="10"/>
<path d="M276.455 634.025H212.325V700.977H276.455V634.025Z" fill="#CC5500" fill-opacity="0.2" stroke="black" stroke-width="1.17656" stroke-miterlimit="10"/>
<path d="M212.324 634.025H145.206V700.977H212.324V634.025Z" fill="#CC5500" fill-opacity="0.2" stroke="black" stroke-width="1.17656" stroke-miterlimit="10"/>
<path d="M78.7242 634.025H9.87695V700.977H78.7242V634.025Z" fill="#CC5500" fill-opacity="0.5" stroke="black" stroke-width="1.17656" stroke-miterlimit="10"/>
<path d="M145.206 634.025H78.7246V700.977H145.206V634.025Z" fill="#CC5500" fill-opacity="0.5" stroke="black" stroke-width="1.17656" stroke-miterlimit="10"/>
<path d="M410.055 634.025H342.937V700.977H410.055V634.025Z" stroke="black" stroke-width="1.17656" stroke-miterlimit="10"/>
<path d="M342.936 634.025H276.454V700.977H342.936V634.025Z" stroke="black" stroke-width="1.17656" stroke-miterlimit="10"/>
<path d="M473.368 634.025H410.054V700.977H473.368V634.025Z" fill="#CC5500" stroke="black" stroke-width="1.17656" stroke-miterlimit="10"/>
<path d="M473.368 570.182V634.024H410.054V569.754L439.352 569.947L473.368 570.182Z" fill="#CC5500" fill-opacity="0.2" stroke="black" stroke-width="1.17656" stroke-miterlimit="10"/>
<path d="M410.055 569.754V634.025H342.937V569.312L372.235 569.505L410.055 569.754Z" fill="#CC5500" fill-opacity="0.2" stroke="black" stroke-width="1.17656" stroke-miterlimit="10"/>
<path d="M372.235 502.456V569.201L342.936 569.007L305.767 568.772V502.456H372.235Z" fill="#CC5500" fill-opacity="0.2" stroke="black" stroke-width="1.17656" stroke-miterlimit="10"/>
<path d="M174.504 502.456V567.929L145.206 567.735L108.036 567.5V502.456H174.504Z" fill="#CC5500" fill-opacity="0.1" stroke="black" stroke-width="1.17656" stroke-miterlimit="10"/>
<path d="M108.037 502.456V567.5L78.7243 567.321L41.043 567.072V502.456H108.037Z" stroke="black" stroke-width="1.17656" stroke-miterlimit="10"/>
<path d="M439.352 502.456V569.629L410.054 569.45L372.234 569.201V502.456H439.352Z" fill="#CC5500" fill-opacity="0.5" stroke="black" stroke-width="1.17656" stroke-miterlimit="10"/>
<path d="M505.31 502.456V570.058L439.354 569.629V502.456H505.31Z" fill="#CC5500" fill-opacity="0.5" stroke="black" stroke-width="1.17656" stroke-miterlimit="10"/>
<path d="M241.622 502.456V568.357L212.324 568.178L174.504 567.929V502.456H241.622Z" stroke="black" stroke-width="1.17656" stroke-miterlimit="10"/>
<path d="M305.766 502.456V568.772L241.622 568.357V502.456H257.392C264.17 503.133 271.031 503.479 277.975 503.479C284.92 503.479 291.767 503.133 298.545 502.456H305.766Z" fill="#CC5500" fill-opacity="0.2" stroke="black" stroke-width="1.17656" stroke-miterlimit="10"/>
<path d="M78.7246 705V700.977" stroke="black" stroke-width="1.17656" stroke-miterlimit="10"/>
<path d="M145.206 567.984V634.024H78.7246V567.528L108.037 567.735L145.206 567.984Z" fill="#CC5500" fill-opacity="0.2" stroke="black" stroke-width="1.17656" stroke-miterlimit="10"/>
<path d="M454.044 252.479C454.044 239.982 437.624 232.807 432.16 250.239C432.16 125.984 341.443 25.2577 229.533 25.2577C203.084 25.2577 177.811 30.8843 154.641 41.1284C154.627 41.1284 154.627 41.1422 154.627 41.1422C79.7899 74.2107 26.8922 155.361 26.8922 250.239C24.4299 237.065 4.16448 233.94 0.692383 252.479C0.692383 122.777 90.2754 16.1335 204.938 3.71898L232.632 2.57153C236.878 2.66831 241.111 2.91715 245.303 3.27659H245.33C292.819 7.3825 336.214 27.6217 370.962 59.0451C394.382 80.2106 413.886 106.45 428.093 136.228C439.353 159.813 447.293 185.637 451.222 212.913C453.075 225.798 454.044 239.014 454.044 252.479Z" fill="#CC5500" fill-opacity="0.05" stroke="black" stroke-width="1.17656" stroke-miterlimit="10"/>
<path d="M454.044 252.479C454.044 265.903 453.089 279.091 451.236 291.948C447.501 317.883 440.155 342.491 429.781 365.108C395.447 440.024 327.928 493.276 248.526 501.377C246.216 501.045 243.919 500.672 241.637 500.271V501.958C236.934 502.29 232.175 502.456 227.389 502.456C209.184 502.456 191.478 500.092 174.519 495.612C74.81 469.359 0.692383 370.472 0.692383 252.479C4.16448 233.94 24.4299 237.064 26.8922 250.239C26.8922 339.643 73.8555 416.854 141.873 453.143C168.405 467.3 198.132 475.235 229.519 475.235C341.429 475.235 432.146 374.509 432.146 250.239C437.61 232.806 454.03 239.981 454.03 252.479H454.044Z" fill="#CC5500" fill-opacity="0.5" stroke="black" stroke-width="1.17656" stroke-miterlimit="10"/>
<path d="M232.632 2.57156L204.938 3.71901C212.325 2.91718 219.809 2.50244 227.376 2.50244C229.133 2.50244 230.889 2.53009 232.632 2.57156Z" stroke="black" stroke-width="1.17656" stroke-miterlimit="10"/>
<path d="M501.907 291.243C498.227 317.427 490.882 342.27 480.493 365.108H429.781C440.156 342.491 447.501 317.883 451.236 291.948L501.907 291.243Z" fill="#CC5500" fill-opacity="0.2" stroke="black" stroke-width="1.17656" stroke-miterlimit="10"/>
<path d="M504.646 252.092C504.646 265.405 503.705 278.483 501.907 291.243L451.237 291.948C453.09 279.091 454.045 265.903 454.045 252.479C454.045 239.055 453.076 225.797 451.223 212.913H501.907C503.705 225.673 504.646 238.765 504.646 252.092Z" fill="#CC5500" fill-opacity="0.2" stroke="black" stroke-width="1.17656" stroke-miterlimit="10"/>
<path d="M501.906 212.913H451.222C447.293 185.637 439.353 159.813 428.093 136.228H479.192C490.259 159.84 498.06 185.651 501.906 212.913Z" fill="#CC5500" fill-opacity="0.2" stroke="black" stroke-width="1.17656" stroke-miterlimit="10"/>
<path d="M479.178 136.228H428.092C413.886 106.45 394.381 80.2104 370.962 59.0449L422.462 58.3813C445.743 79.768 465.11 106.228 479.178 136.228Z" fill="#CC5500" fill-opacity="0.1" stroke="black" stroke-width="1.17656" stroke-miterlimit="10"/>
<path d="M422.463 58.3813L370.962 59.0449C336.213 27.6215 292.819 7.38228 245.33 3.27636C250.393 2.46071 255.511 1.85243 260.685 1.41004H260.809L277.976 0.691162C332.88 0.691162 383.246 22.3543 422.463 58.3813Z" stroke="black" stroke-width="1.17656" stroke-miterlimit="10"/>
<path d="M277.976 0.691162L260.81 1.39622C266.481 0.926181 272.194 0.691162 277.976 0.691162Z" stroke="black" stroke-width="1.17656" stroke-miterlimit="10"/>
<path d="M480.492 365.108C447.154 438.462 382.36 491.23 305.767 501.599C303.374 501.93 300.967 502.221 298.546 502.456H257.392C254.418 502.165 251.458 501.806 248.525 501.377C327.927 493.276 395.446 440.024 429.78 365.108H480.492Z" fill="#CC5500" stroke="black" stroke-width="1.17656" stroke-miterlimit="10"/>
<path d="M432.16 250.239C432.16 374.509 341.443 475.235 229.533 475.235C198.146 475.235 168.419 467.3 141.887 453.157H141.873C73.8559 416.854 26.8926 339.643 26.8926 250.239C26.8926 155.361 79.7902 74.2105 154.627 41.142V41.1282C177.798 30.8842 203.071 25.2576 229.519 25.2576C341.429 25.2576 432.146 125.984 432.146 250.239H432.16Z" fill="#CC5500" fill-opacity="0.2" stroke="black" stroke-width="1.17656" stroke-miterlimit="10"/>
<path d="M260.684 1.41016L232.631 2.57142" stroke="black" stroke-width="1.17656" stroke-miterlimit="10"/>
<path d="M502.238 291.243H501.906" stroke="black" stroke-width="1.17656" stroke-miterlimit="10"/>
<path d="M451.236 291.948H450.835" stroke="black" stroke-width="1.17656" stroke-miterlimit="10"/>
<path d="M212.324 568.427V634.025H145.206V567.984L174.505 568.178L212.324 568.427Z" fill="#CC5500" fill-opacity="0.5" stroke="black" stroke-width="1.17656" stroke-miterlimit="10"/>
<path d="M276.455 568.869V634.024H212.325V568.427L241.624 568.634L276.455 568.869Z" fill="#CC5500" fill-opacity="0.5" stroke="black" stroke-width="1.17656" stroke-miterlimit="10"/>
<path d="M342.936 569.312V634.025H276.454V568.869L305.766 569.063L342.936 569.312Z" fill="#CC5500" fill-opacity="0.5" stroke="black" stroke-width="1.17656" stroke-miterlimit="10"/>
<path d="M303.415 180.95H244.874V207.079L246.617 208.365C261.736 209.554 277.299 211.586 292.017 215.954C300.773 218.553 318.867 224.816 323.944 234.12C331.829 248.567 311.411 258.161 303.097 261.493C284.201 269.055 263.908 271.253 244.196 273.465V373.693H196.804C196.624 373.071 197.496 372.67 197.496 372.407V273.451C177.59 271.446 156.494 269.483 137.405 262.073C129.437 258.977 105.81 248.152 115.23 233.595C125.647 217.516 170.908 209.982 187.398 208.351C190.676 208.033 194.978 209.526 197.496 207.051V180.066H139.3L138.249 178.78V131.237H302.378L303.429 132.523V180.923L303.415 180.95ZM244.874 214.351V250.765L242.467 252.092L198.132 250.792L197.482 214.351C181.532 215.982 165.32 218.443 149.938 224.014C140.683 227.373 130.032 232.433 122.922 240.479C122.852 246.479 158.168 252.935 163.065 253.654C196.915 258.645 236.325 258.811 270.313 254.608C285.792 252.686 301.839 249.755 315.962 241.751C316.225 240.521 315.685 240.327 315.284 239.608C311.646 233.055 289.513 224.235 282.804 222.134C270.368 218.222 257.573 216.328 244.874 214.364V214.351Z" fill="white" stroke="black" stroke-width="1.17656" stroke-miterlimit="10"/>
</g>
<defs>
<clipPath id="clip0_38_2742">
<rect width="506" height="705" fill="white"/>
</clipPath>
</defs>
</svg>
