<svg width="917" height="541" viewBox="0 0 917 541" fill="none" xmlns="http://www.w3.org/2000/svg">
<g clip-path="url(#clip0_29_1906)">
<path d="M908.292 304.036L403.889 11.7445C378.607 -2.91771 347.452 -3.11304 321.975 11.2073L8.87876 187.178C2.72333 190.645 0.0120109 197.104 0.720374 203.22C1.13562 206.797 2.72333 210.264 5.4835 212.926C6.50941 213.927 7.68187 214.806 9.02532 215.538L544.999 510.028C562.708 519.758 584.228 519.513 601.729 509.405L908.28 332.116C909.489 331.42 910.551 330.602 911.492 329.686C914.447 326.842 916.072 323.081 916.34 319.236C916.755 313.4 914.069 307.381 908.292 304.036ZM217.492 123.561L254.119 101.586C258.467 98.9852 263.853 98.8143 268.359 101.146L290.416 112.598L312.864 124.244L327.373 131.777C333.431 134.927 333.956 143.375 328.338 147.245L293.983 170.905C288.975 174.347 282.466 174.677 277.141 171.771L255.853 160.112L233.967 148.112L217.797 139.248C211.666 135.891 211.495 127.162 217.492 123.561ZM202.042 268.266L85.6262 201.523L101.87 192.88L217.882 258.878L202.042 268.266ZM223.928 222.619L136.311 171.784L152.554 163.14L239.768 213.243L223.928 222.619ZM343.324 288.617L255.694 237.782L271.95 229.138L359.164 279.241L343.324 288.617ZM458.115 293.208L545.329 343.311L529.477 352.687L441.859 301.851L458.115 293.208ZM604.282 447.057L564.931 474.147C562.342 475.942 558.959 476.113 556.199 474.599L459.092 421.383C453.45 418.294 453.291 410.249 458.811 406.94L499.481 382.536C501.973 381.047 505.075 380.961 507.652 382.316L603.439 432.834C608.972 435.752 609.436 443.504 604.282 447.057ZM648.323 420.309L560.706 369.461L576.949 360.83L664.163 410.92L648.323 420.309ZM798.312 346.094L586.829 223.388L635.316 197.604L843.709 319.224L798.312 346.094Z" fill="black" fill-opacity="0.05" stroke="black" stroke-miterlimit="10"/>
<path d="M217.492 123.56L254.119 101.585C258.467 98.9851 263.853 98.8141 268.359 101.146L290.416 112.597L312.864 124.244L327.373 131.777C333.431 134.926 333.956 143.375 328.338 147.245L293.983 170.904C288.975 174.347 282.466 174.677 277.141 171.771L255.853 160.112L233.967 148.111L217.797 139.248C211.666 135.891 211.495 127.162 217.492 123.56Z" stroke="black" stroke-miterlimit="10"/>
<path d="M217.492 123.56L254.119 101.585C258.467 98.9851 263.853 98.8141 268.359 101.146L290.416 112.597L312.864 124.244L327.373 131.777C333.431 134.926 333.956 143.375 328.338 147.245L293.983 170.904C288.975 174.347 282.466 174.677 277.141 171.771L255.853 160.112L233.967 148.111L217.797 139.248C211.666 135.891 211.495 127.162 217.492 123.56Z" stroke="black" stroke-miterlimit="10"/>
<path d="M916.377 340.954V341.064C916.462 346.595 913.751 352.174 908.28 355.336L601.729 532.625C584.228 542.746 562.708 542.978 544.999 533.248L9.02533 238.758C2.7722 235.328 -0.000187993 228.796 0.720388 222.619V203.22C1.13563 206.797 2.72334 210.264 5.48352 212.926C6.50942 213.927 7.68188 214.806 9.02533 215.538L544.999 510.027C562.708 519.758 584.228 519.513 601.729 509.405L908.28 332.116C909.489 331.42 910.551 330.602 911.492 329.686C914.447 326.842 916.072 323.081 916.34 319.236L916.377 340.954Z" fill="black" fill-opacity="0.1" stroke="black" stroke-miterlimit="10"/>
<path d="M843.709 319.224L798.313 346.094L586.83 223.388L635.316 197.604L843.709 319.224Z" fill="black" fill-opacity="0.1" stroke="black" stroke-miterlimit="10"/>
<path d="M604.282 447.057L564.931 474.147C562.342 475.942 558.959 476.113 556.199 474.599L459.092 421.383C453.45 418.294 453.291 410.249 458.811 406.94L499.481 382.536C501.973 381.046 505.075 380.961 507.652 382.316L603.44 432.834C608.972 435.752 609.436 443.504 604.282 447.057Z" fill="black" fill-opacity="0.1" stroke="black" stroke-miterlimit="10"/>
<path d="M328.338 147.245L293.983 170.904C288.975 174.347 282.466 174.677 277.141 171.771L255.853 160.112L233.967 148.111L217.797 139.248C211.666 135.891 211.495 127.162 217.492 123.56L254.119 101.585C258.467 98.9851 263.853 98.8141 268.359 101.146L290.416 112.597L312.864 124.244L327.373 131.777C333.431 134.926 333.956 143.375 328.338 147.245Z" fill="#492BFF" stroke="black" stroke-miterlimit="10"/>
<path d="M359.164 279.241L343.324 288.617L255.694 237.782L271.95 229.138L359.164 279.241Z" fill="black" fill-opacity="0.1" stroke="black" stroke-miterlimit="10"/>
<path d="M239.769 213.243L223.928 222.619L136.311 171.783L152.555 163.14L239.769 213.243Z" fill="black" fill-opacity="0.1" stroke="black" stroke-miterlimit="10"/>
<path d="M217.883 258.878L202.042 268.266L85.6265 201.523L101.87 192.879L217.883 258.878Z" fill="black" fill-opacity="0.1" stroke="black" stroke-miterlimit="10"/>
<path d="M664.163 410.92L648.323 420.308L560.706 369.461L576.949 360.829L664.163 410.92Z" fill="black" fill-opacity="0.1" stroke="black" stroke-miterlimit="10"/>
<path d="M545.329 343.311L529.477 352.687L441.859 301.851L458.115 293.208L545.329 343.311Z" fill="black" fill-opacity="0.1" stroke="black" stroke-miterlimit="10"/>
<path d="M233.967 148.111L290.416 112.597" stroke="black" stroke-miterlimit="10"/>
<path d="M255.707 160.21L312.864 124.256" stroke="black" stroke-miterlimit="10"/>
<path d="M276.151 147.342L304.84 163.067" stroke="black" stroke-miterlimit="10"/>
<path d="M292.139 136.624L320.84 152.348" stroke="black" stroke-miterlimit="10"/>
<path d="M243.982 107.861L272.671 123.585" stroke="black" stroke-miterlimit="10"/>
<path d="M225.797 118.665L254.486 134.389" stroke="black" stroke-miterlimit="10"/>
</g>
<defs>
<clipPath id="clip0_29_1906">
<rect width="917" height="541" fill="white"/>
</clipPath>
</defs>
</svg>
