<svg width="917" height="541" viewBox="0 0 917 541" fill="none" xmlns="http://www.w3.org/2000/svg">
<g clip-path="url(#clip0_114_730)">
<path d="M908.292 304.036L403.889 11.7443C378.607 -2.91795 347.452 -3.11328 321.975 11.2071L8.87876 187.178C2.72333 190.645 0.0120109 197.103 0.720374 203.22C1.13562 206.797 2.72333 210.264 5.4835 212.925C6.50941 213.926 7.68187 214.805 9.02532 215.538L544.999 510.027C562.708 519.757 584.228 519.513 601.73 509.405L908.28 332.115C909.489 331.419 910.551 330.601 911.492 329.686C914.447 326.841 916.072 323.081 916.34 319.235C916.755 313.4 914.069 307.381 908.292 304.036ZM217.492 123.56L254.119 101.585C258.467 98.985 263.853 98.8141 268.359 101.146L290.416 112.597L312.864 124.244L327.373 131.777C333.431 134.926 333.956 143.374 328.338 147.245L293.983 170.904C288.975 174.347 282.466 174.677 277.141 171.771L255.853 160.112L233.967 148.111L217.797 139.248C211.666 135.891 211.495 127.162 217.492 123.56ZM202.042 268.266L85.6262 201.523L101.87 192.879L217.882 258.878L202.042 268.266ZM223.928 222.619L136.311 171.783L152.554 163.14L239.768 213.243L223.928 222.619ZM343.324 288.617L255.694 237.782L271.95 229.138L359.164 279.241L343.324 288.617ZM458.115 293.207L545.329 343.31L529.477 352.686L441.859 301.851L458.115 293.207ZM604.282 447.057L564.931 474.147C562.342 475.942 558.959 476.113 556.199 474.599L459.092 421.383C453.45 418.294 453.291 410.249 458.811 406.94L499.481 382.536C501.972 381.046 505.075 380.961 507.652 382.316L603.439 432.834C608.972 435.752 609.436 443.504 604.282 447.057ZM648.323 420.308L560.706 369.461L576.949 360.829L664.163 410.92L648.323 420.308ZM798.312 346.094L586.829 223.388L635.316 197.604L843.709 319.223L798.312 346.094Z" stroke="white" stroke-miterlimit="10"/>
<path d="M217.492 123.561L254.119 101.586C258.467 98.9853 263.853 98.8144 268.359 101.146L290.416 112.598L312.864 124.244L327.373 131.777C333.431 134.927 333.956 143.375 328.338 147.245L293.983 170.905C288.975 174.347 282.466 174.677 277.141 171.771L255.853 160.112L233.967 148.112L217.797 139.248C211.666 135.891 211.495 127.162 217.492 123.561Z" stroke="white" stroke-miterlimit="10"/>
<path d="M916.377 340.954V341.064C916.462 346.594 913.751 352.174 908.28 355.336L601.729 532.625C584.228 542.746 562.708 542.978 544.999 533.248L9.02533 238.758C2.7722 235.328 -0.000188017 228.796 0.720388 222.619V203.22C1.13563 206.797 2.72334 210.264 5.48352 212.925C6.50942 213.926 7.68188 214.805 9.02533 215.538L544.999 510.027C562.708 519.757 584.228 519.513 601.729 509.405L908.28 332.115C909.489 331.419 910.551 330.601 911.492 329.686C914.447 326.841 916.072 323.081 916.34 319.235L916.377 340.954Z" stroke="white" stroke-miterlimit="10"/>
<path d="M843.709 319.223L798.313 346.094L586.83 223.388L635.316 197.604L843.709 319.223Z" stroke="white" stroke-miterlimit="10"/>
<path d="M604.282 447.057L564.931 474.147C562.342 475.942 558.959 476.113 556.199 474.599L459.092 421.383C453.45 418.294 453.291 410.249 458.811 406.941L499.481 382.536C501.973 381.047 505.075 380.961 507.652 382.316L603.44 432.834C608.972 435.752 609.436 443.505 604.282 447.057Z" stroke="white" stroke-miterlimit="10"/>
<path d="M359.164 279.241L343.324 288.617L255.694 237.782L271.95 229.138L359.164 279.241Z" stroke="white" stroke-miterlimit="10"/>
<path d="M239.769 213.243L223.928 222.619L136.311 171.784L152.555 163.14L239.769 213.243Z" stroke="white" stroke-miterlimit="10"/>
<path d="M217.883 258.878L202.042 268.266L85.6265 201.523L101.87 192.879L217.883 258.878Z" stroke="white" stroke-miterlimit="10"/>
<path d="M664.163 410.92L648.323 420.309L560.706 369.461L576.949 360.83L664.163 410.92Z" stroke="white" stroke-miterlimit="10"/>
<path d="M545.329 343.311L529.477 352.687L441.859 301.851L458.115 293.208L545.329 343.311Z" stroke="white" stroke-miterlimit="10"/>
<path d="M320.427 152.692L293.982 170.904C288.975 174.347 282.465 174.677 277.14 171.771L256.36 160.389L276.175 147.925L304.599 163.506L304.841 163.067L305.081 162.629L277.143 147.316L292.725 137.515L320.427 152.692Z" fill="white"/>
<path d="M290.416 112.597L312.361 123.982L292.69 136.355L292.379 136.185L292.138 136.624L292.071 136.745L255.44 159.787L255.535 159.937L234.469 148.386L290.682 113.021L290.416 112.597Z" fill="white"/>
<path d="M312.864 124.244L327.373 131.777C333.431 134.927 333.956 143.375 328.338 147.245L320.786 152.444L321.08 151.91L293.694 136.906L313.131 124.68L312.864 124.257L312.851 124.237L312.864 124.244Z" fill="white"/>
<path d="M243.742 108.299L271.834 123.697L254.298 134.73L254.485 134.389L254.725 133.951L226.217 118.325L244.139 107.572L243.742 108.299Z" fill="white"/>
<path d="M254.119 101.586C258.467 98.9853 263.853 98.8144 268.359 101.146L289.901 112.33L272.803 123.088L244.309 107.47L254.119 101.586Z" fill="white"/>
<path fill-rule="evenodd" clip-rule="evenodd" d="M225.556 119.104L254.19 134.798L233.701 147.689L233.967 148.111L217.797 139.249C211.666 135.891 211.495 127.162 217.492 123.56L225.868 118.534L225.556 119.104Z" fill="white"/>
</g>
<defs>
<clipPath id="clip0_114_730">
<rect width="917" height="541" fill="white"/>
</clipPath>
</defs>
</svg>
