<svg width="141" height="48" viewBox="0 0 141 48" fill="none" xmlns="http://www.w3.org/2000/svg">
<g clip-path="url(#clip0_278_456)">
<path d="M26.4297 38.5337C26.4728 34.1279 25.3558 30.5452 23.935 30.5313C22.5142 30.5175 21.3274 34.0777 21.2844 38.4834C21.2413 42.8891 22.3582 46.4719 23.779 46.4857C25.2 46.4996 26.3867 42.9394 26.4297 38.5337Z" fill="#492BFF"/>
<path d="M18.1883 37.5337C20.6066 33.8508 21.6041 30.2329 20.4164 29.453C19.2286 28.6731 16.3053 31.0264 13.8871 34.7094C11.4687 38.3923 10.4712 42.01 11.6589 42.79C12.8467 43.57 15.7699 41.2166 18.1883 37.5337Z" fill="#492BFF"/>
<path d="M11.7872 32.2493C15.8129 30.4587 18.6081 27.9547 18.0305 26.6563C17.4531 25.3581 13.7215 25.7572 9.69591 27.5479C5.67029 29.3385 2.87503 31.8426 3.45251 33.1408C4.03 34.4392 7.76157 34.04 11.7872 32.2493Z" fill="#492BFF"/>
<path d="M17.5479 23.0153C17.7641 21.6109 14.4092 19.9291 10.0546 19.2588C5.69994 18.5885 1.9946 19.1837 1.77844 20.5881C1.56228 21.9925 4.91718 23.6742 9.27182 24.3445C13.6264 25.0148 17.3318 24.4196 17.5479 23.0153Z" fill="#492BFF"/>
<path d="M19.1109 19.669C20.0519 18.6043 18.1384 15.3759 14.8371 12.4582C11.5357 9.54048 8.09667 8.03832 7.15569 9.10302C6.21471 10.1677 8.12817 13.3961 11.4295 16.3138C14.7309 19.2316 18.17 20.7337 19.1109 19.669Z" fill="#492BFF"/>
<path d="M22.2254 17.7149C23.5926 17.328 23.7285 13.5776 22.5288 9.33814C21.3292 5.0987 19.2483 1.97559 17.8811 2.36247C16.5139 2.74937 16.378 6.49972 17.5776 10.7392C18.7773 14.9786 20.8581 18.1017 22.2254 17.7149Z" fill="#492BFF"/>
<path d="M30.6798 10.8714C31.9628 6.65649 31.901 2.90414 30.5416 2.49037C29.1822 2.07659 27.0402 5.15806 25.7571 9.37305C24.4742 13.5879 24.536 17.3403 25.8954 17.7541C27.2547 18.1679 29.3968 15.0864 30.6798 10.8714Z" fill="#492BFF"/>
<path d="M36.7221 16.567C40.0799 13.7144 42.0562 10.5241 41.1361 9.4412C40.2161 8.35832 36.7483 9.79304 33.3906 12.6456C30.0328 15.4982 28.0567 18.6886 28.9766 19.7715C29.8966 20.8543 33.3644 19.4197 36.7221 16.567Z" fill="#492BFF"/>
<path d="M38.7187 24.626C43.0857 24.0417 46.4731 22.4265 46.2846 21.0181C46.0963 19.6097 42.4034 18.9417 38.0363 19.5259C33.6694 20.1101 30.2819 21.7254 30.4704 23.1338C30.6588 24.5421 34.3517 25.2102 38.7187 24.626Z" fill="#492BFF"/>
<path d="M44.3526 33.544C44.9556 32.2574 42.2103 29.6988 38.2208 27.829C34.2313 25.9593 30.5083 25.4868 29.9053 26.7733C29.3024 28.06 32.0477 30.6187 36.0372 32.4884C40.0267 34.358 43.7497 34.8307 44.3526 33.544Z" fill="#492BFF"/>
<path d="M35.9602 43.0365C37.1631 42.2802 36.237 38.6434 33.8919 34.9135C31.5466 31.1836 28.6703 28.7731 27.4674 29.5294C26.2645 30.2857 27.1906 33.9226 29.5357 37.6525C31.881 41.3824 34.7573 43.7929 35.9602 43.0365Z" fill="#492BFF"/>
<path d="M69.4777 35.6645L57.5996 11.9902H60.3395L70.8066 33.1051H70.8723L81.3395 11.9902H84.0793L72.2176 35.6645H69.4777Z" fill="black"/>
<path d="M92.6762 36.009C90.5871 36.009 88.7879 35.659 87.2785 34.959C85.7801 34.259 84.6262 33.2473 83.8168 31.9238C83.0184 30.5895 82.6191 28.9926 82.6191 27.1332V27.1168C82.6191 25.3121 83.0293 23.7426 83.8496 22.4082C84.6699 21.0738 85.8184 20.0402 87.2949 19.3074C88.7715 18.5746 90.4941 18.2137 92.4629 18.2246C94.4426 18.2246 96.1543 18.591 97.598 19.3238C99.0418 20.0566 100.152 21.0848 100.929 22.4082C101.705 23.7207 102.093 25.2574 102.093 27.0184V27.691H83.8332V25.8863H100.666L99.698 27.3629V26.6738C99.698 25.3613 99.4027 24.2238 98.8121 23.2613C98.2215 22.2988 97.3848 21.5551 96.302 21.0301C95.2191 20.5051 93.9395 20.2426 92.4629 20.2426C90.9316 20.2426 89.6082 20.5051 88.4926 21.0301C87.3879 21.5441 86.5348 22.2934 85.9332 23.2777C85.3426 24.2621 85.0473 25.4598 85.0473 26.8707V27.2809C85.0473 28.823 85.3809 30.0918 86.048 31.0871C86.7262 32.0715 87.6449 32.8043 88.8043 33.2855C89.9637 33.7559 91.2707 33.991 92.7254 33.991C93.7754 33.991 94.7434 33.8707 95.6293 33.6301C96.5152 33.3895 97.2754 33.0395 97.9098 32.5801C98.5441 32.1098 99.0199 31.5301 99.3371 30.841L99.4027 30.7098H101.831L101.782 30.8574C101.486 31.7105 101.054 32.4598 100.486 33.1051C99.9277 33.7395 99.2496 34.2754 98.4512 34.7129C97.6637 35.1395 96.7777 35.4621 95.7934 35.6809C94.8199 35.8996 93.7809 36.009 92.6762 36.009Z" fill="black"/>
<path d="M105.112 35.6645V11.9902H107.54V35.6645H105.112Z" fill="black"/>
<path d="M111.396 35.6645V18.5527L113.824 18.5691V22.0965H113.889C114.305 20.8824 115.027 19.9418 116.055 19.2746C117.083 18.5965 118.308 18.2574 119.73 18.2574C120.102 18.2574 120.457 18.2793 120.796 18.323C121.146 18.3668 121.442 18.4215 121.682 18.4871V20.702C121.398 20.6254 121.064 20.5652 120.682 20.5215C120.31 20.4777 119.911 20.4559 119.484 20.4559C118.325 20.4559 117.318 20.691 116.465 21.1613C115.623 21.6316 114.972 22.3043 114.513 23.1793C114.054 24.0543 113.824 25.0934 113.824 26.2965V35.6645H111.396Z" fill="black"/>
<path d="M130.329 35.9926C128.786 35.9926 127.441 35.7902 126.293 35.3855C125.155 34.9699 124.269 34.3738 123.635 33.5973C123.011 32.8098 122.7 31.8527 122.7 30.7262V30.7098C122.7 29.7363 122.951 28.8941 123.454 28.1832C123.957 27.4723 124.729 26.9199 125.768 26.5262C126.818 26.1215 128.157 25.8973 129.787 25.8535L139.483 25.6074V27.3793L130.05 27.6418C128.376 27.6855 127.14 27.9645 126.342 28.4785C125.543 28.9926 125.144 29.7145 125.144 30.6441V30.677C125.144 31.7598 125.653 32.5855 126.67 33.1543C127.698 33.723 129.049 34.0074 130.722 34.0074C132.221 34.0074 133.533 33.7832 134.66 33.3348C135.797 32.8863 136.683 32.2574 137.318 31.448C137.952 30.6387 138.269 29.698 138.269 28.6262V24.8691C138.269 23.3816 137.733 22.2387 136.661 21.4402C135.589 20.6418 134.075 20.2426 132.117 20.2426C130.389 20.2426 128.983 20.5488 127.9 21.1613C126.818 21.7629 126.129 22.5996 125.833 23.6715L125.784 23.8355H123.438L123.454 23.6551C123.651 22.5832 124.121 21.6371 124.865 20.8168C125.62 19.9965 126.61 19.3566 127.835 18.8973C129.071 18.4379 130.504 18.2082 132.133 18.2082C133.927 18.2082 135.464 18.4652 136.743 18.9793C138.023 19.4934 139.002 20.2371 139.68 21.2105C140.358 22.173 140.697 23.3324 140.697 24.6887V35.6645H138.269V32.1699H138.22C137.826 32.9355 137.241 33.6082 136.464 34.1879C135.688 34.7566 134.775 35.1996 133.725 35.5168C132.675 35.834 131.543 35.9926 130.329 35.9926Z" fill="black"/>
</g>
<defs>
<clipPath id="clip0_278_456">
<rect width="140.698" height="48" fill="white"/>
</clipPath>
</defs>
</svg>
