<svg width="20" height="20" viewBox="0 0 20 20" fill="none" xmlns="http://www.w3.org/2000/svg">
<path d="M10 1.25C5.16641 1.25 1.25 5.16641 1.25 10C1.25 14.8336 5.16641 18.75 10 18.75C14.8336 18.75 18.75 14.8336 18.75 10C18.75 5.16641 14.8336 1.25 10 1.25ZM6.67969 13.8238C6.62599 13.9154 6.54913 13.9912 6.45684 14.0437C6.36454 14.0962 6.26006 14.1234 6.15391 14.1227C6.04571 14.1236 5.93939 14.0944 5.84687 14.0383C5.77799 13.9984 5.71766 13.9452 5.66936 13.8819C5.62106 13.8186 5.58574 13.7464 5.56541 13.6695C5.54509 13.5925 5.54016 13.5122 5.55093 13.4334C5.56169 13.3545 5.58792 13.2785 5.62813 13.2098L6.22539 12.2168C6.25557 12.1655 6.29863 12.1231 6.3503 12.0936C6.40197 12.0641 6.46044 12.0487 6.51992 12.0488H6.6082C7.04141 12.0488 7.34453 12.3094 7.43281 12.5617L6.67969 13.8238ZM11.7363 11.8707L7.825 11.875H5.22539C5.1436 11.8753 5.06259 11.8591 4.98728 11.8272C4.91197 11.7953 4.84392 11.7484 4.78727 11.6894C4.73061 11.6304 4.68653 11.5605 4.6577 11.484C4.62886 11.4074 4.61588 11.3259 4.61953 11.2441C4.63203 10.916 4.91836 10.6676 5.24453 10.6676H7.12891L9.36289 6.86484L8.63945 5.63242C8.47656 5.35156 8.54883 4.98125 8.82812 4.80469C8.89698 4.76016 8.97413 4.73001 9.05494 4.71606C9.13574 4.70211 9.21853 4.70464 9.29834 4.7235C9.37814 4.74237 9.4533 4.77718 9.51931 4.82583C9.58531 4.87449 9.64079 4.93599 9.68242 5.00664L10.0691 5.66719H10.0734L10.4605 5.00664C10.5022 4.93636 10.5576 4.87519 10.6234 4.82677C10.6893 4.77836 10.7642 4.7437 10.8437 4.72485C10.9232 4.706 11.0057 4.70336 11.0862 4.71708C11.1668 4.73079 11.2437 4.76059 11.3125 4.80469C11.5902 4.98125 11.6617 5.35156 11.4977 5.63359L10.7742 6.86602L10.0711 8.06484L8.54414 10.6687V10.673H10.7945C11.0766 10.673 11.4301 10.8246 11.573 11.0684L11.5855 11.0938C11.7117 11.3082 11.7832 11.4555 11.7832 11.6699C11.7812 11.7396 11.7656 11.8081 11.7375 11.8719L11.7363 11.8707ZM14.7734 11.875H13.7145V11.8793L14.4887 13.1961C14.5719 13.3348 14.5974 13.5006 14.5597 13.6579C14.5219 13.8152 14.4239 13.9514 14.2867 14.0371C14.1916 14.0951 14.0824 14.1258 13.9711 14.1258C13.8652 14.1257 13.7612 14.0983 13.669 14.0461C13.5769 13.994 13.4998 13.9189 13.4453 13.8281L12.3012 11.8805L11.5902 10.6695L10.673 9.10156C10.5402 8.87768 10.468 8.62304 10.4635 8.36274C10.4591 8.10245 10.5225 7.84549 10.6477 7.61719C10.8289 7.29727 10.9676 7.21328 10.9676 7.21328L13.0078 10.6641H14.7621C15.0902 10.6641 15.3719 10.9164 15.3871 11.2402C15.3903 11.3226 15.3768 11.4047 15.3474 11.4817C15.318 11.5586 15.2734 11.6289 15.2162 11.6882C15.1589 11.7475 15.0903 11.7946 15.0145 11.8267C14.9386 11.8588 14.857 11.8752 14.7746 11.875H14.7734Z" fill="white"/>
</svg>
