<svg width="1000" height="1000" viewBox="0 0 1000 1000" fill="none" xmlns="http://www.w3.org/2000/svg">
<g clip-path="url(#clip0_236_5)">
<path d="M499.992 999.782C776.018 999.782 999.782 776.018 999.782 499.992C999.782 223.965 776.018 0.201172 499.992 0.201172C223.965 0.201172 0.201172 223.965 0.201172 499.992C0.201172 776.018 223.965 999.782 499.992 999.782Z" stroke="#492BFF" stroke-width="0.419147" stroke-miterlimit="10"/>
<path d="M45.5029 708.157C256.753 864.482 847.297 844.648 968.648 674.021" stroke="#492BFF" stroke-width="0.419147" stroke-miterlimit="10"/>
<path d="M7.51074 585.498C184.542 731.361 930.857 698.784 997.099 552.167" stroke="#492BFF" stroke-width="0.419147" stroke-miterlimit="10"/>
<path d="M1.70996 460.977C147.707 552.167 935.099 541.587 997.083 447.866" stroke="#492BFF" stroke-width="0.419147" stroke-miterlimit="10"/>
<path d="M23.0864 340.498C146.014 372.638 881.549 379.328 972.001 335.301" stroke="#492BFF" stroke-width="0.419147" stroke-miterlimit="10"/>
<path d="M75.2783 236.449C360.969 219.113 644.312 217.822 924.721 236.449" stroke="#492BFF" stroke-width="0.419147" stroke-miterlimit="10"/>
<path d="M152.888 140.414C276.569 98.3315 831.721 113.538 860.089 153.424" stroke="#492BFF" stroke-width="0.419147" stroke-miterlimit="10"/>
<path d="M261.95 60.4411C406.891 33.5152 572.135 36.4995 760.315 73.2838" stroke="#492BFF" stroke-width="0.419147" stroke-miterlimit="10"/>
<path d="M120.01 824.645C319.071 949.937 741.672 937.58 905.307 792.488" stroke="#492BFF" stroke-width="0.419147" stroke-miterlimit="10"/>
<path d="M254.707 935.535C340.146 965.965 642.904 1012.98 816.732 886.596" stroke="#492BFF" stroke-width="0.419147" stroke-miterlimit="10"/>
<path d="M493.067 0.251465C505.105 89.0267 499.522 620.672 500.008 999.782" stroke="#492BFF" stroke-width="0.419147" stroke-miterlimit="10"/>
<path d="M409.959 991.684C295.23 873.3 349.836 48.0509 456.836 2.04541" stroke="#492BFF" stroke-width="0.419147" stroke-miterlimit="10"/>
<path d="M314.88 964.373C139.911 805.315 187.594 134.362 408.366 8.60107" stroke="#492BFF" stroke-width="0.419147" stroke-miterlimit="10"/>
<path d="M352.201 22.416C88.9432 174.332 20.3373 687.937 208.534 910.638" stroke="#492BFF" stroke-width="0.419147" stroke-miterlimit="10"/>
<path d="M85.9588 780.015C-7.20911 626.406 0.201384 248.286 276.033 48.6045" stroke="#492BFF" stroke-width="0.419147" stroke-miterlimit="10"/>
<path d="M576.309 993.998C709.481 885.07 661.698 54.7405 526.699 0.905273" stroke="#492BFF" stroke-width="0.419147" stroke-miterlimit="10"/>
<path d="M655.31 975.17C873.267 856.769 815.039 82.5888 558.203 3.57129" stroke="#492BFF" stroke-width="0.419147" stroke-miterlimit="10"/>
<path d="M606.137 11.5015C908.191 112.482 1047.92 851.555 655.311 975.17" stroke="#492BFF" stroke-width="0.419147" stroke-miterlimit="10"/>
<path d="M816.733 886.612C1054.59 687.3 988.281 112.817 606.137 11.5181" stroke="#492BFF" stroke-width="0.419147" stroke-miterlimit="10"/>
<path d="M442.518 89.312C442.552 89.7311 442.367 90.1335 442.015 90.3682L440.976 91.0556C440.858 91.1227 440.774 91.2233 440.691 91.3239L439.232 93.2855C439.031 93.5538 438.729 93.7214 438.41 93.7549L436.281 93.9394C435.845 93.9729 435.46 94.2747 435.309 94.6771L434.605 96.6219C434.504 96.9069 434.286 97.1416 434.001 97.259L429.457 99.3044C429.457 99.3044 429.39 99.338 429.34 99.3547L418.459 102.943C418.459 102.943 418.291 103.01 418.208 103.06L415.542 104.77C415.391 104.871 415.223 104.921 415.056 104.955L412.608 105.24L406.891 105.776C406.622 105.81 406.371 105.927 406.17 106.128L404.577 107.771C404.46 107.889 404.325 107.972 404.175 108.039L400.218 109.599C400.067 109.666 399.882 109.683 399.715 109.683L386.185 108.777C385.95 108.777 385.715 108.677 385.531 108.526L381.339 105.055C380.937 104.737 380.367 104.703 379.948 105.005L378.757 105.826C378.556 105.96 378.338 106.044 378.104 106.044H368.463L368.866 103.915H372.152C372.319 103.915 372.487 103.882 372.621 103.814L375.404 102.523C375.404 102.523 375.488 102.49 375.538 102.456L379.244 100.143L375.639 99.7236L376.276 97.5273L374.952 97.5943C374.281 97.6446 373.744 97.1081 373.744 96.4542V96.3369C373.828 95.5824 373.191 94.9621 372.437 95.0794L362.746 96.5716L363.182 95.0627C363.299 94.6435 363.651 94.325 364.071 94.2579L374.868 92.3466L375.488 90.7539L378.154 89.5635C379.21 89.094 378.992 87.518 377.852 87.3839C375.019 87.0821 372.034 87.3839 368.664 89.2114C368.497 89.2952 368.312 89.3455 368.128 89.3455H362.746V87.6019L364.959 87.4845C365.261 87.4677 365.529 87.3336 365.73 87.1157L367.156 85.6067C367.524 85.2044 368.111 85.1205 368.564 85.3888L369.955 86.2103C370.274 86.3947 370.643 86.4283 370.978 86.2774L372.655 85.5564L371.263 84.9026C370.509 84.5505 370.375 83.5445 371.012 82.9913L374.08 80.3758L375.354 81.935C375.438 82.0356 375.555 82.1362 375.673 82.2033L378.322 83.6787L379.898 83.3601L378.472 81.7841L380.216 80.8452L380.367 79.1183L378.003 80.2081L377.064 78.0118L380.518 76.9556C380.904 76.8214 381.339 76.922 381.641 77.207L387.442 82.7565C387.945 83.2428 387.895 84.0643 387.358 84.4834L386.721 84.9864C386.386 85.2379 386.235 85.657 386.302 86.0762L386.587 87.7863C386.738 88.7252 387.928 89.0605 388.566 88.3563L391.064 85.5564L392.64 86.9815L394.417 84.1649C394.484 84.0475 394.534 83.9134 394.568 83.7793L394.987 81.6165C395.087 81.08 395.557 80.6776 396.11 80.6776H397.519L397.2 82.1027L400.503 83.9804L401.173 81.868C401.257 81.6165 401.425 81.3985 401.643 81.2476L404.828 79.2357C405.248 78.9675 405.784 79.0178 406.17 79.3195L409.322 81.935L409.238 80.3758C409.188 79.6884 409.741 79.1351 410.428 79.1686L412.557 79.2525C412.809 79.2692 413.044 79.3531 413.228 79.504L414.636 80.644C415.106 81.0297 415.777 80.9794 416.179 80.5434L417.805 78.8333C418.174 78.4477 418.778 78.3639 419.23 78.6489L421.058 79.789C421.477 80.0405 421.997 80.0069 422.382 79.6884L423.522 78.7663C423.791 78.5483 423.941 78.2298 423.941 77.8944L423.975 76.2179C423.975 75.564 424.562 75.0442 425.216 75.1113L428.519 75.3963C429.038 75.4466 429.474 75.849 429.541 76.3687L429.625 76.9053C429.709 77.5256 430.262 77.9447 430.883 77.8777L432.962 77.643C433.23 77.6094 433.481 77.4921 433.666 77.2909L434.621 76.3017L438.394 75.9999V77.3076L435.527 77.6597C435.242 77.6932 434.99 77.8274 434.806 78.0453L433.666 79.3698L435.158 79.8896C435.745 80.0908 436.063 80.7111 435.879 81.2979L435.443 82.723L437.975 82.8404L438.042 84.3158L441.227 84.8355C441.747 84.9193 442.149 85.3385 442.2 85.8582L442.518 89.312Z" fill="#492BFF" fill-opacity="0.1" stroke="#492BFF" stroke-opacity="0.1" stroke-width="0.419147" stroke-miterlimit="10"/>
<path d="M999.782 499.992C999.782 730.506 843.725 924.554 631.52 982.279V973.661L667.617 954.783V945.344L673.116 943.617L672.647 930.07C660.122 926.549 655.679 919.725 654.707 911.51C658.764 910.806 661.715 907.587 663.677 902.071H666.51L666.98 898.768H664.632C668.287 898.282 671.909 892.565 675.48 883.964L673.284 878.783H667.935L666.98 875.162L663.358 874.223L661.631 876.738L638.511 883.193C634.739 862.085 603.42 865.723 550.541 888.692C534.362 881.449 512.935 883.377 487.753 891.844L422.466 862.252L420.89 855.814L414.586 845.738V844.313L400.587 833.297L398.223 835.98L397.133 832.04H393.663L392.405 829.207L395.389 827.329L384.542 824.495L376.193 817.655L374.617 808.752H379.194C375.086 802.532 371.163 796.111 364.322 793.261C369.469 792.389 373.694 790.427 374.617 784.526C373.208 775.321 387.375 762.11 373.443 743.935L366.133 722.928L365.412 726.935L362.579 725.04L368.48 708.995L372.035 706.866C372.94 693.504 379.747 683.444 391.617 676.185C391.617 669.009 394.098 662.789 397.988 657.071L407.193 654.003C410.11 647.398 412.994 640.708 416.632 636.533C432.71 639.082 470.215 607.579 457.306 599.716C455.998 589.74 458.898 580.099 465.806 570.761L480.292 558.17C495.716 554.867 506.279 543.432 511.443 522.928L517.579 520.832C521.754 532.971 532.216 536.156 550.625 528.041L551.563 532.87L565.848 532.635C574.818 522.945 582.714 518.2 588.75 522.022C595.406 509.498 617.755 503.848 655.462 504.955C659.837 504.687 664.683 502.239 669.78 498.651C673.837 500.914 677.224 501.099 679.37 497.544L687.25 500.864C691.408 501.317 699.355 497.293 709.28 490.939L709.9 495.029L712.583 492.682L716.037 500.545L724.067 494.879L725.643 498.181C716.506 507.621 715.181 514.126 724.218 516.741L725.962 523.515C724.067 533.121 704.552 543.5 722.022 545.545L722.81 541.605L725.962 542.242V547.59L730.053 552.62H736.34C738.168 557.18 741.957 558.823 750.809 552.939C752.15 556.577 755.336 557.7 761.204 555.152C765.144 558.052 769.168 560.265 773.795 558.287C773.678 567.106 775.74 574.6 792.992 572.773C811.233 590.712 827.295 578.44 819.415 558.924C821.175 550.726 827.345 544.841 837.354 540.985C846.794 541.169 850.683 543.935 849.946 548.848C853.751 550.089 858.513 550.038 863.643 549.485L865.052 554.666C871.02 550.105 881.029 551.983 892.43 556.091C904.518 542.728 913.907 537.715 918.719 546.953C930.086 546.953 933.825 513.254 932.4 468.053L929.885 472.932L925.71 470.887C924.487 477.995 921.167 482.673 914.628 483.629C911.007 478.951 907.084 474.776 900.377 475.212L900.729 483.947L898.248 483.83L895.549 487.367C892.581 483.193 889.446 479.387 884.567 478.984L878.548 477.693L878.397 474.223L874.457 468.891L875.865 464.784L867.684 462.269L865.018 464.465L863.911 456.921L867.214 459.117L869.26 460.844L868.153 455.495L870.836 459.586L873.988 458.329L870.366 455.814L871.775 452.511C869.796 450.047 869.042 446.928 869.427 443.223L864.85 446.056C861.732 439.082 864.347 434.119 869.427 430.011L873.284 431.889L873.753 427.647C875.933 430.162 879.068 431.118 883.427 430.011L881.063 427.413L884.835 424.345L887.199 423.875L881.532 420.337V417.269L896.169 417.739L898.533 411.368L902.54 406.17L907.033 402.163L913.404 402.398L918.115 404.997L921.184 404.51L924.486 409.943L925.912 407.344L935.116 413.011L939.123 408.769L942.912 410.898C942.912 410.898 944.153 406.539 944.79 406.17C951.865 394.602 933.104 373.862 919.306 364.624L913.639 358.488L911.744 360.852L907.503 359.679L907.268 364.155L904.669 364.39C899.254 385.666 901.366 354.481 889.563 358.019L895.465 348.814L892.162 347.641L887.434 348.814L880.359 345.981L886.26 341.253L876.352 341.974C876.218 348.982 874.658 353.492 871.859 355.889C875.061 363.82 873.988 367.743 870.45 369.352L872.328 388.231L869.494 388.935L869.26 396.966L871.624 398.86L867.382 401.677L873.284 409.943C874.306 413.681 875.899 416.632 879.168 417.269L878.229 421.276L875.396 421.042L875.329 422.383L871.708 422.534C871.875 428.754 868.304 430.833 861.397 429.223C860.139 426.977 856.618 426.055 852.544 425.451L851.438 431.822L848.604 425.686L846.089 429.609C846.089 429.609 844.212 429.777 843.725 429.928C843.256 430.095 844.362 434.186 844.362 434.186L850.348 438.897L843.893 435.913L843.725 441.882L835.862 433.398C831.05 439.719 844.245 455.63 861.598 473.754L850.499 466.192L850.734 473.049L845.301 468.891L842.703 471.155L847.431 476.117L845.067 478.951L841.06 476.117L846.022 492.162L841.529 487.686L840.59 492.397L835.393 484.853L834.689 488.859C834.689 488.859 829.961 484.132 830.195 483.427C830.43 482.723 831.151 477.995 831.151 477.995L827.597 475.648L825.484 472.58L829.491 466.444L824.763 467.382L821.46 459.117L816.045 453.215L808.014 447.079L811.317 444.95L805.885 440.473L804.946 418.057L799.983 416.632L769.302 393.495L764.591 395.155L761.036 388.784L757.499 386.89L755.621 383.821L760.097 384.056L749.25 373.443L744.052 366.603L741.454 376.042L735.552 365.413L737.916 362.11C734.814 360.047 731.495 360.433 727.756 365.882H722.106L727.286 373.678L725.174 377.216C723.799 385.448 729.617 391.718 742.392 396.094C748.814 410.446 756.543 422.232 771.9 419.231C764.104 424.613 788.264 432.677 796.295 440.708L796.06 448.974L791.097 442.837L782.128 439.769C782.128 439.769 778.59 448.974 778.825 450.147C779.059 451.338 785.196 454.154 785.196 454.154L787.794 461.716C782.865 461.732 780.317 464.147 781.658 470.451L776.461 478.951L771.263 475.648L774.097 471.155C772.621 468.455 773.644 466.226 777.651 464.549L770.09 447.079L764.188 447.314L761.355 444.246V440.004L755.923 438.109L754.045 440.943L750.021 436.466L748.378 429.14L740.816 431.504L737.748 427.966L734.68 428.201L725.006 418.292C722.709 415.542 720.228 413.531 717.227 413.564C715.215 409.205 712.767 405.919 709.196 405.298C708.022 399.749 706.245 394.317 702.825 389.254L687.082 383.436L679.219 393.194C673.066 394.568 667.969 398.156 663.962 404.041C657.825 407.495 645.318 402.834 633.113 398.542C622.55 404.527 620.354 411.535 625.87 419.466L625.92 425.518L611.049 434.924C604.745 436.198 598.34 437.355 595.943 442.787L598.458 444.044L592.791 447.196C583.737 462.219 577.601 469.763 589.957 475.531C581.172 482.438 574.784 489.161 579.898 495.029C572.353 493.806 565.63 497.544 560.064 508.258C545.528 505.474 530.64 506.43 514.746 518.317C507.369 518.619 504.15 514.595 504.368 507C502.037 502.255 497.225 499.757 483.595 505.106C477.743 502.071 472.496 501.048 468.489 504.167C471.59 497.913 472.261 489.48 471.322 479.622L465.974 481.181L465.018 477.727L460.625 476.47L465.337 463.878C469.092 460.844 471.741 457.172 471.624 451.924C474.306 446.308 474.608 439.635 472.261 431.772C474.357 424.579 472.579 416.465 465.974 407.227L473.518 402.515C476.737 404.846 479.185 403.035 481.08 398.106L490.2 397.167L492.095 401.56C501.92 397.184 514.578 397.335 530.17 402.197L548.11 401.258C564.49 410.814 570.341 398.089 567.625 367.257L553.777 347.758L551.245 341.253L523.564 330.12L521.67 320.061L540.548 314.394L546.332 319.943L550.34 318.049L562.864 318.87L559.192 314.981L558.957 308.727L554.598 302.356L562.377 302.473L563.803 305.894C570.224 308.157 576.427 308.928 582.094 306.011L578.322 304.485L579.965 300.814C585.9 300.26 590.578 297.511 594.249 293.034L592.841 283.042L600.62 280.913L612.658 275.967L621.863 276.201L615.961 268.17L621.863 259.435L624.227 247.632L643.189 244.732L647.431 247.079L646.492 242.368L656.166 241.177L657.591 244.732L659.703 243.072L660.005 244.547C659.67 242.67 659.016 238.394 659.938 238.596C661.128 238.83 666.074 238.344 666.074 238.344L657.825 232.208L660.173 229.861L662.302 229.626L656.635 223.489L653.802 226.323L652.393 221.36L655.462 218.292L648.621 213.799L646.022 199.179L649.795 199.883L651.689 197.05L648.135 197.284L645.788 194.451L650.029 191.618L655.663 192.137L659.435 185.599L664.146 184.576C665.521 188.667 665.605 192.389 664.549 195.826L667.617 201.258L672.412 201.107L672.261 205.198L667.935 205.433L667.382 211.25L664.398 215.962C665.538 217.722 665.672 219.566 664.632 221.478C670.232 223.255 671.423 226.273 669.981 230.045L682.807 232.61L681.734 237.254L687.635 237.087L695.783 231.118C699.17 230.548 702.054 232.543 704.753 235.41C707.302 235.058 709.347 237.59 711.242 240.825L729.65 232.811C738.151 224.345 745.41 223.557 751.01 233.046C754.246 234.253 756.493 231.805 757.431 224.546L764.658 226.44L753.022 198.424L755.218 188.667L759.628 187.728L764.658 193.076L772.219 199.062L775.371 194.954L769.386 186.152L768.748 181.742L764.356 180.804L758.991 175.757L756.157 169.151L764.976 165.379L781.34 169.47L780.082 165.06H783.553L790.46 164.44L779.462 158.455L775.991 153.425C767.726 153.911 759.812 155.001 753.81 159.377C752.62 158.488 750.34 159.025 746.718 161.288L742.325 158.455L731.31 151.849L726.582 141.773L720.597 134.228L716.506 127.304L713.991 120.698L707.704 117.227L716.825 119.742L714.947 115.651L718.082 109.683L716.506 101.803L721.553 103.697C718.669 98.6173 714.075 94.9288 707.704 92.6822L697.309 91.1062L698.567 94.8785L695.431 96.7731L698.567 98.3491L697.007 101.803L703.613 105.592L702.657 108.727L703.613 112.198L698.265 116.607L694.476 119.441L695.113 122.257L692.279 122.576L694.174 125.728L690.385 126.985L693.537 129.5L695.75 138.637L703.412 148.362C710.286 150.223 715.869 154.012 720.06 159.964L716.037 165.245L721.787 169.168L712.03 174.533L721.318 192.305L721.938 207.562L717.378 200.805L717.227 207.411C717.227 207.411 707.151 206.154 707.151 206.623C707.151 207.092 707 209.456 707 209.456L704.166 210.395L707.302 216.699L694.727 217.806L693.453 212.29L686.529 204.259L690.636 205.366L688.105 201.912L689.681 200.956C675.363 187.007 664.398 174.449 662.939 165.865C658.748 165.748 656.149 162.344 654.59 156.745C656.518 163.92 656.903 169.403 649.878 166.653C640.59 196.245 596.814 165.915 620.521 165.681C615.257 165.094 615.408 162.445 619.331 158.371C618.811 158.723 610.143 164.708 610.143 164.138C610.143 163.568 607.897 155.403 607.897 155.403L612.155 150.34L603.186 146.786L607.193 143.952L599.95 137.749C600.822 134.63 601.056 131.344 598.776 127.354L603.839 121.452L608.098 122.525L606.555 119.223L609.624 118.988C610.026 115.718 611.233 113.036 618.359 114.377L615.005 110.756L618.308 109.23C618.308 109.23 619.784 104.737 620.371 105.273C620.957 105.81 626.272 110.052 626.272 110.052L627.68 106.447C628.183 102.624 631.62 99.4053 636.298 96.4377L628.904 95.8174L632.995 93.9229L639.92 92.3469C639.92 92.3469 635.359 91.0894 635.359 90.3014C635.359 89.5134 636.147 86.8477 636.147 86.8477L632.056 85.2717L632.677 82.9077L635.98 84.0142L637.874 84.9531L639.601 83.5448L641.965 82.5891L635.208 80.7114L633.465 77.5594L636.768 75.8325L637.723 73.3009L641.026 73.7871L643.072 70.4842L637.086 67.6508L637.254 66.2257L639.45 64.4988L635.208 63.3922L628.435 64.1802L625.132 66.5442L624.344 64.0293L628.284 62.2857L632.526 60.5588L628.586 59.6199L627.01 57.893L628.586 56.7865L632.056 55.529L633.163 53.953L635.829 57.7254L637.723 58.9828L641.814 56.317L639.132 54.2716L641.026 51.7567L644.949 51.5891L647.632 53.6345L651.874 50.1807L653.617 51.2873L650.465 54.4225L653.131 54.1039L658.178 49.7113L656.752 47.4982L663.358 44.1953L663.677 45.9222L663.526 47.4982L666.041 48.9233L669.193 48.4538L671.238 47.3473L672.328 49.8622L675.48 49.2418L681.616 52.0585L688.708 54.741L689.966 53.3327L690.754 54.741L692.799 55.9985L698.298 57.7254L701.601 56.4679L706.631 61.9839C731.83 69.3609 752.787 82.5891 771.146 99.4221C773.124 102.473 750.088 94.3923 738.184 89.1614C745.36 93.2187 755.57 99.1203 755.57 99.1203C763.383 110.119 773.007 119.34 787.526 123.816L772.571 108.392L788.297 117.529L788.935 115.802L777.282 105.877L776.98 100.21L774.147 97.6952L786.571 105.726L779.814 98.8017L784.693 99.7406L776.025 90.1505L794.3 96.0186H794.333C918.87 186.94 999.782 334.01 999.782 499.992Z" fill="#492BFF" fill-opacity="0.1" stroke="#492BFF" stroke-opacity="0.1" stroke-width="0.419147" stroke-miterlimit="10"/>
<path d="M449.124 6.35407L438.277 8.24861L440.155 12.9598L434.974 13.9155L436.231 16.2292L425.015 18.5931L430.564 19.18L429.626 20.5883L413.799 22.7176L417.588 24.7295L413.094 30.279L404.594 26.9593L401.174 29.3233L411.217 31.1005L412.273 34.1686L407.428 42.3168L402.599 41.2438L398.223 42.9037L394.216 40.4223L397.049 37.1194L389.723 34.8728L389.019 40.0702L378.523 44.8988L395.742 44.7814C371.783 59.8707 350.742 65.9567 332.3 64.0622C323.783 72.4619 312.7 79.6712 299.875 86.0925L297.125 84.6004C292.732 91.3905 286.915 94.4252 279.89 94.1569L288.39 86.847L285.087 86.0087C281.734 92.8827 276.352 97.1077 266.913 96.1688C266.276 101.953 261.782 102.624 256.686 102.49L257.993 104.032L255.864 109.699L250.784 110.872L251.019 113.706C245.184 120.278 239.4 124.889 233.716 125.358C227.345 130.036 222.936 134.814 223.322 139.827C215.123 149.568 207.796 156.727 203.655 154.581V161.187L197.519 165.445L192.808 160.013L198.223 156.945L192.808 154.581L198.223 148.914L182.882 157.18V147.506L190.913 140.883L187.61 136.172L196.111 130.036L193.277 125.308L199.883 120.597H205.55V112.566L208.853 105.491H217.353L226.792 92.3965V86.6123L232.459 83.2926L241.429 80.9454L246.123 69.3937L261.246 67.2477L267.852 60.6419L275.698 53.2482C330.791 25.5342 391.668 7.7121 456.082 2.1123L449.124 6.35407Z" fill="#492BFF" fill-opacity="0.1" stroke="#492BFF" stroke-opacity="0.1" stroke-width="0.419147" stroke-miterlimit="10"/>
<path d="M581.776 274.675L592.17 278.933H587.442L580.837 284.114L575.17 287.668L569.972 283.644L561.958 278.933L556.761 282.706L565.731 284.6L561.489 289.311L548.261 286.478H538.352L532.685 294.039C527.018 290.099 521.351 290.887 515.684 296.403H510.034C516.204 292.782 521.217 288.322 523.598 281.951L526.901 281.247L527.136 277.709C527.136 277.709 539.643 279.118 540.364 278.648C541.068 278.179 548.378 268.74 548.378 268.74L543.181 272.981C543.181 272.981 534.932 276.05 533.976 275.345C533.037 274.641 530.438 272.981 530.438 272.981L527.37 272.277L524.772 269.209L517.696 272.043L514.159 267.566C518.535 267.03 523.33 263.257 528.326 258.127L526.901 252.695L521.469 253.164L527.605 247.497L538 246.324L542.946 246.558L538.469 243.49V240.422L539.878 237.119V232.727L536.575 234.286L530.673 226.255L538 222.013L526.666 224.36L524.772 222.248L522.894 224.36L518.401 223.187L516.523 226.02L514.31 222.164L519.742 213.898L518.166 212.641L517.059 207.611L521.083 207.846L517.847 200.838C517.847 200.838 512.348 205.951 512.264 206.186C512.197 206.421 512.432 213.278 512.432 213.278L508.576 216.497L509.666 205.566L504.166 212.322L499.204 209.573L509.045 204.543L513.606 195.406L509.129 199.262L505.189 202.649L501.249 202.095L502.674 197.619L507.318 192.421L505.038 191.399L500.545 188.331L497.158 184.709L501.568 182.597L502.993 183.686V187.073L506.832 188.247L506.296 185.262L510.152 184.558L507.235 183.77L508.257 179.763L513.287 179.83L510.688 176.293L514.075 175.27L514.243 169.603C520.932 170.894 527.404 170.827 533.59 169.05L533.037 173.929C528.762 175.723 526.213 179.025 524.269 182.865C556.476 178.858 550.943 187.71 534.345 200.335L537.799 199.547L539.995 203.638L527.722 204.744C546.064 207.326 557.968 213.077 555.822 225.752C561.338 227.227 566.301 229.759 570.442 233.766L568.329 235.661L571.867 241.797C576.561 245.234 578.64 248.839 573.996 252.879C593.16 250.733 597.569 256.383 586.034 270.433L581.776 274.675Z" fill="#492BFF" fill-opacity="0.1" stroke="#492BFF" stroke-opacity="0.1" stroke-width="0.419147" stroke-miterlimit="10"/>
<path d="M506.363 235.543L501.484 236.8L506.531 248.436L505.575 254.27L503.529 255.997L503.228 259.619L501.333 261.195L503.06 263.861L500.076 264.33L495.817 263.71L490.167 264.967L487.803 267.951L484.97 267.331L483.779 269.678L480.409 269.377C475.748 274.322 469.864 276.301 462.788 275.345L466.879 271.103L457.91 273.233L466.879 268.739H455.378L462.788 265.118L455.378 264.498L458.06 262.134H464.515C460.19 260.491 461.313 258.747 466.091 256.936L459.469 257.573C464.432 256.702 466.091 250.8 474.105 248.285L462.621 246.24L460.106 243.255L462.621 241.83L466.242 242.769L463.727 239.785L466.242 238.678L457.742 236.012L462.939 234.755L462.788 232.072L466.393 230.983L471.758 231.922L475.212 230.983L476.939 232.072L477.895 229.407L482.757 227.831L476.319 224.846L479.303 223.27L481.197 218.392L493.001 215.709L495.817 218.073L502.741 217.285L509.045 225.467L512.197 227.512V231.134L506.363 232.726V235.543Z" fill="#492BFF" fill-opacity="0.1" stroke="#492BFF" stroke-opacity="0.1" stroke-width="0.419147" stroke-miterlimit="10"/>
<path d="M116.975 178.908L112.197 191.164L107 198.239L100.394 210.998L94.2575 219.968V227.512L96.152 235.543L94.2575 240.255L82.9238 245.452L78.682 251.588L81.9513 249.425L86.0757 245.301L92.212 242.585L91.3905 245.77L87.9703 249.308L89.0265 250.364L93.0336 245.653L93.6371 251.085L86.1931 266.057L77.6257 274.725L73.1325 276.016L58.7306 290.418L46.5586 289.496C65.1687 249.476 88.9259 212.339 116.975 178.908Z" fill="#492BFF" fill-opacity="0.1" stroke="#492BFF" stroke-opacity="0.1" stroke-width="0.419147" stroke-miterlimit="10"/>
<path d="M83.1088 273.367L82.807 274.725L79.5712 277.257L77.5426 281.214L70.2997 293.805H74.7091L68.7237 299.472L69.9812 305.44L73.7702 301.031L77.5426 302.607L73.1331 308.592L71.4062 314.879L77.5426 311.107L75.3462 314.259L69.6794 319.607L74.072 318.35L69.6794 325.576L74.072 323.698L65.2699 338.804L64.5825 335.2L62.688 335.367L68.204 325.911L67.8854 322.927L57.9768 335.049L56.4008 334.579L64.4149 324.352L60.8102 321.519L57.3397 325.761L52.6285 322.927L47.7496 324.822C47.5317 319.96 51.1363 316.07 56.0822 312.549L52.4608 312.23C56.4343 309.011 59.3013 305.055 60.9611 300.276C67.9022 284.399 75.363 276.804 83.1088 273.367Z" fill="#492BFF" fill-opacity="0.1" stroke="#492BFF" stroke-opacity="0.1" stroke-width="0.419147" stroke-miterlimit="10"/>
<path d="M31.3019 346.534L42.8704 330.489L40.5064 338.805L39.316 342.762L34.3701 346.769V351.245L23.9753 358.806L18.627 365.11C24.9644 342.426 32.8612 320.396 42.1998 299.137L43.0213 304.837L34.6887 318.837L38.1424 316.556L30.8325 332.132L34.3701 329.064L32.0061 335.2L36.0132 336.39L32.0061 341.571L30.5978 338.805L28.8206 343.466L31.3019 346.534Z" fill="#492BFF" fill-opacity="0.1" stroke="#492BFF" stroke-opacity="0.1" stroke-width="0.419147" stroke-miterlimit="10"/>
<path d="M47.7325 306.095L50.0294 301.853L48.8894 296.655V292.648L44.832 296.655L47.7325 306.095Z" fill="#492BFF" fill-opacity="0.1" stroke="#492BFF" stroke-opacity="0.1" stroke-width="0.419147" stroke-miterlimit="10"/>
<path d="M230.598 473.401H234.135L227.178 468.203L225.752 468.891L230.598 473.401Z" fill="#492BFF" fill-opacity="0.1" stroke="#492BFF" stroke-opacity="0.1" stroke-width="0.419147" stroke-miterlimit="10"/>
<path d="M236.03 471.876L238.495 471.389L230.48 465.739V467.734L236.03 471.876Z" fill="#492BFF" fill-opacity="0.1" stroke="#492BFF" stroke-opacity="0.1" stroke-width="0.419147" stroke-miterlimit="10"/>
<path d="M244.044 470.802L246.877 468.89L245.469 467.616H238.494L241.21 469.209L244.044 470.802Z" fill="#492BFF" fill-opacity="0.1" stroke="#492BFF" stroke-opacity="0.1" stroke-width="0.419147" stroke-miterlimit="10"/>
<path d="M263.878 487.099L266.594 484.148L264.347 483.545L259.15 482.254L258.094 483.545L263.878 487.099Z" fill="#492BFF" fill-opacity="0.1" stroke="#492BFF" stroke-opacity="0.1" stroke-width="0.419147" stroke-miterlimit="10"/>
<path d="M264.348 495.935H267.885V498.651H264.817L264.348 495.935Z" fill="#492BFF" fill-opacity="0.1" stroke="#492BFF" stroke-opacity="0.1" stroke-width="0.419147" stroke-miterlimit="10"/>
<path d="M201.911 456.887H204.275V453.232C204.275 453.232 202.263 452.528 201.911 452.88C201.559 453.232 201.911 456.887 201.911 456.887Z" fill="#492BFF" fill-opacity="0.1" stroke="#492BFF" stroke-opacity="0.1" stroke-width="0.419147" stroke-miterlimit="10"/>
<path d="M381.893 639.248L378.355 636.884L376.93 630.044L379.412 630.983L381.893 630.044L385.43 633.582L381.893 639.248Z" fill="#492BFF" fill-opacity="0.1" stroke="#492BFF" stroke-opacity="0.1" stroke-width="0.419147" stroke-miterlimit="10"/>
<path d="M396.043 634.654H400.302L404.309 632.173V626.741L407.847 623.907L410.915 620.37L409.506 618.006L403.488 621.309L401.71 623.673V626.322L396.043 634.654Z" fill="#492BFF" fill-opacity="0.1" stroke="#492BFF" stroke-opacity="0.1" stroke-width="0.419147" stroke-miterlimit="10"/>
<path d="M358.521 565.379L360.181 563.015L364.188 564.188L367.257 565.379L361.12 567.977L358.521 565.379Z" fill="#492BFF" fill-opacity="0.1" stroke="#492BFF" stroke-opacity="0.1" stroke-width="0.419147" stroke-miterlimit="10"/>
<path d="M352.62 626.322L353.793 622.969L351.211 621.544L352.62 626.322Z" fill="#492BFF" fill-opacity="0.1" stroke="#492BFF" stroke-opacity="0.1" stroke-width="0.419147" stroke-miterlimit="10"/>
<path d="M367.256 633.817L362.88 628.166H367.256L373.627 623.941L374.566 626.322L373.393 628.887L370.559 632.408L370.09 635.946L367.256 633.817Z" fill="#492BFF" fill-opacity="0.1" stroke="#492BFF" stroke-opacity="0.1" stroke-width="0.419147" stroke-miterlimit="10"/>
<path d="M358.521 634.655H360.885V631.234L358.521 629.943V634.655Z" fill="#492BFF" fill-opacity="0.1" stroke="#492BFF" stroke-opacity="0.1" stroke-width="0.419147" stroke-miterlimit="10"/>
<path d="M350.256 639.249L352.503 634.655H348.378L346.014 636.952L350.256 639.249Z" fill="#492BFF" fill-opacity="0.1" stroke="#492BFF" stroke-opacity="0.1" stroke-width="0.419147" stroke-miterlimit="10"/>
<path d="M689.748 465.773L697.929 470.182V463.895H705.172V443.759L700.444 434.639L697.46 429.29L700.763 417.018L699.505 407.579L697.46 402.851L694.476 404.745L695.113 410.731C687.669 413.195 688.44 420.371 694.476 430.565L697.46 433.079L692.598 438.109L685.992 438.428V442.519L691.022 450.382L689.446 453.215L692.279 456.669L689.765 465.79L689.748 465.773Z" fill="#492BFF" fill-opacity="0.1" stroke="#492BFF" stroke-opacity="0.1" stroke-width="0.419147" stroke-miterlimit="10"/>
<path d="M770.006 478.363L768.111 485.606L770.006 490.636L769.067 494.727L766.233 498.181L755.537 492.195L747.355 490.301L737.597 484.013L739.793 477.089H747.657L752.066 478.984L759.309 478.347C759.309 478.347 762.142 473.619 763.081 473.937C764.02 474.256 766.854 475.832 766.854 475.832L770.006 472.378V478.363Z" fill="#492BFF" fill-opacity="0.1" stroke="#492BFF" stroke-opacity="0.1" stroke-width="0.419147" stroke-miterlimit="10"/>
<path d="M442.518 89.312C442.552 89.7311 442.367 90.1335 442.015 90.3682L440.976 91.0556C440.858 91.1227 440.774 91.2233 440.691 91.3239L439.232 93.2855C439.031 93.5538 438.729 93.7214 438.41 93.7549L436.281 93.9394C435.845 93.9729 435.46 94.2747 435.309 94.6771L434.605 96.6219C434.504 96.9069 434.286 97.1416 434.001 97.259L429.457 99.3044C429.457 99.3044 429.39 99.338 429.34 99.3547L418.459 102.943C418.459 102.943 418.291 103.01 418.208 103.06L415.542 104.77C415.391 104.871 415.223 104.921 415.056 104.955L412.608 105.24L406.891 105.776C406.622 105.81 406.371 105.927 406.17 106.128L404.577 107.771C404.46 107.889 404.325 107.972 404.175 108.039L400.218 109.599C400.067 109.666 399.882 109.683 399.715 109.683L386.185 108.777C385.95 108.777 385.715 108.677 385.531 108.526L381.339 105.055C380.937 104.737 380.367 104.703 379.948 105.005L378.757 105.826C378.556 105.96 378.338 106.044 378.104 106.044H368.463L368.866 103.915H372.152C372.319 103.915 372.487 103.882 372.621 103.814L375.404 102.523C375.404 102.523 375.488 102.49 375.538 102.456L379.244 100.143L375.639 99.7236L376.276 97.5273L374.952 97.5943C374.281 97.6446 373.744 97.1081 373.744 96.4542V96.3369C373.828 95.5824 373.191 94.9621 372.437 95.0794L362.746 96.5716L363.182 95.0627C363.299 94.6435 363.651 94.325 364.071 94.2579L374.868 92.3466L375.488 90.7539L378.154 89.5635C379.21 89.094 378.992 87.518 377.852 87.3839C375.019 87.0821 372.034 87.3839 368.664 89.2114C368.497 89.2952 368.312 89.3455 368.128 89.3455H362.746V87.6019L364.959 87.4845C365.261 87.4677 365.529 87.3336 365.73 87.1157L367.156 85.6067C367.524 85.2044 368.111 85.1205 368.564 85.3888L369.955 86.2103C370.274 86.3947 370.643 86.4283 370.978 86.2774L372.655 85.5564L371.263 84.9026C370.509 84.5505 370.375 83.5445 371.012 82.9913L374.08 80.3758L375.354 81.935C375.438 82.0356 375.555 82.1362 375.673 82.2033L378.322 83.6787L379.898 83.3601L378.472 81.7841L380.216 80.8452L380.367 79.1183L378.003 80.2081L377.064 78.0118L380.518 76.9556C380.904 76.8214 381.339 76.922 381.641 77.207L387.442 82.7565C387.945 83.2428 387.895 84.0643 387.358 84.4834L386.721 84.9864C386.386 85.2379 386.235 85.657 386.302 86.0762L386.587 87.7863C386.738 88.7252 387.928 89.0605 388.566 88.3563L391.064 85.5564L392.64 86.9815L394.417 84.1649C394.484 84.0475 394.534 83.9134 394.568 83.7793L394.987 81.6165C395.087 81.08 395.557 80.6776 396.11 80.6776H397.519L397.2 82.1027L400.503 83.9804L401.173 81.868C401.257 81.6165 401.425 81.3985 401.643 81.2476L404.828 79.2357C405.248 78.9675 405.784 79.0178 406.17 79.3195L409.322 81.935L409.238 80.3758C409.188 79.6884 409.741 79.1351 410.428 79.1686L412.557 79.2525C412.809 79.2692 413.044 79.3531 413.228 79.504L414.636 80.644C415.106 81.0297 415.777 80.9794 416.179 80.5434L417.805 78.8333C418.174 78.4477 418.778 78.3639 419.23 78.6489L421.058 79.789C421.477 80.0405 421.997 80.0069 422.382 79.6884L423.522 78.7663C423.791 78.5483 423.941 78.2298 423.941 77.8944L423.975 76.2179C423.975 75.564 424.562 75.0442 425.216 75.1113L428.519 75.3963C429.038 75.4466 429.474 75.849 429.541 76.3687L429.625 76.9053C429.709 77.5256 430.262 77.9447 430.883 77.8777L432.962 77.643C433.23 77.6094 433.481 77.4921 433.666 77.2909L434.621 76.3017L438.394 75.9999V77.3076L435.527 77.6597C435.242 77.6932 434.99 77.8274 434.806 78.0453L433.666 79.3698L435.158 79.8896C435.745 80.0908 436.063 80.7111 435.879 81.2979L435.443 82.723L437.975 82.8404L438.042 84.3158L441.227 84.8355C441.747 84.9193 442.149 85.3385 442.2 85.8582L442.518 89.312Z" fill="#492BFF" fill-opacity="0.1" stroke="#492BFF" stroke-opacity="0.1" stroke-width="0.419147" stroke-miterlimit="10"/>
<path d="M999.782 499.992C999.782 730.506 843.725 924.554 631.52 982.279V973.661L667.617 954.783V945.344L673.116 943.617L672.647 930.07C660.122 926.549 655.679 919.725 654.707 911.51C658.764 910.806 661.715 907.587 663.677 902.071H666.51L666.98 898.768H664.632C668.287 898.282 671.909 892.565 675.48 883.964L673.284 878.783H667.935L666.98 875.162L663.358 874.223L661.631 876.738L638.511 883.193C634.739 862.085 603.42 865.723 550.541 888.692C534.362 881.449 512.935 883.377 487.753 891.844L422.466 862.252L420.89 855.814L414.586 845.738V844.313L400.587 833.297L398.223 835.98L397.133 832.04H393.663L392.405 829.207L395.389 827.329L384.542 824.495L376.193 817.655L374.617 808.752H379.194C375.086 802.532 371.163 796.111 364.322 793.261C369.469 792.389 373.694 790.427 374.617 784.526C373.208 775.321 387.375 762.11 373.443 743.935L366.133 722.928L365.412 726.935L362.579 725.04L368.48 708.995L372.035 706.866C372.94 693.504 379.747 683.444 391.617 676.185C391.617 669.009 394.098 662.789 397.988 657.071L407.193 654.003C410.11 647.398 412.994 640.708 416.632 636.533C432.71 639.082 470.215 607.579 457.306 599.716C455.998 589.74 458.898 580.099 465.806 570.761L480.292 558.17C495.716 554.867 506.279 543.432 511.443 522.928L517.579 520.832C521.754 532.971 532.216 536.156 550.625 528.041L551.563 532.87L565.848 532.635C574.818 522.945 582.714 518.2 588.75 522.022C595.406 509.498 617.755 503.848 655.462 504.955C659.837 504.687 664.683 502.239 669.78 498.651C673.837 500.914 677.224 501.099 679.37 497.544L687.25 500.864C691.408 501.317 699.355 497.293 709.28 490.939L709.9 495.029L712.583 492.682L716.037 500.545L724.067 494.879L725.643 498.181C716.506 507.621 715.181 514.126 724.218 516.741L725.962 523.515C724.067 533.121 704.552 543.5 722.022 545.545L722.81 541.605L725.962 542.242V547.59L730.053 552.62H736.34C738.168 557.18 741.957 558.823 750.809 552.939C752.15 556.577 755.336 557.7 761.204 555.152C765.144 558.052 769.168 560.265 773.795 558.287C773.678 567.106 775.74 574.6 792.992 572.773C811.233 590.712 827.295 578.44 819.415 558.924C821.175 550.726 827.345 544.841 837.354 540.985C846.794 541.169 850.683 543.935 849.946 548.848C853.751 550.089 858.513 550.038 863.643 549.485L865.052 554.666C871.02 550.105 881.029 551.983 892.43 556.091C904.518 542.728 913.907 537.715 918.719 546.953C930.086 546.953 933.825 513.254 932.4 468.053L929.885 472.932L925.71 470.887C924.487 477.995 921.167 482.673 914.628 483.629C911.007 478.951 907.084 474.776 900.377 475.212L900.729 483.947L898.248 483.83L895.549 487.367C892.581 483.193 889.446 479.387 884.567 478.984L878.548 477.693L878.397 474.223L874.457 468.891L875.865 464.784L867.684 462.269L865.018 464.465L863.911 456.921L867.214 459.117L869.26 460.844L868.153 455.495L870.836 459.586L873.988 458.329L870.366 455.814L871.775 452.511C869.796 450.047 869.042 446.928 869.427 443.223L864.85 446.056C861.732 439.082 864.347 434.119 869.427 430.011L873.284 431.889L873.753 427.647C875.933 430.162 879.068 431.118 883.427 430.011L881.063 427.413L884.835 424.345L887.199 423.875L881.532 420.337V417.269L896.169 417.739L898.533 411.368L902.54 406.17L907.033 402.163L913.404 402.398L918.115 404.997L921.184 404.51L924.486 409.943L925.912 407.344L935.116 413.011L939.123 408.769L942.912 410.898C942.912 410.898 944.153 406.539 944.79 406.17C951.865 394.602 933.104 373.862 919.306 364.624L913.639 358.488L911.744 360.852L907.503 359.679L907.268 364.155L904.669 364.39C899.254 385.666 901.366 354.481 889.563 358.019L895.465 348.814L892.162 347.641L887.434 348.814L880.359 345.981L886.26 341.253L876.352 341.974C876.218 348.982 874.658 353.492 871.859 355.889C875.061 363.82 873.988 367.743 870.45 369.352L872.328 388.231L869.494 388.935L869.26 396.966L871.624 398.86L867.382 401.677L873.284 409.943C874.306 413.681 875.899 416.632 879.168 417.269L878.229 421.276L875.396 421.042L875.329 422.383L871.708 422.534C871.875 428.754 868.304 430.833 861.397 429.223C860.139 426.977 856.618 426.055 852.544 425.451L851.438 431.822L848.604 425.686L846.089 429.609C846.089 429.609 844.212 429.777 843.725 429.928C843.256 430.095 844.362 434.186 844.362 434.186L850.348 438.897L843.893 435.913L843.725 441.882L835.862 433.398C831.05 439.719 844.245 455.63 861.598 473.754L850.499 466.192L850.734 473.049L845.301 468.891L842.703 471.155L847.431 476.117L845.067 478.951L841.06 476.117L846.022 492.162L841.529 487.686L840.59 492.397L835.393 484.853L834.689 488.859C834.689 488.859 829.961 484.132 830.195 483.427C830.43 482.723 831.151 477.995 831.151 477.995L827.597 475.648L825.484 472.58L829.491 466.444L824.763 467.382L821.46 459.117L816.045 453.215L808.014 447.079L811.317 444.95L805.885 440.473L804.946 418.057L799.983 416.632L769.302 393.495L764.591 395.155L761.036 388.784L757.499 386.89L755.621 383.821L760.097 384.056L749.25 373.443L744.052 366.603L741.454 376.042L735.552 365.413L737.916 362.11C734.814 360.047 731.495 360.433 727.756 365.882H722.106L727.286 373.678L725.174 377.216C723.799 385.448 729.617 391.718 742.392 396.094C748.814 410.446 756.543 422.232 771.9 419.231C764.104 424.613 788.264 432.677 796.295 440.708L796.06 448.974L791.097 442.837L782.128 439.769C782.128 439.769 778.59 448.974 778.825 450.147C779.059 451.338 785.196 454.154 785.196 454.154L787.794 461.716C782.865 461.732 780.317 464.147 781.658 470.451L776.461 478.951L771.263 475.648L774.097 471.155C772.621 468.455 773.644 466.226 777.651 464.549L770.09 447.079L764.188 447.314L761.355 444.246V440.004L755.923 438.109L754.045 440.943L750.021 436.466L748.378 429.14L740.816 431.504L737.748 427.966L734.68 428.201L725.006 418.292C722.709 415.542 720.228 413.531 717.227 413.564C715.215 409.205 712.767 405.919 709.196 405.298C708.022 399.749 706.245 394.317 702.825 389.254L687.082 383.436L679.219 393.194C673.066 394.568 667.969 398.156 663.962 404.041C657.825 407.495 645.318 402.834 633.113 398.542C622.55 404.527 620.354 411.535 625.87 419.466L625.92 425.518L611.049 434.924C604.745 436.198 598.34 437.355 595.943 442.787L598.458 444.044L592.791 447.196C583.737 462.219 577.601 469.763 589.957 475.531C581.172 482.438 574.784 489.161 579.898 495.029C572.353 493.806 565.63 497.544 560.064 508.258C545.528 505.474 530.64 506.43 514.746 518.317C507.369 518.619 504.15 514.595 504.368 507C502.037 502.255 497.225 499.757 483.595 505.106C477.743 502.071 472.496 501.048 468.489 504.167C471.59 497.913 472.261 489.48 471.322 479.622L465.974 481.181L465.018 477.727L460.625 476.47L465.337 463.878C469.092 460.844 471.741 457.172 471.624 451.924C474.306 446.308 474.608 439.635 472.261 431.772C474.357 424.579 472.579 416.465 465.974 407.227L473.518 402.515C476.737 404.846 479.185 403.035 481.08 398.106L490.2 397.167L492.095 401.56C501.92 397.184 514.578 397.335 530.17 402.197L548.11 401.258C564.49 410.814 570.341 398.089 567.625 367.257L553.777 347.758L551.245 341.253L523.564 330.12L521.67 320.061L540.548 314.394L546.332 319.943L550.34 318.049L562.864 318.87L559.192 314.981L558.957 308.727L554.598 302.356L562.377 302.473L563.803 305.894C570.224 308.157 576.427 308.928 582.094 306.011L578.322 304.485L579.965 300.814C585.9 300.26 590.578 297.511 594.249 293.034L592.841 283.042L600.62 280.913L612.658 275.967L621.863 276.201L615.961 268.17L621.863 259.435L624.227 247.632L643.189 244.732L647.431 247.079L646.492 242.368L656.166 241.177L657.591 244.732L659.703 243.072L660.005 244.547C659.67 242.67 659.016 238.394 659.938 238.596C661.128 238.83 666.074 238.344 666.074 238.344L657.825 232.208L660.173 229.861L662.302 229.626L656.635 223.489L653.802 226.323L652.393 221.36L655.462 218.292L648.621 213.799L646.022 199.179L649.795 199.883L651.689 197.05L648.135 197.284L645.788 194.451L650.029 191.618L655.663 192.137L659.435 185.599L664.146 184.576C665.521 188.667 665.605 192.389 664.549 195.826L667.617 201.258L672.412 201.107L672.261 205.198L667.935 205.433L667.382 211.25L664.398 215.962C665.538 217.722 665.672 219.566 664.632 221.478C670.232 223.255 671.423 226.273 669.981 230.045L682.807 232.61L681.734 237.254L687.635 237.087L695.783 231.118C699.17 230.548 702.054 232.543 704.753 235.41C707.302 235.058 709.347 237.59 711.242 240.825L729.65 232.811C738.151 224.345 745.41 223.557 751.01 233.046C754.246 234.253 756.493 231.805 757.431 224.546L764.658 226.44L753.022 198.424L755.218 188.667L759.628 187.728L764.658 193.076L772.219 199.062L775.371 194.954L769.386 186.152L768.748 181.742L764.356 180.804L758.991 175.757L756.157 169.151L764.976 165.379L781.34 169.47L780.082 165.06H783.553L790.46 164.44L779.462 158.455L775.991 153.425C767.726 153.911 759.812 155.001 753.81 159.377C752.62 158.488 750.34 159.025 746.718 161.288L742.325 158.455L731.31 151.849L726.582 141.773L720.597 134.228L716.506 127.304L713.991 120.698L707.704 117.227L716.825 119.742L714.947 115.651L718.082 109.683L716.506 101.803L721.553 103.697C718.669 98.6173 714.075 94.9288 707.704 92.6822L697.309 91.1062L698.567 94.8785L695.431 96.7731L698.567 98.3491L697.007 101.803L703.613 105.592L702.657 108.727L703.613 112.198L698.265 116.607L694.476 119.441L695.113 122.257L692.279 122.576L694.174 125.728L690.385 126.985L693.537 129.5L695.75 138.637L703.412 148.362C710.286 150.223 715.869 154.012 720.06 159.964L716.037 165.245L721.787 169.168L712.03 174.533L721.318 192.305L721.938 207.562L717.378 200.805L717.227 207.411C717.227 207.411 707.151 206.154 707.151 206.623C707.151 207.092 707 209.456 707 209.456L704.166 210.395L707.302 216.699L694.727 217.806L693.453 212.29L686.529 204.259L690.636 205.366L688.105 201.912L689.681 200.956C675.363 187.007 664.398 174.449 662.939 165.865C658.748 165.748 656.149 162.344 654.59 156.745C656.518 163.92 656.903 169.403 649.878 166.653C640.59 196.245 596.814 165.915 620.521 165.681C615.257 165.094 615.408 162.445 619.331 158.371C618.811 158.723 610.143 164.708 610.143 164.138C610.143 163.568 607.897 155.403 607.897 155.403L612.155 150.34L603.186 146.786L607.193 143.952L599.95 137.749C600.822 134.63 601.056 131.344 598.776 127.354L603.839 121.452L608.098 122.525L606.555 119.223L609.624 118.988C610.026 115.718 611.233 113.036 618.359 114.377L615.005 110.756L618.308 109.23C618.308 109.23 619.784 104.737 620.371 105.273C620.957 105.81 626.272 110.052 626.272 110.052L627.68 106.447C628.183 102.624 631.62 99.4053 636.298 96.4377L628.904 95.8174L632.995 93.9229L639.92 92.3469C639.92 92.3469 635.359 91.0894 635.359 90.3014C635.359 89.5134 636.147 86.8477 636.147 86.8477L632.056 85.2717L632.677 82.9077L635.98 84.0142L637.874 84.9531L639.601 83.5448L641.965 82.5891L635.208 80.7114L633.465 77.5594L636.768 75.8325L637.723 73.3009L641.026 73.7871L643.072 70.4842L637.086 67.6508L637.254 66.2257L639.45 64.4988L635.208 63.3922L628.435 64.1802L625.132 66.5442L624.344 64.0293L628.284 62.2857L632.526 60.5588L628.586 59.6199L627.01 57.893L628.586 56.7865L632.056 55.529L633.163 53.953L635.829 57.7254L637.723 58.9828L641.814 56.317L639.132 54.2716L641.026 51.7567L644.949 51.5891L647.632 53.6345L651.874 50.1807L653.617 51.2873L650.465 54.4225L653.131 54.1039L658.178 49.7113L656.752 47.4982L663.358 44.1953L663.677 45.9222L663.526 47.4982L666.041 48.9233L669.193 48.4538L671.238 47.3473L672.328 49.8622L675.48 49.2418L681.616 52.0585L688.708 54.741L689.966 53.3327L690.754 54.741L692.799 55.9985L698.298 57.7254L701.601 56.4679L706.631 61.9839C731.83 69.3609 752.787 82.5891 771.146 99.4221C773.124 102.473 750.088 94.3923 738.184 89.1614C745.36 93.2187 755.57 99.1203 755.57 99.1203C763.383 110.119 773.007 119.34 787.526 123.816L772.571 108.392L788.297 117.529L788.935 115.802L777.282 105.877L776.98 100.21L774.147 97.6952L786.571 105.726L779.814 98.8017L784.693 99.7406L776.025 90.1505L794.3 96.0186H794.333C918.87 186.94 999.782 334.01 999.782 499.992Z" fill="#492BFF" fill-opacity="0.1" stroke="#492BFF" stroke-opacity="0.1" stroke-width="0.419147" stroke-miterlimit="10"/>
<path d="M449.124 6.35407L438.277 8.24861L440.155 12.9598L434.974 13.9155L436.231 16.2292L425.015 18.5931L430.564 19.18L429.626 20.5883L413.799 22.7176L417.588 24.7295L413.094 30.279L404.594 26.9593L401.174 29.3233L411.217 31.1005L412.273 34.1686L407.428 42.3168L402.599 41.2438L398.223 42.9037L394.216 40.4223L397.049 37.1194L389.723 34.8728L389.019 40.0702L378.523 44.8988L395.742 44.7814C371.783 59.8707 350.742 65.9567 332.3 64.0622C323.783 72.4619 312.7 79.6712 299.875 86.0925L297.125 84.6004C292.732 91.3905 286.915 94.4252 279.89 94.1569L288.39 86.847L285.087 86.0087C281.734 92.8827 276.352 97.1077 266.913 96.1688C266.276 101.953 261.782 102.624 256.686 102.49L257.993 104.032L255.864 109.699L250.784 110.872L251.019 113.706C245.184 120.278 239.4 124.889 233.716 125.358C227.345 130.036 222.936 134.814 223.322 139.827C215.123 149.568 207.796 156.727 203.655 154.581V161.187L197.519 165.445L192.808 160.013L198.223 156.945L192.808 154.581L198.223 148.914L182.882 157.18V147.506L190.913 140.883L187.61 136.172L196.111 130.036L193.277 125.308L199.883 120.597H205.55V112.566L208.853 105.491H217.353L226.792 92.3965V86.6123L232.459 83.2926L241.429 80.9454L246.123 69.3937L261.246 67.2477L267.852 60.6419L275.698 53.2482C330.791 25.5342 391.668 7.7121 456.082 2.1123L449.124 6.35407Z" fill="#492BFF" fill-opacity="0.1" stroke="#492BFF" stroke-opacity="0.1" stroke-width="0.419147" stroke-miterlimit="10"/>
<path d="M581.776 274.675L592.17 278.933H587.442L580.837 284.114L575.17 287.668L569.972 283.644L561.958 278.933L556.761 282.706L565.731 284.6L561.489 289.311L548.261 286.478H538.352L532.685 294.039C527.018 290.099 521.351 290.887 515.684 296.403H510.034C516.204 292.782 521.217 288.322 523.598 281.951L526.901 281.247L527.136 277.709C527.136 277.709 539.643 279.118 540.364 278.648C541.068 278.179 548.378 268.74 548.378 268.74L543.181 272.981C543.181 272.981 534.932 276.05 533.976 275.345C533.037 274.641 530.438 272.981 530.438 272.981L527.37 272.277L524.772 269.209L517.696 272.043L514.159 267.566C518.535 267.03 523.33 263.257 528.326 258.127L526.901 252.695L521.469 253.164L527.605 247.497L538 246.324L542.946 246.558L538.469 243.49V240.422L539.878 237.119V232.727L536.575 234.286L530.673 226.255L538 222.013L526.666 224.36L524.772 222.248L522.894 224.36L518.401 223.187L516.523 226.02L514.31 222.164L519.742 213.898L518.166 212.641L517.059 207.611L521.083 207.846L517.847 200.838C517.847 200.838 512.348 205.951 512.264 206.186C512.197 206.421 512.432 213.278 512.432 213.278L508.576 216.497L509.666 205.566L504.166 212.322L499.204 209.573L509.045 204.543L513.606 195.406L509.129 199.262L505.189 202.649L501.249 202.095L502.674 197.619L507.318 192.421L505.038 191.399L500.545 188.331L497.158 184.709L501.568 182.597L502.993 183.686V187.073L506.832 188.247L506.296 185.262L510.152 184.558L507.235 183.77L508.257 179.763L513.287 179.83L510.688 176.293L514.075 175.27L514.243 169.603C520.932 170.894 527.404 170.827 533.59 169.05L533.037 173.929C528.762 175.723 526.213 179.025 524.269 182.865C556.476 178.858 550.943 187.71 534.345 200.335L537.799 199.547L539.995 203.638L527.722 204.744C546.064 207.326 557.968 213.077 555.822 225.752C561.338 227.227 566.301 229.759 570.442 233.766L568.329 235.661L571.867 241.797C576.561 245.234 578.64 248.839 573.996 252.879C593.16 250.733 597.569 256.383 586.034 270.433L581.776 274.675Z" fill="#492BFF" fill-opacity="0.1" stroke="#492BFF" stroke-opacity="0.1" stroke-width="0.419147" stroke-miterlimit="10"/>
<path d="M506.363 235.543L501.484 236.8L506.531 248.436L505.575 254.27L503.529 255.997L503.228 259.619L501.333 261.195L503.06 263.861L500.076 264.33L495.817 263.71L490.167 264.967L487.803 267.951L484.97 267.331L483.779 269.678L480.409 269.377C475.748 274.322 469.864 276.301 462.788 275.345L466.879 271.103L457.91 273.233L466.879 268.739H455.378L462.788 265.118L455.378 264.498L458.06 262.134H464.515C460.19 260.491 461.313 258.747 466.091 256.936L459.469 257.573C464.432 256.702 466.091 250.8 474.105 248.285L462.621 246.24L460.106 243.255L462.621 241.83L466.242 242.769L463.727 239.785L466.242 238.678L457.742 236.012L462.939 234.755L462.788 232.072L466.393 230.983L471.758 231.922L475.212 230.983L476.939 232.072L477.895 229.407L482.757 227.831L476.319 224.846L479.303 223.27L481.197 218.392L493.001 215.709L495.817 218.073L502.741 217.285L509.045 225.467L512.197 227.512V231.134L506.363 232.726V235.543Z" fill="#492BFF" fill-opacity="0.1" stroke="#492BFF" stroke-opacity="0.1" stroke-width="0.419147" stroke-miterlimit="10"/>
<path d="M116.975 178.908L112.197 191.164L107 198.239L100.394 210.998L94.2575 219.968V227.512L96.152 235.543L94.2575 240.255L82.9238 245.452L78.682 251.588L81.9513 249.425L86.0757 245.301L92.212 242.585L91.3905 245.77L87.9703 249.308L89.0265 250.364L93.0336 245.653L93.6371 251.085L86.1931 266.057L77.6257 274.725L73.1325 276.016L58.7306 290.418L46.5586 289.496C65.1687 249.476 88.9259 212.339 116.975 178.908Z" fill="#492BFF" fill-opacity="0.1" stroke="#492BFF" stroke-opacity="0.1" stroke-width="0.419147" stroke-miterlimit="10"/>
<path d="M83.1088 273.367L82.807 274.725L79.5712 277.257L77.5426 281.214L70.2997 293.805H74.7091L68.7237 299.472L69.9812 305.44L73.7702 301.031L77.5426 302.607L73.1331 308.592L71.4062 314.879L77.5426 311.107L75.3462 314.259L69.6794 319.607L74.072 318.35L69.6794 325.576L74.072 323.698L65.2699 338.804L64.5825 335.2L62.688 335.367L68.204 325.911L67.8854 322.927L57.9768 335.049L56.4008 334.579L64.4149 324.352L60.8102 321.519L57.3397 325.761L52.6285 322.927L47.7496 324.822C47.5317 319.96 51.1363 316.07 56.0822 312.549L52.4608 312.23C56.4343 309.011 59.3013 305.055 60.9611 300.276C67.9022 284.399 75.363 276.804 83.1088 273.367Z" fill="#492BFF" fill-opacity="0.1" stroke="#492BFF" stroke-opacity="0.1" stroke-width="0.419147" stroke-miterlimit="10"/>
<path d="M31.3019 346.534L42.8704 330.489L40.5064 338.805L39.316 342.762L34.3701 346.769V351.245L23.9753 358.806L18.627 365.11C24.9644 342.426 32.8612 320.396 42.1998 299.137L43.0213 304.837L34.6887 318.837L38.1424 316.556L30.8325 332.132L34.3701 329.064L32.0061 335.2L36.0132 336.39L32.0061 341.571L30.5978 338.805L28.8206 343.466L31.3019 346.534Z" fill="#492BFF" fill-opacity="0.1" stroke="#492BFF" stroke-opacity="0.1" stroke-width="0.419147" stroke-miterlimit="10"/>
<path d="M47.7325 306.095L50.0294 301.853L48.8894 296.655V292.648L44.832 296.655L47.7325 306.095Z" fill="#492BFF" fill-opacity="0.1" stroke="#492BFF" stroke-opacity="0.1" stroke-width="0.419147" stroke-miterlimit="10"/>
<path d="M230.598 473.401H234.135L227.178 468.203L225.752 468.891L230.598 473.401Z" fill="#492BFF" fill-opacity="0.1" stroke="#492BFF" stroke-opacity="0.1" stroke-width="0.419147" stroke-miterlimit="10"/>
<path d="M236.03 471.876L238.495 471.389L230.48 465.739V467.734L236.03 471.876Z" fill="#492BFF" fill-opacity="0.1" stroke="#492BFF" stroke-opacity="0.1" stroke-width="0.419147" stroke-miterlimit="10"/>
<path d="M244.044 470.802L246.877 468.89L245.469 467.616H238.494L241.21 469.209L244.044 470.802Z" fill="#492BFF" fill-opacity="0.1" stroke="#492BFF" stroke-opacity="0.1" stroke-width="0.419147" stroke-miterlimit="10"/>
<path d="M263.878 487.099L266.594 484.148L264.347 483.545L259.15 482.254L258.094 483.545L263.878 487.099Z" fill="#492BFF" fill-opacity="0.1" stroke="#492BFF" stroke-opacity="0.1" stroke-width="0.419147" stroke-miterlimit="10"/>
<path d="M264.348 495.935H267.885V498.651H264.817L264.348 495.935Z" fill="#492BFF" fill-opacity="0.1" stroke="#492BFF" stroke-opacity="0.1" stroke-width="0.419147" stroke-miterlimit="10"/>
<path d="M201.911 456.887H204.275V453.232C204.275 453.232 202.263 452.528 201.911 452.88C201.559 453.232 201.911 456.887 201.911 456.887Z" fill="#492BFF" fill-opacity="0.1" stroke="#492BFF" stroke-opacity="0.1" stroke-width="0.419147" stroke-miterlimit="10"/>
<path d="M381.893 639.248L378.355 636.884L376.93 630.044L379.412 630.983L381.893 630.044L385.43 633.582L381.893 639.248Z" fill="#492BFF" fill-opacity="0.1" stroke="#492BFF" stroke-opacity="0.1" stroke-width="0.419147" stroke-miterlimit="10"/>
<path d="M396.043 634.654H400.302L404.309 632.173V626.741L407.847 623.907L410.915 620.37L409.506 618.006L403.488 621.309L401.71 623.673V626.322L396.043 634.654Z" fill="#492BFF" fill-opacity="0.1" stroke="#492BFF" stroke-opacity="0.1" stroke-width="0.419147" stroke-miterlimit="10"/>
<path d="M358.521 565.379L360.181 563.015L364.188 564.188L367.257 565.379L361.12 567.977L358.521 565.379Z" fill="#492BFF" fill-opacity="0.1" stroke="#492BFF" stroke-opacity="0.1" stroke-width="0.419147" stroke-miterlimit="10"/>
<path d="M352.62 626.322L353.793 622.969L351.211 621.544L352.62 626.322Z" fill="#492BFF" fill-opacity="0.1" stroke="#492BFF" stroke-opacity="0.1" stroke-width="0.419147" stroke-miterlimit="10"/>
<path d="M367.256 633.817L362.88 628.166H367.256L373.627 623.941L374.566 626.322L373.393 628.887L370.559 632.408L370.09 635.946L367.256 633.817Z" fill="#492BFF" fill-opacity="0.1" stroke="#492BFF" stroke-opacity="0.1" stroke-width="0.419147" stroke-miterlimit="10"/>
<path d="M358.521 634.655H360.885V631.234L358.521 629.943V634.655Z" fill="#492BFF" fill-opacity="0.1" stroke="#492BFF" stroke-opacity="0.1" stroke-width="0.419147" stroke-miterlimit="10"/>
<path d="M350.256 639.249L352.503 634.655H348.378L346.014 636.952L350.256 639.249Z" fill="#492BFF" fill-opacity="0.1" stroke="#492BFF" stroke-opacity="0.1" stroke-width="0.419147" stroke-miterlimit="10"/>
<path d="M689.748 465.773L697.929 470.182V463.895H705.172V443.759L700.444 434.639L697.46 429.29L700.763 417.018L699.505 407.579L697.46 402.851L694.476 404.745L695.113 410.731C687.669 413.195 688.44 420.371 694.476 430.565L697.46 433.079L692.598 438.109L685.992 438.428V442.519L691.022 450.382L689.446 453.215L692.279 456.669L689.765 465.79L689.748 465.773Z" fill="#492BFF" fill-opacity="0.1" stroke="#492BFF" stroke-opacity="0.1" stroke-width="0.419147" stroke-miterlimit="10"/>
<path d="M770.006 478.363L768.111 485.606L770.006 490.636L769.067 494.727L766.233 498.181L755.537 492.195L747.355 490.301L737.597 484.013L739.793 477.089H747.657L752.066 478.984L759.309 478.347C759.309 478.347 762.142 473.619 763.081 473.937C764.02 474.256 766.854 475.832 766.854 475.832L770.006 472.378V478.363Z" fill="#492BFF" fill-opacity="0.1" stroke="#492BFF" stroke-opacity="0.1" stroke-width="0.419147" stroke-miterlimit="10"/>
</g>
<defs>
<clipPath id="clip0_236_5">
<rect width="1000" height="1000" fill="white"/>
</clipPath>
</defs>
</svg>
