<svg width="763" height="763" viewBox="0 0 763 763" fill="none" xmlns="http://www.w3.org/2000/svg">
<g clip-path="url(#clip0_38_2865)">
<path d="M381.494 762.834C592.103 762.834 762.835 592.102 762.835 381.494C762.835 170.886 592.103 0.153809 381.494 0.153809C170.886 0.153809 0.154297 170.886 0.154297 381.494C0.154297 592.102 170.886 762.834 381.494 762.834Z" stroke="black" stroke-width="1.46341" stroke-miterlimit="10"/>
<path d="M34.7207 540.324C195.904 659.6 646.489 644.466 739.081 514.278" stroke="black" stroke-width="1.46341" stroke-miterlimit="10"/>
<path d="M5.72852 446.735C140.803 558.028 710.242 533.173 760.784 421.303" stroke="black" stroke-width="1.46341" stroke-miterlimit="10"/>
<path d="M1.30371 351.725C112.7 421.302 713.48 413.23 760.773 341.721" stroke="black" stroke-width="1.46341" stroke-miterlimit="10"/>
<path d="M17.6143 259.8C111.408 284.323 672.621 289.427 741.636 255.834" stroke="black" stroke-width="1.46341" stroke-miterlimit="10"/>
<path d="M57.4375 180.41C275.419 167.183 491.61 166.198 705.562 180.41" stroke="black" stroke-width="1.46341" stroke-miterlimit="10"/>
<path d="M116.651 107.136C211.021 75.027 634.601 86.6296 656.246 117.063" stroke="black" stroke-width="1.46341" stroke-miterlimit="10"/>
<path d="M199.868 46.116C310.458 25.5715 436.54 27.8485 580.121 55.9149" stroke="black" stroke-width="1.46341" stroke-miterlimit="10"/>
<path d="M91.5674 629.204C243.451 724.801 565.895 715.373 690.748 604.668" stroke="black" stroke-width="1.46341" stroke-miterlimit="10"/>
<path d="M194.339 713.813C259.529 737.031 490.533 772.901 623.164 676.472" stroke="black" stroke-width="1.46341" stroke-miterlimit="10"/>
<path d="M376.211 0.191895C385.396 67.9274 381.136 473.573 381.507 762.834" stroke="black" stroke-width="1.46341" stroke-miterlimit="10"/>
<path d="M312.797 756.655C225.259 666.328 266.924 36.6628 348.565 1.56055" stroke="black" stroke-width="1.46341" stroke-miterlimit="10"/>
<path d="M240.252 735.816C106.751 614.455 143.132 102.518 311.582 6.56226" stroke="black" stroke-width="1.46341" stroke-miterlimit="10"/>
<path d="M268.728 17.103C67.8626 133.015 15.5163 524.896 159.11 694.816" stroke="black" stroke-width="1.46341" stroke-miterlimit="10"/>
<path d="M65.5858 595.151C-5.50134 477.948 0.152865 189.442 210.613 37.0847" stroke="black" stroke-width="1.46341" stroke-miterlimit="10"/>
<path d="M439.725 758.42C541.334 675.308 504.876 41.7667 401.872 0.69043" stroke="black" stroke-width="1.46341" stroke-miterlimit="10"/>
<path d="M500.001 744.054C666.301 653.714 621.873 63.0145 425.907 2.72412" stroke="black" stroke-width="1.46341" stroke-miterlimit="10"/>
<path d="M462.481 8.7749C692.948 85.8232 799.56 649.736 500.001 744.054" stroke="black" stroke-width="1.46341" stroke-miterlimit="10"/>
<path d="M623.166 676.485C804.651 524.409 754.058 86.0792 462.481 8.78784" stroke="black" stroke-width="1.46341" stroke-miterlimit="10"/>
<path d="M337.64 68.145C337.666 68.4648 337.525 68.7718 337.257 68.9509L336.464 69.4754C336.374 69.5266 336.31 69.6033 336.246 69.6801L335.133 71.1768C334.98 71.3815 334.749 71.5094 334.506 71.535L332.882 71.6757C332.549 71.7013 332.255 71.9315 332.14 72.2386L331.602 73.7225C331.526 73.9399 331.359 74.119 331.142 74.2086L327.675 75.7692C327.675 75.7692 327.624 75.7948 327.586 75.8076L319.283 78.5452C319.283 78.5452 319.155 78.5964 319.092 78.6347L317.058 79.9396C316.942 80.0163 316.814 80.0547 316.687 80.0803L314.819 80.2977L310.457 80.7071C310.252 80.7327 310.06 80.8222 309.907 80.9757L308.691 82.2294C308.602 82.3189 308.499 82.3829 308.384 82.4341L305.365 83.6238C305.25 83.6749 305.109 83.6877 304.982 83.6877L294.658 82.9969C294.479 82.9969 294.3 82.9202 294.159 82.805L290.961 80.157C290.654 79.914 290.219 79.8884 289.899 80.1186L288.991 80.7455C288.838 80.8478 288.671 80.9118 288.492 80.9118H281.137L281.444 79.2871H283.951C284.079 79.2871 284.207 79.2616 284.309 79.2104L286.433 78.2254C286.433 78.2254 286.497 78.1998 286.535 78.1742L289.362 76.4089L286.612 76.0891L287.098 74.4132L286.087 74.4644C285.576 74.5028 285.166 74.0934 285.166 73.5945V73.505C285.23 72.9293 284.744 72.456 284.168 72.5456L276.774 73.6841L277.107 72.5328C277.197 72.213 277.465 71.9699 277.785 71.9187L286.023 70.4604L286.497 69.2451L288.531 68.3369C289.337 67.9787 289.17 66.7762 288.3 66.6739C286.138 66.4436 283.861 66.6739 281.29 68.0682C281.162 68.1322 281.021 68.1706 280.881 68.1706H276.774V66.8402L278.463 66.7506C278.693 66.7378 278.898 66.6355 279.051 66.4692L280.139 65.3179C280.42 65.0109 280.868 64.9469 281.213 65.1516L282.275 65.7784C282.518 65.9191 282.8 65.9447 283.055 65.8296L284.335 65.2795L283.273 64.7806C282.697 64.512 282.595 63.7444 283.081 63.3223L285.422 61.3267L286.394 62.5164C286.458 62.5931 286.548 62.6699 286.637 62.721L288.659 63.8468L289.861 63.6037L288.774 62.4012L290.104 61.6849L290.219 60.3672L288.415 61.1987L287.699 59.5229L290.334 58.717C290.629 58.6147 290.961 58.6914 291.191 58.9089L295.618 63.1432C296.001 63.5142 295.963 64.141 295.554 64.4608L295.067 64.8446C294.812 65.0365 294.697 65.3563 294.748 65.6761L294.965 66.9809C295.08 67.6973 295.989 67.9531 296.475 67.4158L298.381 65.2795L299.583 66.3669L300.939 64.2177C300.99 64.1282 301.029 64.0259 301.054 63.9235L301.374 62.2733C301.451 61.864 301.809 61.5569 302.231 61.5569H303.306L303.063 62.6443L305.583 64.077L306.094 62.4652C306.158 62.2733 306.286 62.107 306.453 61.9919L308.883 60.4568C309.203 60.2521 309.612 60.2905 309.907 60.5208L312.312 62.5164L312.248 61.3267C312.209 60.8022 312.631 60.38 313.156 60.4056L314.781 60.4696C314.972 60.4824 315.151 60.5463 315.292 60.6615L316.367 61.5313C316.725 61.8256 317.237 61.7872 317.544 61.4546L318.785 60.1498C319.066 59.8556 319.526 59.7916 319.872 60.0091L321.266 60.8789C321.586 61.0708 321.983 61.0452 322.277 60.8022L323.147 60.0986C323.351 59.9323 323.467 59.6893 323.467 59.4334L323.492 58.1542C323.492 57.6553 323.94 57.2587 324.439 57.3099L326.959 57.5273C327.355 57.5657 327.688 57.8727 327.739 58.2693L327.803 58.6787C327.867 59.152 328.289 59.4718 328.763 59.4206L330.349 59.2415C330.553 59.2159 330.745 59.1264 330.886 58.9729L331.615 58.2181L334.494 57.9879V58.9857L332.306 59.2543C332.089 59.2799 331.897 59.3822 331.756 59.5485L330.886 60.5591L332.025 60.9557C332.472 61.1092 332.715 61.5825 332.575 62.0303L332.242 63.1176L334.174 63.2071L334.225 64.3329L336.655 64.7294C337.052 64.7934 337.359 65.1132 337.397 65.5098L337.64 68.145Z" fill="#CC5500" fill-opacity="0.1" stroke="black" stroke-width="1.46341" stroke-miterlimit="10"/>
<path d="M762.834 381.493C762.834 557.375 643.762 705.434 481.85 749.478V742.903L509.392 728.499V721.297L513.587 719.979L513.229 709.643C503.673 706.957 500.283 701.75 499.541 695.482C502.637 694.944 504.889 692.488 506.385 688.28H508.547L508.905 685.76H507.115C509.903 685.389 512.666 681.026 515.391 674.464L513.715 670.511H509.635L508.905 667.748L506.142 667.032L504.825 668.95L487.184 673.876C484.306 657.77 460.41 660.546 420.063 678.071C407.718 672.545 391.369 674.016 372.155 680.476L322.342 657.898L321.139 652.986L316.329 645.297V644.21L305.648 635.805L303.844 637.852L303.013 634.846H300.364L299.405 632.684L301.682 631.251L293.405 629.089L287.035 623.87L285.832 617.077H289.325C286.191 612.331 283.197 607.432 277.978 605.257C281.905 604.592 285.129 603.095 285.832 598.592C284.758 591.569 295.567 581.489 284.937 567.622L279.359 551.593L278.809 554.651L276.647 553.205L281.15 540.963L283.862 539.338C284.553 529.143 289.747 521.467 298.804 515.928C298.804 510.453 300.697 505.707 303.665 501.345L310.688 499.004C312.914 493.964 315.114 488.86 317.89 485.674C330.158 487.619 358.774 463.582 348.924 457.582C347.926 449.971 350.14 442.615 355.41 435.49L366.463 425.883C378.232 423.363 386.291 414.638 390.231 398.993L394.913 397.394C398.098 406.656 406.081 409.087 420.127 402.895L420.843 406.579L431.742 406.4C438.586 399.006 444.611 395.386 449.216 398.303C454.295 388.747 471.347 384.436 500.117 385.28C503.456 385.075 507.153 383.208 511.042 380.47C514.138 382.197 516.722 382.338 518.359 379.626L524.371 382.159C527.544 382.504 533.607 379.434 541.181 374.586L541.654 377.707L543.701 375.916L546.336 381.916L552.463 377.592L553.666 380.112C546.694 387.314 545.683 392.277 552.579 394.273L553.909 399.441C552.463 406.771 537.573 414.69 550.903 416.25L551.504 413.244L553.909 413.73V417.811L557.03 421.649H561.827C563.222 425.128 566.113 426.382 572.867 421.892C573.891 424.668 576.321 425.525 580.798 423.58C583.805 425.793 586.875 427.482 590.406 425.972C590.316 432.701 591.889 438.419 605.053 437.025C618.971 450.713 631.226 441.349 625.214 426.459C626.557 420.203 631.264 415.713 638.901 412.771C646.103 412.911 649.071 415.022 648.508 418.77C651.412 419.717 655.045 419.679 658.96 419.256L660.034 423.209C664.588 419.73 672.225 421.163 680.924 424.297C690.147 414.101 697.311 410.276 700.983 417.325C709.656 417.325 712.509 391.612 711.421 357.124L709.502 360.847L706.317 359.286C705.383 364.71 702.85 368.279 697.861 369.008C695.098 365.439 692.105 362.254 686.988 362.586L687.256 369.251L685.363 369.162L683.304 371.861C681.039 368.676 678.647 365.772 674.925 365.465L670.332 364.48L670.217 361.832L667.211 357.764L668.285 354.629L662.043 352.711L660.009 354.386L659.164 348.63L661.685 350.306L663.245 351.623L662.401 347.543L664.448 350.664L666.853 349.704L664.09 347.786L665.164 345.265C663.655 343.385 663.079 341.006 663.373 338.178L659.881 340.34C657.501 335.019 659.497 331.232 663.373 328.098L666.315 329.531L666.674 326.294C668.337 328.213 670.729 328.942 674.055 328.098L672.251 326.115L675.129 323.774L676.933 323.416L672.609 320.717V318.376L683.777 318.734L685.581 313.873L688.638 309.907L692.066 306.85L696.927 307.029L700.522 309.012L702.863 308.641L705.383 312.786L706.471 310.803L713.494 315.127L716.551 311.89L719.442 313.515C719.442 313.515 720.389 310.189 720.875 309.907C726.273 301.081 711.958 285.257 701.43 278.208L697.107 273.526L695.661 275.33L692.425 274.434L692.245 277.85L690.263 278.029C686.131 294.262 687.743 270.469 678.737 273.168L683.24 266.145L680.72 265.249L677.112 266.145L671.714 263.983L676.217 260.375L668.656 260.925C668.554 266.273 667.364 269.714 665.228 271.543C667.671 277.594 666.853 280.587 664.153 281.815L665.586 296.22L663.424 296.757L663.245 302.884L665.049 304.33L661.812 306.479L666.315 312.786C667.096 315.638 668.311 317.89 670.805 318.376L670.089 321.433L667.927 321.254L667.876 322.278L665.113 322.393C665.241 327.139 662.516 328.725 657.246 327.497C656.286 325.783 653.6 325.079 650.491 324.619L649.647 329.48L647.485 324.798L645.566 327.791C645.566 327.791 644.133 327.919 643.762 328.034C643.404 328.162 644.249 331.283 644.249 331.283L648.815 334.878L643.89 332.601L643.762 337.155L637.763 330.682C634.091 335.505 644.159 347.645 657.399 361.473L648.931 355.704L649.11 360.936L644.965 357.764L642.982 359.491L646.59 363.277L644.786 365.439L641.728 363.277L645.515 375.519L642.087 372.104L641.37 375.699L637.405 369.942L636.867 372.999C636.867 372.999 633.26 369.392 633.439 368.855C633.618 368.317 634.168 364.71 634.168 364.71L631.456 362.919L629.844 360.578L632.902 355.896L629.294 356.612L626.774 350.306L622.642 345.803L616.515 341.121L619.035 339.496L614.89 336.081L614.174 318.977L610.387 317.89L586.977 300.236L583.383 301.503L580.671 296.642L577.971 295.196L576.539 292.855L579.954 293.034L571.678 284.937L567.712 279.717L565.729 286.92L561.226 278.809L563.03 276.289C560.663 274.716 558.13 275.01 555.278 279.167H550.967L554.92 285.116L553.308 287.815C552.259 294.096 556.698 298.88 566.445 302.219C571.345 313.169 577.242 322.162 588.96 319.873C583.012 323.979 601.445 330.132 607.573 336.26L607.394 342.566L603.607 337.884L596.763 335.543C596.763 335.543 594.064 342.566 594.243 343.462C594.422 344.37 599.104 346.519 599.104 346.519L601.087 352.288C597.326 352.301 595.382 354.143 596.405 358.953L592.44 365.439L588.474 362.919L590.636 359.491C589.51 357.431 590.29 355.73 593.348 354.45L587.578 341.121L583.076 341.3L580.914 338.959V335.722L576.769 334.277L575.336 336.439L572.266 333.023L571.012 327.433L565.243 329.237L562.902 326.537L560.561 326.717L553.18 319.156C551.427 317.058 549.534 315.523 547.244 315.549C545.709 312.223 543.841 309.716 541.117 309.242C540.221 305.008 538.865 300.863 536.256 297L524.243 292.561L518.244 300.006C513.549 301.055 509.66 303.793 506.603 308.283C501.921 310.918 492.378 307.362 483.065 304.087C475.006 308.654 473.33 314.001 477.539 320.052L477.577 324.67L466.23 331.846C461.42 332.819 456.534 333.701 454.704 337.846L456.623 338.805L452.299 341.21C445.391 352.672 440.709 358.429 450.137 362.829C443.434 368.1 438.56 373.23 442.462 377.707C436.705 376.773 431.576 379.626 427.329 387.8C416.238 385.676 404.878 386.406 392.751 395.475C387.122 395.706 384.666 392.636 384.832 386.841C383.054 383.22 379.383 381.314 368.983 385.395C364.518 383.08 360.514 382.299 357.457 384.679C359.823 379.907 360.335 373.473 359.619 365.951L355.538 367.14L354.809 364.505L351.457 363.546L355.052 353.939C357.917 351.623 359.938 348.822 359.849 344.818C361.896 340.532 362.126 335.441 360.335 329.441C361.934 323.953 360.578 317.762 355.538 310.713L361.294 307.119C363.751 308.897 365.618 307.515 367.064 303.754L374.023 303.038L375.468 306.389C382.965 303.051 392.623 303.166 404.52 306.876L418.208 306.159C430.706 313.451 435.17 303.741 433.098 280.216L422.531 265.339L420.6 260.375L399.48 251.881L398.034 244.206L412.438 239.882L416.852 244.116L419.909 242.671L429.465 243.298L426.663 240.33L426.484 235.558L423.158 230.697L429.094 230.787L430.181 233.396C435.081 235.123 439.814 235.712 444.138 233.486L441.259 232.322L442.513 229.52C447.042 229.098 450.611 227 453.412 223.585L452.338 215.96L458.273 214.336L467.458 210.562L474.481 210.741L469.978 204.614L474.481 197.949L476.285 188.943L490.753 186.73L493.99 188.521L493.273 184.926L500.654 184.018L501.742 186.73L503.354 185.463L503.584 186.589C503.328 185.156 502.829 181.894 503.533 182.048C504.441 182.227 508.215 181.856 508.215 181.856L501.921 177.174L503.712 175.383L505.336 175.204L501.013 170.522L498.851 172.684L497.776 168.897L500.117 166.556L494.898 163.128L492.915 151.973L495.793 152.51L497.239 150.348L494.527 150.527L492.736 148.366L495.972 146.204L500.271 146.6L503.149 141.611L506.744 140.831C507.793 143.952 507.856 146.792 507.051 149.415L509.392 153.559L513.05 153.444L512.935 156.565L509.635 156.745L509.212 161.183L506.935 164.778C507.805 166.121 507.908 167.529 507.115 168.987C511.387 170.343 512.295 172.645 511.195 175.524L520.981 177.481L520.163 181.024L524.666 180.896L530.883 176.342C533.467 175.907 535.667 177.43 537.727 179.617C539.671 179.349 541.232 181.28 542.677 183.749L556.723 177.634C563.209 171.174 568.748 170.573 573.021 177.814C575.49 178.735 577.204 176.867 577.92 171.328L583.434 172.773L574.556 151.397L576.232 143.952L579.596 143.236L583.434 147.317L589.203 151.883L591.608 148.749L587.041 142.033L586.555 138.669L583.203 137.953L579.11 134.102L576.948 129.062L583.677 126.184L596.162 129.305L595.203 125.941H597.851L603.121 125.467L594.729 120.9L592.081 117.063C585.775 117.434 579.737 118.265 575.157 121.604C574.249 120.926 572.509 121.335 569.746 123.062L566.394 120.9L557.99 115.86L554.382 108.172L549.815 102.415L546.694 97.1322L544.775 92.092L539.978 89.444L546.937 91.3628L545.504 88.2415L547.897 83.6874L546.694 77.675L550.545 79.1205C548.344 75.2444 544.839 72.4301 539.978 70.7159L532.047 69.5135L533.006 72.3917L530.614 73.8373L533.006 75.0398L531.817 77.675L536.857 80.5661L536.128 82.9582L536.857 85.6062L532.776 88.9706L529.885 91.1325L530.371 93.2817L528.209 93.5247L529.655 95.9297L526.764 96.8891L529.169 98.808L530.857 105.78L536.703 113.199C541.948 114.619 546.208 117.51 549.406 122.052L546.336 126.081L550.724 129.075L543.279 133.168L550.366 146.728L550.839 158.369L547.359 153.214L547.244 158.254C547.244 158.254 539.556 157.295 539.556 157.653C539.556 158.011 539.441 159.815 539.441 159.815L537.279 160.531L539.671 165.341L530.077 166.185L529.105 161.977L523.821 155.849L526.955 156.693L525.024 154.058L526.226 153.329C515.302 142.686 506.935 133.104 505.823 126.555C502.624 126.465 500.642 123.868 499.452 119.596C500.923 125.071 501.217 129.254 495.857 127.156C488.77 149.734 455.369 126.593 473.458 126.414C469.441 125.966 469.556 123.945 472.55 120.836C472.153 121.105 465.539 125.672 465.539 125.237C465.539 124.802 463.825 118.572 463.825 118.572L467.074 114.709L460.231 111.997L463.288 109.835L457.762 105.102C458.427 102.722 458.606 100.215 456.866 97.1705L460.729 92.6676L463.979 93.4863L462.802 90.9662L465.143 90.7872C465.45 88.2926 466.371 86.2459 471.808 87.2693L469.249 84.5061L471.769 83.342C471.769 83.342 472.895 79.9137 473.343 80.323C473.79 80.7324 477.846 83.9688 477.846 83.9688L478.92 81.2185C479.304 78.3018 481.926 75.8457 485.495 73.5814L479.854 73.1081L482.975 71.6626L488.259 70.4601C488.259 70.4601 484.779 69.5007 484.779 68.8994C484.779 68.2982 485.38 66.2642 485.38 66.2642L482.259 65.0617L482.732 63.258L485.252 64.1023L486.698 64.8187L488.016 63.7441L489.819 63.0149L484.664 61.5822L483.334 59.1772L485.854 57.8596L486.583 55.928L489.103 56.299L490.664 53.7789L486.097 51.617L486.225 50.5296L487.9 49.212L484.664 48.3677L479.496 48.9689L476.976 50.7727L476.375 48.8538L479.381 47.5234L482.617 46.2058L479.611 45.4894L478.409 44.1718L479.611 43.3275L482.259 42.3681L483.103 41.1656L485.137 44.0439L486.583 45.0033L489.704 42.9693L487.657 41.4087L489.103 39.4898L492.096 39.3619L494.143 40.9226L497.38 38.2873L498.71 39.1316L496.305 41.5238L498.339 41.2807L502.189 37.9291L501.102 36.2406L506.142 33.7205L506.385 35.0381L506.27 36.2406L508.189 37.3279L510.594 36.9697L512.155 36.1254L512.986 38.0443L515.391 37.571L520.073 39.7201L525.484 41.7669L526.444 40.6923L527.045 41.7669L528.606 42.7263L532.802 44.0439L535.322 43.0845L539.159 47.2931C558.386 52.9218 574.377 63.0149 588.384 75.8585C589.894 78.1867 572.317 72.0208 563.235 68.0296C568.71 71.1253 576.5 75.6282 576.5 75.6282C582.462 84.02 589.804 91.0558 600.883 94.4713L589.472 82.7024L601.471 89.6742L601.957 88.3566L593.066 80.7835L592.836 76.4597L590.674 74.5409L600.153 80.6684L594.998 75.3852L598.721 76.1015L592.107 68.7843L606.051 73.2616H606.076C701.098 142.635 762.834 254.849 762.834 381.493Z" fill="#CC5500" fill-opacity="0.1" stroke="black" stroke-width="1.46341" stroke-miterlimit="10"/>
<path d="M342.684 4.84828L334.407 6.29382L335.84 9.88847L331.887 10.6176L332.846 12.383L324.288 14.1867L328.522 14.6344L327.806 15.709L315.73 17.3336L318.621 18.8687L315.193 23.103L308.707 20.5701L306.097 22.3738L313.76 23.7298L314.566 26.0708L310.869 32.2879L307.185 31.4692L303.846 32.7356L300.789 30.8423L302.951 28.3223L297.36 26.6081L296.823 30.5737L288.815 34.2579L301.953 34.1684C283.672 45.6815 267.618 50.3251 253.546 48.8796C247.048 55.2885 238.592 60.7892 228.806 65.6887L226.708 64.5502C223.357 69.7311 218.918 72.0465 213.558 71.8418L220.043 66.2644L217.523 65.6248C214.965 70.8696 210.858 74.0933 203.656 73.3769C203.17 77.7903 199.742 78.302 195.853 78.1996L196.851 79.3765L195.226 83.7004L191.35 84.5958L191.529 86.7577C187.077 91.7723 182.664 95.2902 178.327 95.6484C173.466 99.2175 170.102 102.863 170.396 106.688C164.141 114.121 158.55 119.583 155.391 117.945V122.986L150.709 126.235L147.114 122.09L151.246 119.749L147.114 117.945L151.246 113.622L139.541 119.928V112.547L145.669 107.494L143.148 103.899L149.634 99.2175L147.472 95.61L152.512 92.0154H156.836V85.8878L159.356 80.4895H165.842L173.044 70.4986V66.0853L177.368 63.5524L184.212 61.7615L187.794 52.9475L199.332 51.3101L204.373 46.2699L210.359 40.6285C252.395 19.4827 298.844 5.88446 347.992 1.61182L342.684 4.84828Z" fill="#CC5500" fill-opacity="0.1" stroke="black" stroke-width="1.46341" stroke-miterlimit="10"/>
<path d="M443.896 209.577L451.827 212.826H448.22L443.18 216.779L438.856 219.491L434.89 216.421L428.775 212.826L424.81 215.705L431.654 217.15L428.417 220.745L418.324 218.583H410.764L406.44 224.352C402.116 221.346 397.792 221.947 393.469 226.156H389.158C393.865 223.393 397.69 219.99 399.507 215.129L402.027 214.592L402.206 211.893C402.206 211.893 411.749 212.967 412.299 212.609C412.836 212.251 418.414 205.049 418.414 205.049L414.448 208.285C414.448 208.285 408.154 210.626 407.425 210.089C406.709 209.552 404.726 208.285 404.726 208.285L402.385 207.748L400.402 205.407L395.004 207.569L392.304 204.153C395.643 203.744 399.302 200.866 403.114 196.951L402.027 192.806L397.882 193.165L402.564 188.841L410.495 187.945L414.269 188.124L410.853 185.783V183.442L411.928 180.922V177.571L409.408 178.76L404.905 172.633L410.495 169.396L401.848 171.187L400.402 169.575L398.969 171.187L395.541 170.292L394.108 172.454L392.42 169.512L396.564 163.205L395.362 162.245L394.518 158.408L397.588 158.587L395.119 153.24C395.119 153.24 390.923 157.141 390.859 157.32C390.808 157.5 390.987 162.732 390.987 162.732L388.045 165.188L388.876 156.847L384.68 162.002L380.894 159.904L388.403 156.067L391.882 149.095L388.467 152.037L385.461 154.621L382.454 154.199L383.542 150.784L387.085 146.818L385.345 146.038L381.917 143.697L379.333 140.933L382.697 139.322L383.785 140.153V142.737L386.714 143.633L386.305 141.356L389.247 140.818L387.021 140.217L387.802 137.16L391.639 137.211L389.656 134.512L392.24 133.731L392.368 129.408C397.473 130.393 402.41 130.341 407.131 128.985L406.709 132.708C403.447 134.077 401.502 136.597 400.018 139.526C424.592 136.469 420.371 143.223 407.706 152.856L410.342 152.255L412.017 155.376L402.653 156.22C416.648 158.19 425.731 162.578 424.093 172.249C428.302 173.375 432.089 175.306 435.248 178.364L433.637 179.809L436.336 184.491C439.918 187.114 441.504 189.864 437.96 192.947C452.582 191.31 455.946 195.621 447.145 206.341L443.896 209.577Z" fill="#CC5500" fill-opacity="0.1" stroke="black" stroke-width="1.46341" stroke-miterlimit="10"/>
<path d="M386.354 179.72L382.631 180.68L386.482 189.558L385.752 194.009L384.192 195.327L383.962 198.09L382.516 199.293L383.834 201.327L381.557 201.685L378.307 201.211L373.996 202.171L372.193 204.448L370.031 203.975L369.122 205.766L366.551 205.535C362.995 209.309 358.505 210.818 353.106 210.089L356.228 206.853L349.384 208.477L356.228 205.049H347.452L353.106 202.286L347.452 201.813L349.499 200.009H354.424C351.124 198.755 351.981 197.425 355.626 196.043L350.573 196.529C354.36 195.864 355.626 191.361 361.741 189.442L352.978 187.882L351.06 185.605L352.978 184.517L355.742 185.234L353.823 182.957L355.742 182.112L349.256 180.078L353.222 179.119L353.106 177.072L355.857 176.241L359.95 176.957L362.586 176.241L363.903 177.072L364.632 175.038L368.342 173.836L363.43 171.559L365.707 170.356L367.152 166.634L376.158 164.587L378.307 166.391L383.591 165.789L388.4 172.032L390.805 173.593V176.356L386.354 177.571V179.72Z" fill="#CC5500" fill-opacity="0.1" stroke="black" stroke-width="1.46341" stroke-miterlimit="10"/>
<path d="M89.2523 136.507L85.6065 145.858L81.6408 151.257L76.6007 160.992L71.9187 167.836V173.592L73.3642 179.72L71.9187 183.314L63.271 187.28L60.0346 191.962L62.5291 190.312L65.676 187.165L70.358 185.092L69.7312 187.523L67.1215 190.222L67.9274 191.028L70.9848 187.433L71.4453 191.578L65.7655 203.002L59.2286 209.615L55.8003 210.6L44.8117 221.589L35.5244 220.885C49.7239 190.35 67.8507 162.015 89.2523 136.507Z" fill="#CC5500" fill-opacity="0.1" stroke="black" stroke-width="1.46341" stroke-miterlimit="10"/>
<path d="M63.411 208.58L63.1808 209.616L60.7118 211.547L59.164 214.566L53.6377 224.173H57.0021L52.4352 228.497L53.3946 233.051L56.2857 229.687L59.164 230.889L55.7996 235.456L54.482 240.253L59.164 237.375L57.4882 239.78L53.1644 243.861L56.516 242.901L53.1644 248.415L56.516 246.982L49.8 258.508L49.2755 255.758L47.8299 255.886L52.0386 248.671L51.7956 246.394L44.2353 255.643L43.0328 255.284L49.1476 247.481L46.3972 245.319L43.7492 248.556L40.1545 246.394L36.432 247.839C36.2657 244.13 39.016 241.162 42.7898 238.475L40.0266 238.232C43.0584 235.776 45.2459 232.757 46.5123 229.111C51.8084 216.997 57.501 211.202 63.411 208.58Z" fill="#CC5500" fill-opacity="0.1" stroke="black" stroke-width="1.46341" stroke-miterlimit="10"/>
<path d="M23.8829 264.405L32.7097 252.163L30.9059 258.508L29.9977 261.527L26.2239 264.584V268L18.2927 273.769L14.2119 278.579C19.0474 261.271 25.0726 244.462 32.198 228.241L32.8248 232.59L26.467 243.272L29.1022 241.532L23.5247 253.416L26.2239 251.075L24.4202 255.757L27.4776 256.666L24.4202 260.618L23.3457 258.508L21.9897 262.064L23.8829 264.405Z" fill="#CC5500" fill-opacity="0.1" stroke="black" stroke-width="1.46341" stroke-miterlimit="10"/>
<path d="M36.4201 233.55L38.1727 230.314L37.3028 226.348V223.291L34.207 226.348L36.4201 233.55Z" fill="#CC5500" fill-opacity="0.1" stroke="black" stroke-width="1.46341" stroke-miterlimit="10"/>
<path d="M175.946 361.205H178.645L173.336 357.24L172.249 357.764L175.946 361.205Z" fill="#CC5500" fill-opacity="0.1" stroke="black" stroke-width="1.46341" stroke-miterlimit="10"/>
<path d="M180.091 360.04L181.971 359.669L175.856 355.358V356.881L180.091 360.04Z" fill="#CC5500" fill-opacity="0.1" stroke="black" stroke-width="1.46341" stroke-miterlimit="10"/>
<path d="M186.207 359.223L188.369 357.764L187.294 356.792H181.973L184.045 358.007L186.207 359.223Z" fill="#CC5500" fill-opacity="0.1" stroke="black" stroke-width="1.46341" stroke-miterlimit="10"/>
<path d="M201.338 371.656L203.411 369.405L201.696 368.944L197.731 367.959L196.925 368.944L201.338 371.656Z" fill="#CC5500" fill-opacity="0.1" stroke="black" stroke-width="1.46341" stroke-miterlimit="10"/>
<path d="M201.695 378.398H204.394V380.47H202.053L201.695 378.398Z" fill="#CC5500" fill-opacity="0.1" stroke="black" stroke-width="1.46341" stroke-miterlimit="10"/>
<path d="M154.059 348.605H155.863V345.816C155.863 345.816 154.327 345.279 154.059 345.547C153.79 345.816 154.059 348.605 154.059 348.605Z" fill="#CC5500" fill-opacity="0.1" stroke="black" stroke-width="1.46341" stroke-miterlimit="10"/>
<path d="M291.383 487.747L288.684 485.944L287.597 480.724L289.49 481.441L291.383 480.724L294.082 483.424L291.383 487.747Z" fill="#CC5500" fill-opacity="0.1" stroke="black" stroke-width="1.46341" stroke-miterlimit="10"/>
<path d="M302.182 484.242H305.431L308.488 482.348V478.204L311.187 476.042L313.528 473.343L312.454 471.539L307.861 474.059L306.505 475.863V477.884L302.182 484.242Z" fill="#CC5500" fill-opacity="0.1" stroke="black" stroke-width="1.46341" stroke-miterlimit="10"/>
<path d="M273.554 431.384L274.82 429.581L277.878 430.476L280.219 431.384L275.537 433.367L273.554 431.384Z" fill="#CC5500" fill-opacity="0.1" stroke="black" stroke-width="1.46341" stroke-miterlimit="10"/>
<path d="M269.049 477.883L269.945 475.325L267.975 474.238L269.049 477.883Z" fill="#CC5500" fill-opacity="0.1" stroke="black" stroke-width="1.46341" stroke-miterlimit="10"/>
<path d="M280.218 483.602L276.879 479.291H280.218L285.079 476.067L285.795 477.884L284.9 479.841L282.738 482.528L282.38 485.227L280.218 483.602Z" fill="#CC5500" fill-opacity="0.1" stroke="black" stroke-width="1.46341" stroke-miterlimit="10"/>
<path d="M273.554 484.242H275.357V481.632L273.554 480.647V484.242Z" fill="#CC5500" fill-opacity="0.1" stroke="black" stroke-width="1.46341" stroke-miterlimit="10"/>
<path d="M267.244 487.747L268.958 484.242H265.812L264.008 485.995L267.244 487.747Z" fill="#CC5500" fill-opacity="0.1" stroke="black" stroke-width="1.46341" stroke-miterlimit="10"/>
<path d="M526.279 355.384L532.521 358.749V353.951H538.048V338.588L534.44 331.629L532.163 327.548L534.683 318.184L533.724 310.982L532.163 307.375L529.886 308.82L530.372 313.387C524.692 315.267 525.281 320.743 529.886 328.52L532.163 330.439L528.453 334.277L523.413 334.52V337.641L527.251 343.641L526.048 345.803L528.21 348.438L526.291 355.397L526.279 355.384Z" fill="#CC5500" fill-opacity="0.1" stroke="black" stroke-width="1.46341" stroke-miterlimit="10"/>
<path d="M587.514 364.991L586.068 370.518L587.514 374.355L586.797 377.477L584.635 380.112L576.474 375.545L570.231 374.099L562.786 369.302L564.462 364.019H570.462L573.826 365.465L579.352 364.978C579.352 364.978 581.514 361.371 582.231 361.614C582.947 361.857 585.109 363.06 585.109 363.06L587.514 360.424V364.991Z" fill="#CC5500" fill-opacity="0.1" stroke="black" stroke-width="1.46341" stroke-miterlimit="10"/>
<path d="M337.64 68.145C337.666 68.4648 337.525 68.7718 337.257 68.9509L336.464 69.4754C336.374 69.5266 336.31 69.6033 336.246 69.6801L335.133 71.1768C334.98 71.3815 334.749 71.5094 334.506 71.535L332.882 71.6757C332.549 71.7013 332.255 71.9315 332.14 72.2386L331.602 73.7225C331.526 73.9399 331.359 74.119 331.142 74.2086L327.675 75.7692C327.675 75.7692 327.624 75.7948 327.586 75.8076L319.283 78.5452C319.283 78.5452 319.155 78.5964 319.092 78.6347L317.058 79.9396C316.942 80.0163 316.814 80.0547 316.687 80.0803L314.819 80.2977L310.457 80.7071C310.252 80.7327 310.06 80.8222 309.907 80.9757L308.691 82.2294C308.602 82.3189 308.499 82.3829 308.384 82.4341L305.365 83.6237C305.25 83.6749 305.109 83.6877 304.982 83.6877L294.658 82.9969C294.479 82.9969 294.3 82.9202 294.159 82.805L290.961 80.157C290.654 79.914 290.219 79.8884 289.899 80.1186L288.991 80.7455C288.838 80.8478 288.671 80.9118 288.492 80.9118H281.137L281.444 79.2871H283.951C284.079 79.2871 284.207 79.2616 284.309 79.2104L286.433 78.2254C286.433 78.2254 286.497 78.1998 286.535 78.1742L289.362 76.4089L286.612 76.089L287.098 74.4132L286.087 74.4644C285.576 74.5028 285.166 74.0934 285.166 73.5945V73.505C285.23 72.9293 284.744 72.456 284.168 72.5456L276.774 73.6841L277.107 72.5328C277.197 72.213 277.465 71.9699 277.785 71.9187L286.023 70.4604L286.497 69.2451L288.531 68.3369C289.337 67.9787 289.17 66.7762 288.3 66.6739C286.138 66.4436 283.861 66.6739 281.29 68.0682C281.162 68.1322 281.021 68.1706 280.881 68.1706H276.774V66.8402L278.463 66.7506C278.693 66.7378 278.898 66.6355 279.051 66.4692L280.139 65.3179C280.42 65.0109 280.868 64.9469 281.213 65.1516L282.275 65.7784C282.518 65.9191 282.8 65.9447 283.055 65.8296L284.335 65.2795L283.273 64.7806C282.697 64.512 282.595 63.7444 283.081 63.3223L285.422 61.3267L286.394 62.5164C286.458 62.5931 286.548 62.6699 286.637 62.721L288.659 63.8468L289.861 63.6037L288.774 62.4012L290.104 61.6849L290.219 60.3672L288.415 61.1987L287.699 59.5229L290.334 58.717C290.629 58.6147 290.961 58.6914 291.191 58.9089L295.618 63.1432C296.001 63.5142 295.963 64.141 295.554 64.4608L295.067 64.8446C294.812 65.0365 294.697 65.3563 294.748 65.6761L294.965 66.9809C295.08 67.6973 295.989 67.9531 296.475 67.4158L298.381 65.2795L299.583 66.3669L300.939 64.2177C300.99 64.1282 301.029 64.0259 301.054 63.9235L301.374 62.2733C301.451 61.864 301.809 61.5569 302.231 61.5569H303.306L303.063 62.6443L305.583 64.077L306.094 62.4652C306.158 62.2733 306.286 62.107 306.453 61.9919L308.883 60.4568C309.203 60.2521 309.612 60.2905 309.907 60.5208L312.312 62.5164L312.248 61.3267C312.209 60.8022 312.631 60.38 313.156 60.4056L314.781 60.4696C314.972 60.4824 315.151 60.5463 315.292 60.6615L316.367 61.5313C316.725 61.8256 317.237 61.7872 317.544 61.4546L318.785 60.1498C319.066 59.8556 319.526 59.7916 319.872 60.0091L321.266 60.8789C321.586 61.0708 321.983 61.0452 322.277 60.8022L323.147 60.0986C323.351 59.9323 323.467 59.6893 323.467 59.4334L323.492 58.1542C323.492 57.6553 323.94 57.2587 324.439 57.3099L326.959 57.5273C327.355 57.5657 327.688 57.8727 327.739 58.2693L327.803 58.6787C327.867 59.152 328.289 59.4718 328.763 59.4206L330.349 59.2415C330.553 59.2159 330.745 59.1264 330.886 58.9729L331.615 58.2181L334.494 57.9879V58.9857L332.306 59.2543C332.089 59.2799 331.897 59.3822 331.756 59.5485L330.886 60.5591L332.025 60.9557C332.472 61.1092 332.715 61.5825 332.575 62.0303L332.242 63.1176L334.174 63.2071L334.225 64.3329L336.655 64.7294C337.052 64.7934 337.359 65.1132 337.397 65.5098L337.64 68.145Z" fill="#CC5500" stroke="black" stroke-width="1.46341" stroke-miterlimit="10"/>
<path d="M762.834 381.493C762.834 557.375 643.763 705.434 481.85 749.478V742.903L509.392 728.499V721.297L513.587 719.979L513.229 709.643C503.673 706.956 500.283 701.75 499.541 695.482C502.637 694.944 504.889 692.488 506.385 688.28H508.547L508.905 685.76H507.115C509.903 685.389 512.666 681.026 515.391 674.464L513.715 670.511H509.635L508.905 667.748L506.142 667.032L504.825 668.95L487.184 673.876C484.306 657.77 460.41 660.546 420.063 678.071C407.718 672.545 391.369 674.016 372.155 680.476L322.342 657.898L321.139 652.986L316.329 645.297V644.21L305.648 635.805L303.844 637.852L303.013 634.846H300.365L299.405 632.684L301.682 631.251L293.405 629.089L287.035 623.87L285.832 617.077H289.325C286.191 612.331 283.197 607.432 277.978 605.257C281.905 604.592 285.129 603.095 285.832 598.592C284.758 591.569 295.567 581.489 284.937 567.622L279.359 551.593L278.809 554.651L276.647 553.205L281.15 540.963L283.862 539.338C284.553 529.143 289.747 521.467 298.804 515.928C298.804 510.453 300.697 505.707 303.665 501.345L310.688 499.004C312.914 493.964 315.114 488.86 317.89 485.674C330.158 487.619 358.774 463.582 348.924 457.582C347.926 449.971 350.14 442.615 355.41 435.49L366.463 425.883C378.232 423.363 386.291 414.638 390.231 398.993L394.913 397.394C398.098 406.656 406.081 409.087 420.127 402.895L420.843 406.579L431.742 406.4C438.586 399.006 444.611 395.386 449.216 398.303C454.295 388.747 471.347 384.436 500.117 385.28C503.456 385.075 507.153 383.208 511.042 380.47C514.138 382.197 516.722 382.338 518.359 379.626L524.371 382.159C527.544 382.504 533.608 379.434 541.181 374.586L541.654 377.707L543.701 375.916L546.336 381.916L552.463 377.592L553.666 380.112C546.694 387.314 545.683 392.277 552.579 394.273L553.909 399.441C552.463 406.771 537.573 414.69 550.903 416.25L551.504 413.244L553.909 413.73V417.811L557.03 421.649H561.827C563.222 425.128 566.113 426.382 572.867 421.892C573.891 424.668 576.321 425.525 580.798 423.58C583.805 425.793 586.875 427.482 590.406 425.972C590.316 432.701 591.89 438.419 605.053 437.025C618.971 450.713 631.226 441.349 625.214 426.459C626.557 420.203 631.264 415.713 638.901 412.771C646.103 412.911 649.071 415.022 648.508 418.77C651.412 419.717 655.045 419.679 658.96 419.256L660.034 423.209C664.588 419.73 672.225 421.162 680.924 424.297C690.148 414.101 697.311 410.276 700.983 417.325C709.656 417.325 712.509 391.612 711.421 357.124L709.502 360.846L706.317 359.286C705.383 364.71 702.85 368.279 697.861 369.008C695.098 365.439 692.105 362.254 686.988 362.586L687.256 369.251L685.363 369.162L683.304 371.861C681.039 368.675 678.647 365.772 674.925 365.465L670.332 364.48L670.217 361.832L667.211 357.764L668.285 354.629L662.043 352.711L660.009 354.386L659.165 348.63L661.685 350.306L663.245 351.623L662.401 347.542L664.448 350.664L666.853 349.704L664.09 347.786L665.164 345.265C663.655 343.385 663.079 341.006 663.373 338.178L659.881 340.34C657.501 335.019 659.497 331.232 663.373 328.098L666.315 329.531L666.674 326.294C668.337 328.213 670.729 328.942 674.055 328.098L672.251 326.115L675.129 323.774L676.933 323.416L672.609 320.717V318.376L683.777 318.734L685.581 313.873L688.638 309.907L692.066 306.85L696.927 307.029L700.522 309.012L702.863 308.641L705.383 312.786L706.471 310.803L713.494 315.127L716.551 311.89L719.442 313.515C719.442 313.515 720.389 310.189 720.875 309.907C726.273 301.081 711.959 285.257 701.43 278.208L697.107 273.526L695.661 275.33L692.425 274.434L692.246 277.85L690.263 278.029C686.131 294.262 687.743 270.469 678.737 273.168L683.24 266.145L680.72 265.249L677.112 266.145L671.714 263.983L676.217 260.375L668.656 260.925C668.554 266.273 667.364 269.714 665.228 271.543C667.671 277.594 666.853 280.587 664.153 281.815L665.586 296.22L663.424 296.757L663.245 302.884L665.049 304.33L661.812 306.479L666.315 312.786C667.096 315.638 668.311 317.89 670.806 318.376L670.089 321.433L667.927 321.254L667.876 322.278L665.113 322.393C665.241 327.139 662.516 328.725 657.246 327.497C656.286 325.783 653.6 325.079 650.491 324.619L649.647 329.48L647.485 324.798L645.566 327.791C645.566 327.791 644.133 327.919 643.762 328.034C643.404 328.162 644.249 331.283 644.249 331.283L648.815 334.878L643.89 332.601L643.762 337.155L637.763 330.682C634.091 335.505 644.159 347.645 657.399 361.473L648.931 355.704L649.11 360.936L644.965 357.764L642.982 359.491L646.59 363.277L644.786 365.439L641.729 363.277L645.515 375.519L642.087 372.104L641.37 375.698L637.405 369.942L636.867 372.999C636.867 372.999 633.26 369.392 633.439 368.855C633.618 368.317 634.168 364.71 634.168 364.71L631.456 362.919L629.844 360.578L632.902 355.896L629.294 356.612L626.774 350.306L622.642 345.803L616.515 341.121L619.035 339.496L614.89 336.081L614.174 318.977L610.387 317.89L586.977 300.236L583.383 301.503L580.671 296.642L577.971 295.196L576.539 292.855L579.954 293.034L571.678 284.937L567.712 279.717L565.729 286.92L561.226 278.809L563.03 276.289C560.663 274.716 558.13 275.01 555.278 279.167H550.967L554.92 285.116L553.308 287.815C552.259 294.096 556.698 298.88 566.445 302.219C571.345 313.169 577.242 322.162 588.96 319.873C583.012 323.979 601.445 330.132 607.573 336.26L607.394 342.566L603.607 337.884L596.763 335.543C596.763 335.543 594.064 342.566 594.243 343.462C594.422 344.37 599.104 346.519 599.104 346.519L601.087 352.288C597.326 352.301 595.382 354.143 596.405 358.953L592.44 365.439L588.474 362.919L590.636 359.491C589.51 357.431 590.29 355.73 593.348 354.45L587.578 341.121L583.076 341.3L580.914 338.959V335.722L576.769 334.277L575.336 336.439L572.266 333.023L571.012 327.433L565.243 329.237L562.902 326.537L560.561 326.717L553.18 319.156C551.427 317.058 549.534 315.523 547.244 315.549C545.709 312.223 543.841 309.716 541.117 309.242C540.221 305.008 538.865 300.863 536.256 297L524.243 292.561L518.244 300.006C513.549 301.055 509.66 303.793 506.603 308.283C501.921 310.918 492.378 307.362 483.065 304.087C475.006 308.654 473.33 314.001 477.539 320.052L477.577 324.67L466.23 331.846C461.42 332.819 456.534 333.701 454.704 337.846L456.623 338.805L452.299 341.21C445.391 352.672 440.709 358.429 450.137 362.829C443.434 368.1 438.56 373.23 442.462 377.707C436.705 376.773 431.576 379.626 427.329 387.8C416.238 385.676 404.878 386.406 392.751 395.475C387.122 395.706 384.666 392.635 384.832 386.841C383.054 383.22 379.383 381.314 368.983 385.395C364.518 383.08 360.514 382.299 357.457 384.679C359.823 379.907 360.335 373.473 359.619 365.951L355.538 367.14L354.809 364.505L351.457 363.546L355.052 353.939C357.917 351.623 359.938 348.822 359.849 344.818C361.896 340.532 362.126 335.441 360.335 329.441C361.934 323.953 360.578 317.762 355.538 310.713L361.294 307.119C363.751 308.897 365.618 307.515 367.064 303.754L374.023 303.038L375.468 306.389C382.965 303.051 392.623 303.166 404.52 306.876L418.208 306.159C430.706 313.451 435.17 303.741 433.098 280.216L422.531 265.339L420.6 260.375L399.48 251.881L398.034 244.206L412.438 239.882L416.852 244.116L419.909 242.671L429.465 243.298L426.663 240.33L426.484 235.558L423.158 230.697L429.094 230.787L430.181 233.396C435.081 235.123 439.814 235.712 444.138 233.486L441.259 232.322L442.513 229.52C447.042 229.098 450.611 227 453.412 223.585L452.338 215.96L458.273 214.336L467.458 210.562L474.481 210.741L469.978 204.614L474.481 197.949L476.285 188.943L490.753 186.73L493.99 188.521L493.273 184.926L500.654 184.018L501.742 186.73L503.354 185.463L503.584 186.589C503.328 185.156 502.829 181.894 503.533 182.048C504.441 182.227 508.215 181.856 508.215 181.856L501.921 177.174L503.712 175.383L505.336 175.204L501.013 170.522L498.851 172.684L497.776 168.897L500.117 166.556L494.898 163.128L492.915 151.973L495.793 152.51L497.239 150.348L494.527 150.527L492.736 148.366L495.972 146.204L500.271 146.6L503.149 141.611L506.744 140.831C507.793 143.952 507.856 146.792 507.051 149.415L509.392 153.559L513.05 153.444L512.935 156.565L509.635 156.745L509.212 161.183L506.935 164.778C507.805 166.121 507.908 167.528 507.115 168.987C511.387 170.343 512.295 172.645 511.195 175.524L520.981 177.481L520.163 181.024L524.666 180.896L530.883 176.342C533.467 175.907 535.667 177.43 537.727 179.617C539.671 179.349 541.232 181.28 542.677 183.749L556.723 177.634C563.209 171.174 568.748 170.573 573.021 177.814C575.49 178.735 577.204 176.867 577.92 171.328L583.434 172.773L574.556 151.397L576.232 143.952L579.596 143.236L583.434 147.317L589.203 151.883L591.608 148.749L587.041 142.033L586.555 138.669L583.203 137.953L579.11 134.102L576.948 129.062L583.677 126.184L596.162 129.305L595.203 125.941H597.851L603.121 125.467L594.729 120.9L592.081 117.063C585.775 117.434 579.737 118.265 575.157 121.604C574.249 120.926 572.509 121.335 569.746 123.062L566.394 120.9L557.99 115.86L554.382 108.172L549.815 102.415L546.694 97.1322L544.775 92.092L539.978 89.4439L546.937 91.3628L545.504 88.2415L547.897 83.6874L546.694 77.675L550.545 79.1205C548.344 75.2444 544.839 72.4301 539.978 70.7159L532.047 69.5135L533.006 72.3917L530.614 73.8373L533.006 75.0398L531.817 77.675L536.857 80.5661L536.128 82.9582L536.857 85.6062L532.776 88.9706L529.885 91.1325L530.371 93.2817L528.209 93.5247L529.655 95.9297L526.764 96.8891L529.169 98.808L530.857 105.78L536.703 113.199C541.948 114.619 546.208 117.51 549.406 122.052L546.336 126.081L550.724 129.075L543.279 133.168L550.366 146.728L550.839 158.369L547.359 153.214L547.244 158.254C547.244 158.254 539.556 157.295 539.556 157.653C539.556 158.011 539.441 159.815 539.441 159.815L537.279 160.531L539.671 165.341L530.077 166.185L529.105 161.977L523.821 155.849L526.955 156.693L525.024 154.058L526.226 153.329C515.302 142.686 506.935 133.104 505.823 126.555C502.624 126.465 500.642 123.868 499.452 119.596C500.923 125.071 501.217 129.254 495.857 127.156C488.77 149.734 455.369 126.593 473.458 126.414C469.441 125.966 469.556 123.945 472.55 120.836C472.153 121.105 465.539 125.672 465.539 125.237C465.539 124.802 463.825 118.572 463.825 118.572L467.074 114.709L460.231 111.997L463.288 109.835L457.762 105.102C458.427 102.722 458.606 100.215 456.866 97.1705L460.729 92.6676L463.979 93.4863L462.802 90.9662L465.143 90.7872C465.45 88.2926 466.371 86.2459 471.808 87.2693L469.249 84.5061L471.769 83.342C471.769 83.342 472.895 79.9137 473.343 80.323C473.79 80.7324 477.846 83.9688 477.846 83.9688L478.92 81.2185C479.304 78.3018 481.926 75.8457 485.495 73.5814L479.854 73.1081L482.975 71.6626L488.259 70.4601C488.259 70.4601 484.779 69.5007 484.779 68.8994C484.779 68.2982 485.38 66.2642 485.38 66.2642L482.259 65.0617L482.732 63.258L485.252 64.1023L486.698 64.8187L488.016 63.7441L489.819 63.0149L484.664 61.5822L483.334 59.1772L485.854 57.8596L486.583 55.928L489.103 56.299L490.664 53.7789L486.097 51.617L486.225 50.5296L487.9 49.212L484.664 48.3677L479.496 48.9689L476.976 50.7727L476.375 48.8538L479.381 47.5234L482.617 46.2058L479.611 45.4894L478.409 44.1718L479.611 43.3275L482.259 42.3681L483.103 41.1656L485.137 44.0439L486.583 45.0033L489.704 42.9693L487.657 41.4087L489.103 39.4898L492.096 39.3619L494.143 40.9226L497.38 38.2873L498.71 39.1316L496.305 41.5238L498.339 41.2807L502.189 37.9291L501.102 36.2406L506.142 33.7205L506.385 35.0381L506.27 36.2406L508.189 37.3279L510.594 36.9697L512.155 36.1254L512.986 38.0443L515.391 37.571L520.073 39.7201L525.484 41.7669L526.444 40.6923L527.045 41.7669L528.606 42.7263L532.802 44.0439L535.322 43.0845L539.159 47.2931C558.386 52.9218 574.377 63.0149 588.384 75.8585C589.894 78.1867 572.317 72.0208 563.235 68.0296C568.71 71.1253 576.5 75.6282 576.5 75.6282C582.462 84.02 589.804 91.0558 600.883 94.4713L589.472 82.7024L601.471 89.6742L601.957 88.3566L593.066 80.7835L592.836 76.4597L590.674 74.5409L600.153 80.6684L594.998 75.3852L598.721 76.1015L592.107 68.7843L606.051 73.2616H606.076C701.098 142.635 762.834 254.849 762.834 381.493Z" fill="#CC5500" stroke="black" stroke-width="1.46341" stroke-miterlimit="10"/>
<path d="M342.684 4.84828L334.407 6.29382L335.84 9.88847L331.887 10.6176L332.846 12.383L324.288 14.1867L328.522 14.6344L327.806 15.709L315.73 17.3336L318.621 18.8687L315.193 23.103L308.707 20.5701L306.097 22.3738L313.76 23.7298L314.566 26.0708L310.869 32.2879L307.185 31.4692L303.846 32.7356L300.789 30.8423L302.951 28.3223L297.36 26.6081L296.823 30.5737L288.815 34.2579L301.953 34.1684C283.672 45.6815 267.618 50.3251 253.546 48.8796C247.048 55.2885 238.592 60.7893 228.806 65.6887L226.708 64.5502C223.357 69.7311 218.918 72.0465 213.558 71.8419L220.043 66.2644L217.523 65.6248C214.965 70.8696 210.858 74.0933 203.656 73.3769C203.17 77.7903 199.742 78.302 195.853 78.1997L196.851 79.3765L195.226 83.7004L191.35 84.5958L191.529 86.7577C187.077 91.7723 182.664 95.2902 178.327 95.6484C173.466 99.2175 170.102 102.863 170.396 106.688C164.141 114.121 158.55 119.583 155.391 117.945V122.986L150.709 126.235L147.114 122.09L151.246 119.749L147.114 117.945L151.246 113.622L139.541 119.928V112.547L145.669 107.494L143.148 103.899L149.634 99.2175L147.472 95.61L152.512 92.0154H156.836V85.8878L159.356 80.4895H165.842L173.044 70.4987V66.0853L177.368 63.5524L184.212 61.7615L187.794 52.9475L199.332 51.3101L204.373 46.2699L210.359 40.6285C252.395 19.4827 298.844 5.88446 347.992 1.61182L342.684 4.84828Z" fill="#CC5500" stroke="black" stroke-width="1.46341" stroke-miterlimit="10"/>
<path d="M443.896 209.577L451.827 212.826H448.22L443.18 216.779L438.856 219.491L434.89 216.421L428.775 212.826L424.81 215.705L431.654 217.15L428.417 220.745L418.324 218.583H410.764L406.44 224.352C402.116 221.346 397.792 221.947 393.469 226.156H389.158C393.865 223.393 397.69 219.99 399.507 215.129L402.027 214.592L402.206 211.893C402.206 211.893 411.749 212.967 412.299 212.609C412.836 212.251 418.414 205.049 418.414 205.049L414.448 208.285C414.448 208.285 408.154 210.626 407.425 210.089C406.709 209.552 404.726 208.285 404.726 208.285L402.385 207.748L400.402 205.407L395.004 207.569L392.304 204.153C395.643 203.744 399.302 200.866 403.114 196.951L402.027 192.806L397.882 193.165L402.564 188.841L410.495 187.945L414.269 188.124L410.853 185.783V183.442L411.928 180.922V177.571L409.408 178.76L404.905 172.633L410.495 169.396L401.848 171.187L400.402 169.575L398.969 171.187L395.541 170.292L394.108 172.454L392.42 169.512L396.564 163.205L395.362 162.245L394.518 158.408L397.588 158.587L395.119 153.24C395.119 153.24 390.923 157.141 390.859 157.32C390.808 157.5 390.987 162.732 390.987 162.732L388.045 165.188L388.876 156.847L384.68 162.002L380.894 159.904L388.403 156.067L391.882 149.095L388.467 152.037L385.461 154.621L382.454 154.199L383.542 150.784L387.085 146.818L385.345 146.038L381.917 143.697L379.333 140.933L382.697 139.322L383.785 140.153V142.737L386.714 143.633L386.305 141.356L389.247 140.818L387.021 140.217L387.802 137.16L391.639 137.211L389.656 134.512L392.24 133.731L392.368 129.408C397.473 130.393 402.41 130.341 407.131 128.985L406.709 132.708C403.447 134.077 401.502 136.597 400.018 139.526C424.592 136.469 420.371 143.223 407.706 152.856L410.342 152.255L412.017 155.376L402.653 156.22C416.648 158.19 425.731 162.578 424.093 172.249C428.302 173.375 432.089 175.306 435.248 178.364L433.637 179.809L436.336 184.491C439.918 187.114 441.504 189.864 437.96 192.947C452.582 191.31 455.946 195.621 447.145 206.341L443.896 209.577Z" fill="#CC5500" stroke="black" stroke-width="1.46341" stroke-miterlimit="10"/>
<path d="M386.354 179.72L382.631 180.68L386.482 189.558L385.752 194.009L384.192 195.327L383.962 198.09L382.516 199.293L383.834 201.327L381.557 201.685L378.307 201.211L373.996 202.171L372.193 204.448L370.031 203.975L369.122 205.766L366.551 205.535C362.995 209.309 358.505 210.818 353.106 210.089L356.228 206.853L349.384 208.477L356.228 205.049H347.452L353.106 202.286L347.452 201.813L349.499 200.009H354.424C351.124 198.755 351.981 197.425 355.626 196.043L350.573 196.529C354.36 195.864 355.626 191.361 361.741 189.442L352.978 187.882L351.06 185.605L352.978 184.517L355.742 185.234L353.823 182.957L355.742 182.112L349.256 180.078L353.222 179.119L353.106 177.072L355.857 176.241L359.95 176.957L362.586 176.241L363.903 177.072L364.632 175.038L368.342 173.836L363.43 171.559L365.707 170.356L367.152 166.634L376.158 164.587L378.307 166.391L383.591 165.789L388.4 172.032L390.805 173.593V176.356L386.354 177.571V179.72Z" fill="#CC5500" stroke="black" stroke-width="1.46341" stroke-miterlimit="10"/>
<path d="M89.2523 136.507L85.6065 145.858L81.6409 151.257L76.6007 160.992L71.9187 167.836V173.592L73.3642 179.72L71.9187 183.314L63.271 187.28L60.0346 191.962L62.5291 190.312L65.676 187.165L70.358 185.092L69.7312 187.523L67.1215 190.222L67.9274 191.028L70.9848 187.433L71.4453 191.578L65.7655 203.002L59.2286 209.615L55.8003 210.6L44.8117 221.589L35.5244 220.885C49.7239 190.35 67.8507 162.015 89.2523 136.507Z" fill="#CC5500" stroke="black" stroke-width="1.46341" stroke-miterlimit="10"/>
<path d="M63.411 208.58L63.1808 209.616L60.7119 211.547L59.164 214.566L53.6377 224.173H57.0021L52.4352 228.497L53.3946 233.051L56.2857 229.687L59.164 230.889L55.7996 235.456L54.482 240.253L59.164 237.375L57.4882 239.78L53.1644 243.861L56.516 242.901L53.1644 248.415L56.516 246.982L49.8 258.508L49.2755 255.758L47.8299 255.886L52.0386 248.671L51.7956 246.394L44.2353 255.643L43.0328 255.284L49.1476 247.481L46.3972 245.319L43.7492 248.556L40.1545 246.394L36.432 247.839C36.2657 244.13 39.016 241.162 42.7898 238.475L40.0266 238.232C43.0584 235.776 45.2459 232.757 46.5123 229.111C51.8084 216.997 57.501 211.202 63.411 208.58Z" fill="#CC5500" stroke="black" stroke-width="1.46341" stroke-miterlimit="10"/>
<path d="M23.8829 264.405L32.7097 252.163L30.9059 258.508L29.9977 261.527L26.2239 264.584V268L18.2927 273.769L14.2119 278.579C19.0474 261.271 25.0726 244.462 32.198 228.241L32.8248 232.59L26.467 243.272L29.1022 241.532L23.5247 253.416L26.2239 251.075L24.4202 255.757L27.4776 256.666L24.4202 260.618L23.3457 258.508L21.9897 262.064L23.8829 264.405Z" fill="#CC5500" stroke="black" stroke-width="1.46341" stroke-miterlimit="10"/>
<path d="M36.4201 233.55L38.1727 230.314L37.3028 226.348V223.291L34.207 226.348L36.4201 233.55Z" fill="#CC5500" stroke="black" stroke-width="1.46341" stroke-miterlimit="10"/>
<path d="M175.946 361.205H178.645L173.336 357.24L172.249 357.764L175.946 361.205Z" fill="#CC5500" stroke="black" stroke-width="1.46341" stroke-miterlimit="10"/>
<path d="M180.091 360.04L181.971 359.669L175.856 355.358V356.881L180.091 360.04Z" fill="#CC5500" stroke="black" stroke-width="1.46341" stroke-miterlimit="10"/>
<path d="M186.207 359.223L188.369 357.764L187.294 356.792H181.973L184.045 358.007L186.207 359.223Z" fill="#CC5500" stroke="black" stroke-width="1.46341" stroke-miterlimit="10"/>
<path d="M201.338 371.656L203.411 369.405L201.696 368.944L197.731 367.959L196.925 368.944L201.338 371.656Z" fill="#CC5500" stroke="black" stroke-width="1.46341" stroke-miterlimit="10"/>
<path d="M201.695 378.398H204.395V380.47H202.053L201.695 378.398Z" fill="#CC5500" stroke="black" stroke-width="1.46341" stroke-miterlimit="10"/>
<path d="M154.059 348.605H155.863V345.816C155.863 345.816 154.327 345.279 154.059 345.547C153.79 345.816 154.059 348.605 154.059 348.605Z" fill="#CC5500" stroke="black" stroke-width="1.46341" stroke-miterlimit="10"/>
<path d="M291.383 487.747L288.684 485.944L287.597 480.724L289.49 481.441L291.383 480.724L294.082 483.424L291.383 487.747Z" fill="#CC5500" stroke="black" stroke-width="1.46341" stroke-miterlimit="10"/>
<path d="M302.182 484.242H305.431L308.488 482.348V478.204L311.187 476.042L313.528 473.343L312.454 471.539L307.861 474.059L306.505 475.863V477.884L302.182 484.242Z" fill="#CC5500" stroke="black" stroke-width="1.46341" stroke-miterlimit="10"/>
<path d="M273.554 431.384L274.82 429.581L277.878 430.476L280.219 431.384L275.537 433.367L273.554 431.384Z" fill="#CC5500" stroke="black" stroke-width="1.46341" stroke-miterlimit="10"/>
<path d="M269.049 477.883L269.945 475.325L267.975 474.238L269.049 477.883Z" fill="#CC5500" stroke="black" stroke-width="1.46341" stroke-miterlimit="10"/>
<path d="M280.218 483.602L276.879 479.291H280.218L285.079 476.067L285.795 477.884L284.9 479.841L282.738 482.528L282.38 485.227L280.218 483.602Z" fill="#CC5500" stroke="black" stroke-width="1.46341" stroke-miterlimit="10"/>
<path d="M273.554 484.242H275.357V481.632L273.554 480.647V484.242Z" fill="#CC5500" stroke="black" stroke-width="1.46341" stroke-miterlimit="10"/>
<path d="M267.244 487.747L268.958 484.242H265.812L264.008 485.995L267.244 487.747Z" fill="#CC5500" stroke="black" stroke-width="1.46341" stroke-miterlimit="10"/>
<path d="M526.279 355.384L532.521 358.749V353.951H538.048V338.588L534.44 331.629L532.163 327.548L534.683 318.184L533.724 310.982L532.163 307.375L529.886 308.82L530.372 313.387C524.692 315.267 525.281 320.743 529.886 328.52L532.163 330.439L528.453 334.277L523.413 334.52V337.641L527.251 343.641L526.048 345.803L528.21 348.438L526.291 355.397L526.279 355.384Z" fill="#CC5500" stroke="black" stroke-width="1.46341" stroke-miterlimit="10"/>
<path d="M587.514 364.991L586.068 370.518L587.514 374.355L586.797 377.477L584.635 380.112L576.474 375.545L570.231 374.099L562.786 369.302L564.462 364.019H570.462L573.826 365.465L579.352 364.978C579.352 364.978 581.514 361.371 582.231 361.614C582.947 361.857 585.109 363.06 585.109 363.06L587.514 360.424V364.991Z" fill="#CC5500" stroke="black" stroke-width="1.46341" stroke-miterlimit="10"/>
</g>
<defs>
<clipPath id="clip0_38_2865">
<rect width="763" height="763" fill="white"/>
</clipPath>
</defs>
</svg>
