<svg width="20" height="20" viewBox="0 0 20 20" fill="none" xmlns="http://www.w3.org/2000/svg">
<path d="M1.875 2.32382V17.6754C1.8751 17.7087 1.88504 17.7412 1.90356 17.7689C1.92208 17.7966 1.94836 17.8182 1.9791 17.831C2.00985 17.8438 2.04369 17.8472 2.07638 17.8409C2.10908 17.8346 2.13917 17.8187 2.16289 17.7953L10.1562 9.99999L2.16289 2.2039C2.13917 2.18052 2.10908 2.16466 2.07638 2.15831C2.04369 2.15196 2.00985 2.1554 1.9791 2.16821C1.94836 2.18102 1.92208 2.20262 1.90356 2.2303C1.88504 2.25798 1.8751 2.29052 1.875 2.32382ZM13.5078 6.79687L3.48516 1.27499L3.47891 1.27148C3.30625 1.17773 3.14219 1.41132 3.28359 1.54726L11.1402 9.05976L13.5078 6.79687ZM3.28438 18.4527C3.14219 18.5887 3.30625 18.8223 3.47969 18.7285L3.48594 18.725L13.5078 13.2031L11.1402 10.9394L3.28438 18.4527ZM17.5539 9.02343L14.7551 7.48202L12.1234 9.99999L14.7551 12.5168L17.5539 10.9766C18.3152 10.5559 18.3152 9.44413 17.5539 9.02343Z" fill="white"/>
</svg>
