<svg width="144" height="48" viewBox="0 0 144 48" fill="none" xmlns="http://www.w3.org/2000/svg">
<g clip-path="url(#clip0_275_354)">
<path d="M26.4297 38.5337C26.4728 34.1279 25.3558 30.5452 23.935 30.5313C22.5142 30.5175 21.3274 34.0777 21.2844 38.4834C21.2413 42.8891 22.3582 46.4719 23.779 46.4857C25.2 46.4996 26.3867 42.9394 26.4297 38.5337Z" fill="white"/>
<path d="M18.1883 37.5337C20.6066 33.8508 21.6041 30.2329 20.4164 29.453C19.2286 28.6731 16.3053 31.0264 13.8871 34.7094C11.4687 38.3923 10.4712 42.01 11.6589 42.79C12.8467 43.57 15.7699 41.2166 18.1883 37.5337Z" fill="white"/>
<path d="M11.7872 32.2493C15.8129 30.4587 18.6081 27.9547 18.0305 26.6563C17.4531 25.3581 13.7215 25.7572 9.69591 27.5479C5.67029 29.3385 2.87503 31.8426 3.45251 33.1408C4.03 34.4392 7.76157 34.04 11.7872 32.2493Z" fill="white"/>
<path d="M17.5479 23.0153C17.7641 21.6109 14.4092 19.9291 10.0546 19.2588C5.69994 18.5885 1.9946 19.1837 1.77844 20.5881C1.56228 21.9925 4.91718 23.6742 9.27182 24.3445C13.6264 25.0148 17.3318 24.4196 17.5479 23.0153Z" fill="white"/>
<path d="M19.1109 19.669C20.0519 18.6043 18.1384 15.3759 14.8371 12.4582C11.5357 9.54048 8.09667 8.03832 7.15569 9.10302C6.21471 10.1677 8.12817 13.3961 11.4295 16.3138C14.7309 19.2316 18.17 20.7337 19.1109 19.669Z" fill="white"/>
<path d="M22.2254 17.7149C23.5926 17.328 23.7285 13.5776 22.5288 9.33814C21.3292 5.0987 19.2483 1.97559 17.8811 2.36247C16.5139 2.74937 16.378 6.49972 17.5776 10.7392C18.7773 14.9786 20.8581 18.1017 22.2254 17.7149Z" fill="white"/>
<path d="M30.6798 10.8714C31.9628 6.65649 31.901 2.90414 30.5416 2.49037C29.1822 2.07659 27.0402 5.15806 25.7571 9.37305C24.4742 13.5879 24.536 17.3403 25.8954 17.7541C27.2547 18.1679 29.3968 15.0864 30.6798 10.8714Z" fill="white"/>
<path d="M36.7221 16.567C40.0799 13.7144 42.0562 10.5241 41.1361 9.4412C40.2161 8.35832 36.7483 9.79304 33.3906 12.6456C30.0328 15.4982 28.0567 18.6886 28.9766 19.7715C29.8966 20.8543 33.3644 19.4197 36.7221 16.567Z" fill="white"/>
<path d="M38.7187 24.626C43.0857 24.0417 46.4731 22.4265 46.2846 21.0181C46.0963 19.6097 42.4034 18.9417 38.0363 19.5259C33.6694 20.1101 30.2819 21.7254 30.4704 23.1338C30.6588 24.5421 34.3517 25.2102 38.7187 24.626Z" fill="white"/>
<path d="M44.3526 33.544C44.9556 32.2574 42.2103 29.6988 38.2208 27.829C34.2313 25.9593 30.5083 25.4868 29.9053 26.7733C29.3024 28.06 32.0477 30.6187 36.0372 32.4884C40.0267 34.358 43.7497 34.8307 44.3526 33.544Z" fill="white"/>
<path d="M35.9602 43.0365C37.1631 42.2802 36.237 38.6434 33.8919 34.9135C31.5466 31.1836 28.6703 28.7731 27.4674 29.5294C26.2645 30.2857 27.1906 33.9226 29.5357 37.6525C31.881 41.3824 34.7573 43.7929 35.9602 43.0365Z" fill="white"/>
<path d="M69.8551 36L57.977 12.3258H60.7168L71.184 33.4406H71.2496L81.7168 12.3258H84.4566L72.5949 36H69.8551ZM93.0535 36.3445C90.9645 36.3445 89.1652 35.9945 87.6559 35.2945C86.1574 34.5945 85.0035 33.5828 84.1941 32.2594C83.3957 30.925 82.9965 29.3281 82.9965 27.4687V27.4523C82.9965 25.6477 83.4066 24.0781 84.227 22.7437C85.0473 21.4094 86.1957 20.3758 87.6723 19.643C89.1488 18.9102 90.8715 18.5492 92.8402 18.5602C94.8199 18.5602 96.5316 18.9266 97.9754 19.6594C99.4191 20.3922 100.529 21.4203 101.306 22.7437C102.082 24.0562 102.471 25.593 102.471 27.3539V28.0266H84.2105V26.2219H101.043L100.075 27.6984V27.0094C100.075 25.6969 99.7801 24.5594 99.1895 23.5969C98.5988 22.6344 97.7621 21.8906 96.6793 21.3656C95.5965 20.8406 94.3168 20.5781 92.8402 20.5781C91.309 20.5781 89.9855 20.8406 88.8699 21.3656C87.7652 21.8797 86.9121 22.6289 86.3105 23.6133C85.7199 24.5977 85.4246 25.7953 85.4246 27.2062V27.6164C85.4246 29.1586 85.7582 30.4273 86.4254 31.4227C87.1035 32.407 88.0223 33.1398 89.1816 33.6211C90.341 34.0914 91.648 34.3266 93.1027 34.3266C94.1527 34.3266 95.1207 34.2062 96.0066 33.9656C96.8926 33.725 97.6527 33.375 98.2871 32.9156C98.9215 32.4453 99.3973 31.8656 99.7145 31.1766L99.7801 31.0453H102.208L102.159 31.193C101.864 32.0461 101.432 32.7953 100.863 33.4406C100.305 34.075 99.627 34.6109 98.8285 35.0484C98.041 35.475 97.1551 35.7977 96.1707 36.0164C95.1973 36.2352 94.1582 36.3445 93.0535 36.3445ZM105.489 36V12.3258H107.918V36H105.489ZM111.773 36V18.8883L114.201 18.9047V22.432H114.267C114.682 21.218 115.404 20.2773 116.432 19.6102C117.461 18.932 118.686 18.593 120.107 18.593C120.479 18.593 120.835 18.6148 121.174 18.6586C121.524 18.7023 121.819 18.757 122.06 18.8227V21.0375C121.775 20.9609 121.442 20.9008 121.059 20.857C120.687 20.8133 120.288 20.7914 119.861 20.7914C118.702 20.7914 117.696 21.0266 116.843 21.4969C116 21.9672 115.35 22.6398 114.89 23.5148C114.431 24.3898 114.201 25.4289 114.201 26.632V36H111.773ZM130.706 36.3281C129.164 36.3281 127.818 36.1258 126.67 35.7211C125.532 35.3055 124.646 34.7094 124.012 33.9328C123.389 33.1453 123.077 32.1883 123.077 31.0617V31.0453C123.077 30.0719 123.329 29.2297 123.832 28.5187C124.335 27.8078 125.106 27.2555 126.145 26.8617C127.195 26.457 128.535 26.2328 130.164 26.1891L139.861 25.943V27.7148L130.427 27.9773C128.754 28.0211 127.518 28.3 126.719 28.8141C125.921 29.3281 125.521 30.05 125.521 30.9797V31.0125C125.521 32.0953 126.03 32.9211 127.047 33.4898C128.075 34.0586 129.426 34.343 131.1 34.343C132.598 34.343 133.911 34.1187 135.037 33.6703C136.175 33.2219 137.061 32.593 137.695 31.7836C138.329 30.9742 138.646 30.0336 138.646 28.9617V25.2047C138.646 23.7172 138.111 22.5742 137.039 21.7758C135.967 20.9773 134.452 20.5781 132.494 20.5781C130.766 20.5781 129.361 20.8844 128.278 21.4969C127.195 22.0984 126.506 22.9352 126.211 24.007L126.161 24.1711H123.815L123.832 23.9906C124.029 22.9187 124.499 21.9727 125.243 21.1523C125.997 20.332 126.987 19.6922 128.212 19.2328C129.448 18.7734 130.881 18.5437 132.511 18.5437C134.304 18.5437 135.841 18.8008 137.121 19.3148C138.4 19.8289 139.379 20.5727 140.057 21.5461C140.736 22.5086 141.075 23.668 141.075 25.0242V36H138.646V32.5055H138.597C138.204 33.2711 137.618 33.9437 136.842 34.5234C136.065 35.0922 135.152 35.5352 134.102 35.8523C133.052 36.1695 131.92 36.3281 130.706 36.3281Z" fill="white"/>
</g>
<defs>
<clipPath id="clip0_275_354">
<rect width="143.6" height="48" fill="white"/>
</clipPath>
</defs>
</svg>
