<svg width="771" height="752" viewBox="0 0 771 752" fill="none" xmlns="http://www.w3.org/2000/svg">
<g clip-path="url(#clip0_32_1967)">
<path d="M543.352 0.769531L205.572 194.209L53.3491 203.952L397.378 10.773L543.352 0.769531Z" fill="black" fill-opacity="0.1" stroke="black" stroke-miterlimit="10"/>
<path d="M695.208 194.209L365.407 382.227L205.572 194.209L543.352 0.769531L695.208 194.209Z" fill="black" fill-opacity="0.05" stroke="black" stroke-miterlimit="10"/>
<path d="M724.327 211.647V236.981L695.563 252.975L412.553 410.272L378.711 429.083L325.481 398.209L130.301 284.998L119.589 278.795L108.201 272.189L62.4516 245.647L43.4888 234.649V209.481L379.149 407.537L724.327 211.647Z" fill="black" fill-opacity="0.1" stroke="black" stroke-miterlimit="10"/>
<path d="M365.407 382.227L361.95 384.204L53.3491 203.952L205.572 194.209L365.407 382.227Z" fill="black" fill-opacity="0.03" stroke="black" stroke-miterlimit="10"/>
<path d="M724.327 211.647L379.149 407.538L43.4888 209.481L53.349 203.952L361.95 384.204L365.407 382.227L379.931 399.31L708.986 211.766L695.208 194.209L724.327 211.647Z" fill="black" fill-opacity="0.2" stroke="black" stroke-miterlimit="10"/>
<path d="M708.986 211.766L379.931 399.31L365.407 382.227L695.208 194.209L708.986 211.766Z" fill="black" fill-opacity="0.1" stroke="black" stroke-miterlimit="10"/>
<path d="M108.415 284.596L77.3781 267.075L62.4517 258.646V245.647L108.201 272.189L108.415 284.596Z" stroke="black" stroke-miterlimit="10"/>
<path d="M372.26 439.028V425.354" stroke="black" stroke-miterlimit="10"/>
<path d="M342.94 421.767V421.756L325.481 411.48V398.209" stroke="black" stroke-miterlimit="10"/>
<path d="M144.079 465.25L109.646 486.583L62.5347 459.698L79.2484 447.255L79.426 464.587C104.485 478.532 119.814 477.254 130.301 459.26L144.079 465.25Z" fill="black" fill-opacity="0.2" stroke="black" stroke-miterlimit="10"/>
<path d="M119.589 278.795L108.415 284.596L108.202 272.189L119.589 278.795Z" stroke="black" stroke-miterlimit="10"/>
<path d="M130.301 284.998V459.26C119.813 477.254 104.485 478.533 79.4257 464.587L79.2482 447.255L77.3779 267.075L108.414 284.596L119.589 278.795L130.301 284.998Z" fill="black" fill-opacity="0.1" stroke="black" stroke-miterlimit="10"/>
<path d="M130.301 284.998V284.596" stroke="black" stroke-miterlimit="10"/>
<path d="M374.485 639.133L374.817 659.471L327.824 631.805V611.809L339.353 603.665L342.94 601.143V615.917C361.193 629.922 378.19 633.912 392.407 615.917V607.477L407.818 620.132L374.485 639.133Z" fill="black" fill-opacity="0.2" stroke="black" stroke-miterlimit="10"/>
<path d="M392.407 428.823V615.917C378.191 633.912 361.193 629.922 342.94 615.917V421.767L372.261 439.028L392.407 428.823Z" fill="black" fill-opacity="0.1" stroke="black" stroke-miterlimit="10"/>
<path d="M342.94 421.767V421.756" stroke="black" stroke-miterlimit="10"/>
<path d="M109.859 507.916L62.5347 478.367V459.698L109.646 486.583L109.859 507.916Z" fill="black" fill-opacity="0.1" stroke="black" stroke-miterlimit="10"/>
<path d="M374.64 659.4L327.884 631.58V612.046L374.64 639.275V659.4Z" fill="white" fill-opacity="0.2" stroke="black" stroke-miterlimit="10"/>
<path d="M735.513 509.147L389.566 702.799V683.278L734.518 486.145L734.791 492.419L735.513 509.147Z" fill="black" fill-opacity="0.1" stroke="black" stroke-miterlimit="10"/>
<path d="M734.519 486.145L389.566 683.278L35.9253 477.112L62.5348 459.698V478.367L109.859 507.916L144.08 488.583L174.654 507.099V524.868L191.321 533.392L200.66 529.391L235.449 549.019L263.065 564.61C263.1 571.346 263.183 575.679 263.313 576.058C263.976 578.058 277.979 585.386 277.979 585.386L292.645 576.721L339.354 603.665L327.825 611.81V631.805L374.817 659.471L407.819 639.133L413.773 644.046L695.563 486.583V464.327L734.519 486.145Z" fill="black" fill-opacity="0.03" stroke="black" stroke-miterlimit="10"/>
<path d="M407.819 620.132V639.132L374.817 659.471L374.486 639.132L407.819 620.132Z" fill="black" fill-opacity="0.05" stroke="black" stroke-miterlimit="10"/>
<path d="M389.566 683.278V702.799L35.3452 499.617L35.8305 480.983L35.9252 477.112L389.566 683.278Z" fill="black" fill-opacity="0.1" stroke="black" stroke-miterlimit="10"/>
<path d="M412.553 410.272V418.618L413.772 644.045L695.563 486.583V252.975L412.553 410.272ZM434.227 416.558L494.548 380.901L498.549 382.902L500.549 461.9L439.897 494.562H434.227V416.558ZM439.956 603.061H434.286V525.057L494.607 489.388L498.608 491.389L500.608 570.387L439.956 603.061ZM521.714 366.79L582.035 331.121L586.036 333.121L588.036 412.119L527.384 444.781H521.714V366.79ZM527.431 553.28H521.773V475.277L582.094 439.62L586.095 441.62L588.095 520.618L527.431 553.28ZM609.307 318.063L669.64 282.405L673.641 284.406L675.63 363.392L614.977 396.066H609.307V318.063ZM615.036 504.565H609.366V426.562L669.699 390.893L673.688 392.893L675.689 471.891L615.036 504.565Z" fill="black" fill-opacity="0.05" stroke="black" stroke-miterlimit="10"/>
<path d="M407.818 639.133V620.132L392.407 607.477V428.823L412.553 418.618L413.772 644.046L407.818 639.133Z" fill="black" fill-opacity="0.05" stroke="black" stroke-miterlimit="10"/>
<path d="M388.453 725.517V750.97L1.18359 524.868V501.085L388.453 725.517Z" fill="black" fill-opacity="0.1" stroke="black" stroke-miterlimit="10"/>
<path d="M770.396 536.304L388.453 750.97V725.517L769.153 513.089L770.396 536.304Z" fill="black" fill-opacity="0.1" stroke="black" stroke-miterlimit="10"/>
<path d="M769.153 513.089L388.453 725.517L1.18359 501.085L35.8304 480.983L35.345 499.617L389.566 702.8L735.513 509.147L734.791 492.419L769.07 511.645L769.153 513.089Z" fill="black" fill-opacity="0.05" stroke="black" stroke-miterlimit="10"/>
<path d="M292.645 448.51V576.72L277.979 585.386L277.091 456.501L174.654 398.209L191.321 386.726L292.645 448.51Z" fill="black" fill-opacity="0.1" stroke="black" stroke-miterlimit="10"/>
<path d="M277.979 585.386C277.979 585.386 263.976 578.058 263.313 576.058C263.183 575.679 263.1 571.346 263.065 564.61C262.875 536.304 263.313 465.392 263.313 465.392L235.449 449.091L200.66 428.728L191.321 421.756V533.392L174.654 524.868V398.209L277.091 456.501L277.979 585.386Z" fill="black" fill-opacity="0.05" stroke="black" stroke-miterlimit="10"/>
<path d="M200.66 428.728V529.391L191.321 533.392V421.756L200.66 428.728Z" fill="black" fill-opacity="0.2" stroke="black" stroke-miterlimit="10"/>
<path d="M263.313 465.392L235.449 449.09V549.03L263.064 564.61C262.875 536.304 263.313 465.392 263.313 465.392ZM247.7 513.716C247.7 515.563 246.209 517.055 244.374 517.055C242.539 517.055 241.036 515.563 241.036 513.716V495.13C241.036 493.295 242.527 491.803 244.374 491.803C245.297 491.803 246.126 492.17 246.729 492.774C247.333 493.378 247.7 494.207 247.7 495.13V513.716Z" fill="black" fill-opacity="0.05" stroke="black" stroke-miterlimit="10"/>
<path d="M200.66 428.728V529.39L235.449 549.018V449.09L200.66 428.728ZM228.702 503.085C228.702 504.932 227.21 506.424 225.376 506.424C223.541 506.424 222.038 504.932 222.038 503.085V484.499C222.038 482.664 223.529 481.172 225.376 481.172C226.287 481.172 227.128 481.539 227.731 482.143C228.323 482.747 228.702 483.576 228.702 484.499V503.085Z" fill="black" fill-opacity="0.05" stroke="black" stroke-miterlimit="10"/>
<path d="M228.702 484.499V503.085C228.702 504.932 227.21 506.424 225.376 506.424C223.541 506.424 222.038 504.932 222.038 503.085V484.499C222.038 482.664 223.529 481.173 225.376 481.173C226.287 481.173 227.127 481.54 227.731 482.143C228.323 482.747 228.702 483.576 228.702 484.499Z" fill="black" fill-opacity="0.1" stroke="black" stroke-miterlimit="10"/>
<path d="M247.7 495.13V513.716C247.7 515.563 246.209 517.055 244.374 517.055C242.539 517.055 241.036 515.563 241.036 513.716V495.13C241.036 493.295 242.528 491.803 244.374 491.803C245.297 491.803 246.126 492.17 246.73 492.774C247.333 493.378 247.7 494.207 247.7 495.13Z" fill="black" fill-opacity="0.1" stroke="black" stroke-miterlimit="10"/>
<path d="M586.095 441.62L582.094 439.62L521.773 475.277V553.28H527.431L588.095 520.618L586.095 441.62ZM533.101 537.002V481.279L575.738 457.33V513.219L533.101 537.002Z" fill="#492BFF" stroke="black" stroke-miterlimit="10"/>
<path d="M521.761 475.277L527.265 477.443L527.431 553.28" stroke="black" stroke-miterlimit="10"/>
<path d="M527.266 477.443L586.095 441.608" stroke="black" stroke-miterlimit="10"/>
<path d="M580.922 516.285L533.101 543.277V537.002L575.738 513.219V457.318L580.259 454.785L580.922 516.285Z" fill="#492BFF" stroke="black" stroke-miterlimit="10"/>
<path d="M575.738 457.33V513.219L533.101 537.002V481.279L575.738 457.33Z" fill="#492BFF" stroke="black" stroke-miterlimit="10"/>
<path d="M575.738 457.33V457.318" stroke="black" stroke-miterlimit="10"/>
<path d="M575.738 513.219L580.922 516.273" stroke="black" stroke-miterlimit="10"/>
<path d="M498.608 491.389L494.607 489.388L434.286 525.058V603.061H439.956L500.609 570.387L498.608 491.389ZM445.614 586.783V531.06L488.263 507.099V563L445.614 586.783Z" fill="#492BFF" stroke="black" stroke-miterlimit="10"/>
<path d="M434.286 525.058L439.778 527.224L439.944 603.049" stroke="black" stroke-miterlimit="10"/>
<path d="M439.778 527.224L498.608 491.389" stroke="black" stroke-miterlimit="10"/>
<path d="M488.263 507.099V563L445.614 586.783V531.06L488.263 507.099Z" fill="#492BFF" stroke="black" stroke-miterlimit="10"/>
<path d="M493.447 566.054L445.614 593.057V586.783L488.263 563V507.099L492.773 504.565L493.447 566.054Z" fill="#492BFF" stroke="black" stroke-miterlimit="10"/>
<path d="M488.251 563L493.436 566.054" stroke="black" stroke-miterlimit="10"/>
<path d="M673.689 392.894L669.7 390.893L609.367 426.562V504.565H615.037L675.689 471.891L673.689 392.894ZM620.707 488.287V432.564L663.343 408.603V464.504L620.707 488.287Z" fill="#492BFF" stroke="black" stroke-miterlimit="10"/>
<path d="M609.367 426.562L614.871 428.728L615.037 504.554" stroke="black" stroke-miterlimit="10"/>
<path d="M614.871 428.728L673.689 392.894" stroke="black" stroke-miterlimit="10"/>
<path d="M668.528 467.558L620.707 494.562V488.288L663.343 464.504V408.603L667.865 406.058L668.528 467.558Z" fill="#492BFF" stroke="black" stroke-miterlimit="10"/>
<path d="M663.343 408.603V464.504L620.707 488.287V432.564L663.343 408.603Z" fill="#492BFF" stroke="black" stroke-miterlimit="10"/>
<path d="M663.343 464.504L668.528 467.558" stroke="black" stroke-miterlimit="10"/>
<path d="M586.036 333.121L582.035 331.121L521.714 366.79V444.781H527.384L588.036 412.119L586.036 333.121ZM533.042 428.503V372.78L575.679 348.831V404.72L533.042 428.503Z" fill="#492BFF" stroke="black" stroke-miterlimit="10"/>
<path d="M521.714 366.778L527.206 368.944L527.372 444.781" stroke="black" stroke-miterlimit="10"/>
<path d="M527.206 368.944L586.036 333.121" stroke="black" stroke-miterlimit="10"/>
<path d="M580.875 407.786L533.042 434.778V428.503L575.679 404.72V348.831L580.2 346.286L580.875 407.786Z" fill="#492BFF" stroke="black" stroke-miterlimit="10"/>
<path d="M575.679 348.831V404.72L533.042 428.503V372.78L575.679 348.831Z" fill="#492BFF" stroke="black" stroke-miterlimit="10"/>
<path d="M575.679 404.72L580.863 407.786" stroke="black" stroke-miterlimit="10"/>
<path d="M498.549 382.902L494.548 380.901L434.227 416.558V494.562H439.897L500.55 461.9L498.549 382.902ZM445.555 478.284V422.561L488.204 398.611V454.501L445.555 478.284Z" fill="#492BFF" stroke="black" stroke-miterlimit="10"/>
<path d="M434.227 416.558L439.719 418.725L439.885 494.562" stroke="black" stroke-miterlimit="10"/>
<path d="M439.719 418.725L498.549 382.89" stroke="black" stroke-miterlimit="10"/>
<path d="M493.388 457.567L445.555 484.558V478.284L488.204 454.501V398.6L492.725 396.066L493.388 457.567Z" fill="#492BFF" stroke="black" stroke-miterlimit="10"/>
<path d="M488.204 398.611V454.501L445.555 478.284V422.56L488.204 398.611Z" fill="#492BFF" stroke="black" stroke-miterlimit="10"/>
<path d="M488.204 398.611V398.6" stroke="black" stroke-miterlimit="10"/>
<path d="M488.192 454.5L493.388 457.555" stroke="black" stroke-miterlimit="10"/>
<path d="M673.641 284.406L669.641 282.406L609.308 318.063V396.066H614.977L675.63 363.392L673.641 284.406ZM620.647 379.788V324.065L663.284 300.116V356.005L620.647 379.788Z" fill="#492BFF" stroke="black" stroke-miterlimit="10"/>
<path d="M609.308 318.063L614.812 320.229L614.977 396.066" stroke="black" stroke-miterlimit="10"/>
<path d="M614.812 320.229L673.63 284.394" stroke="black" stroke-miterlimit="10"/>
<path d="M668.469 359.059L620.647 386.063V379.788L663.284 356.005V300.104L667.806 297.571L668.469 359.059Z" fill="#492BFF" stroke="black" stroke-miterlimit="10"/>
<path d="M663.284 300.116V356.005L620.647 379.788V324.065L663.284 300.116Z" fill="#492BFF" stroke="black" stroke-miterlimit="10"/>
<path d="M663.284 300.116V300.104" stroke="black" stroke-miterlimit="10"/>
<path d="M663.284 356.005L668.469 359.059" stroke="black" stroke-miterlimit="10"/>
<path d="M144.079 465.25V488.583L109.859 507.915L109.646 486.583L144.079 465.25Z" fill="black" fill-opacity="0.05" stroke="black" stroke-miterlimit="10"/>
<path d="M324.925 398.363L129.023 285.898L130.207 458.739L144.411 465.25V488.927L174.595 507.276V398.363L191.167 386.525L292.965 448.676V576.531L338.537 603.168L342.68 600.8V422.04L324.925 411.977V398.363Z" fill="black" fill-opacity="0.05"/>
</g>
<defs>
<clipPath id="clip0_32_1967">
<rect width="771" height="752" fill="white"/>
</clipPath>
</defs>
</svg>
